<?xml version="1.0" standalone="no"?>
<!DOCTYPE svg PUBLIC "-//W3C//DTD SVG 20010904//EN"
 "http://www.w3.org/TR/2001/REC-SVG-20010904/DTD/svg10.dtd">
<svg version="1.0" xmlns="http://www.w3.org/2000/svg"
 width="408.000000pt" height="612.000000pt" viewBox="0 0 408.000000 612.000000"
 preserveAspectRatio="xMidYMid meet">

<g transform="translate(0.000000,612.000000) scale(0.100000,-0.100000)"
fill="#000000" stroke="none">
<path d="M1925 4689 c-318 -42 -601 -243 -745 -529 -166 -329 -150 -710 39
-921 l48 -54 -98 -93 c-161 -153 -274 -318 -330 -481 -28 -80 -26 -204 4 -253
39 -66 135 -118 191 -104 19 5 24 -2 40 -47 52 -148 170 -269 346 -357 36 -18
67 -34 68 -35 2 -2 1 -17 -2 -32 -5 -23 -18 -34 -64 -55 -71 -33 -140 -92
-158 -133 -32 -77 33 -145 138 -145 26 0 55 -8 73 -20 40 -27 114 -27 157 0
29 18 43 19 115 14 68 -6 87 -4 108 10 59 39 57 127 -6 203 -62 75 -60 76 94
69 72 -3 176 -3 230 2 114 9 120 2 62 -68 -19 -23 -38 -54 -41 -69 -3 -14 -7
-35 -9 -45 -6 -28 20 -83 46 -97 15 -8 48 -10 97 -6 62 5 82 2 113 -14 50 -25
132 -25 167 0 15 10 52 21 82 24 71 7 108 24 126 58 39 76 -7 141 -151 215
-49 25 -61 36 -66 62 -6 32 -5 33 50 59 156 73 267 179 335 317 45 92 47 95
75 90 36 -7 106 23 144 62 48 48 59 81 59 163 -1 183 -134 411 -360 621 l-90
84 49 54 c104 118 153 265 153 462 -1 271 -106 519 -301 713 -135 134 -303
227 -472 263 -90 18 -232 24 -316 13z m327 -93 c146 -32 259 -93 379 -205 196
-181 309 -434 309 -691 0 -245 -88 -411 -283 -537 -54 -36 -68 -49 -65 -66 5
-34 43 -33 98 1 l49 30 44 -29 c90 -60 263 -261 335 -389 42 -76 72 -174 72
-235 0 -61 -27 -108 -78 -138 -29 -17 -38 -18 -74 -8 -83 25 -172 149 -223
311 -44 139 -51 155 -72 158 -11 2 -25 -4 -32 -12 -11 -13 -8 -32 13 -108 40
-140 115 -289 177 -349 l52 -50 -27 -67 c-65 -166 -253 -307 -489 -367 -262
-66 -646 -56 -878 24 -178 61 -340 186 -395 305 -44 96 -43 105 20 159 45 39
65 67 100 140 47 97 99 265 94 301 -4 25 -39 33 -56 13 -7 -7 -23 -54 -37
-103 -51 -180 -140 -315 -230 -349 -42 -16 -46 -16 -82 1 -21 11 -48 34 -60
53 -79 119 54 404 295 632 112 107 119 109 182 75 58 -32 94 -31 98 1 2 15 -5
27 -25 39 -134 82 -201 145 -247 233 -140 267 -84 643 135 916 186 231 426
341 719 330 63 -2 145 -11 182 -19z m-520 -2860 c4 -6 8 -23 8 -38 0 -17 15
-44 40 -73 49 -57 60 -93 34 -112 -10 -7 -25 -11 -33 -9 -9 3 -40 8 -68 11
-45 6 -60 3 -106 -21 l-55 -27 -36 28 c-31 23 -50 29 -111 33 -123 8 -112 48
35 127 95 51 105 60 114 106 l6 27 82 -21 c46 -11 86 -25 90 -31z m804 -3 c3
-17 26 -34 83 -62 98 -50 143 -87 139 -115 -3 -19 -11 -22 -75 -27 -57 -4 -80
-11 -113 -34 l-41 -29 -53 29 c-51 28 -56 28 -122 18 -77 -11 -91 -9 -99 17
-8 24 15 67 54 104 17 17 31 39 31 50 1 56 8 62 98 82 76 17 87 17 90 4 1 -8
5 -25 8 -37z"/>
<path d="M1565 3898 c-35 -19 -45 -40 -45 -94 0 -71 12 -98 50 -114 27 -11 36
-11 66 3 38 18 54 49 54 103 0 82 -65 135 -125 102z"/>
<path d="M2438 3894 c-63 -34 -58 -170 7 -201 64 -30 113 6 122 90 6 53 -17
104 -53 117 -33 13 -44 12 -76 -6z"/>
<path d="M1933 3806 c-59 -19 -119 -56 -186 -115 -32 -28 -90 -67 -130 -87
-84 -42 -101 -55 -117 -95 -33 -80 39 -167 175 -209 22 -7 49 -19 60 -26 32
-20 170 -37 300 -37 165 0 283 23 398 76 136 64 179 127 140 205 -15 30 -34
44 -100 77 -44 22 -107 63 -138 92 -32 28 -91 69 -131 89 -63 32 -85 38 -151
41 -48 2 -94 -2 -120 -11z m238 -99 c30 -16 86 -55 124 -87 41 -36 87 -66 116
-75 212 -71 60 -194 -279 -225 -187 -17 -407 20 -508 86 -88 57 -80 86 40 143
45 22 109 62 141 90 31 28 81 62 109 76 71 36 175 33 257 -8z"/>
</g>
</svg>
