<?xml version="1.0" encoding="UTF-8"?>
<!DOCTYPE svg PUBLIC "-//W3C//DTD SVG 1.1//EN" "http://www.w3.org/Graphics/SVG/1.1/DTD/svg11.dtd">
<svg xmlns="http://www.w3.org/2000/svg" version="1.1" width="408px" height="612px" style="shape-rendering:geometricPrecision; text-rendering:geometricPrecision; image-rendering:optimizeQuality; fill-rule:evenodd; clip-rule:evenodd" xmlns:xlink="http://www.w3.org/1999/xlink">
<g><path style="opacity:0.412" fill="#99bfc7" d="M 194.5,141.5 C 197.649,140.835 200.982,140.502 204.5,140.5C 210.077,140.368 215.41,141.035 220.5,142.5C 212.51,141.977 204.51,141.644 196.5,141.5C 195.833,141.5 195.167,141.5 194.5,141.5 Z"/></g>
<g><path style="opacity:0.153" fill="#aad2dd" d="M 229.5,144.5 C 231.898,144.259 233.898,144.926 235.5,146.5C 233.214,146.405 231.214,145.738 229.5,144.5 Z"/></g>
<g><path style="opacity:1" fill="#617882" d="M 194.5,141.5 C 195.167,141.5 195.833,141.5 196.5,141.5C 191.204,142.251 186.204,144.084 181.5,147C 178.77,147.728 176.103,147.562 173.5,146.5C 170.508,150.236 166.841,151.57 162.5,150.5C 172.415,145.242 183.082,142.242 194.5,141.5 Z"/></g>
<g><path style="opacity:1" fill="#fefaf2" d="M 301.5,377.5 C 295.883,375.051 291.717,371.051 289,365.5C 283.48,355.436 279.48,344.77 277,333.5C 273.507,330.498 271.007,331.165 269.5,335.5C 272.119,348.732 276.952,361.066 284,372.5C 287.201,376.697 290.701,380.53 294.5,384C 289.173,399.661 279.173,411.328 264.5,419C 248.995,426.293 232.661,430.293 215.5,431C 189.266,433.461 164.266,429.128 140.5,418C 129.333,412.167 120.833,403.667 115,392.5C 113.475,389.28 112.808,385.947 113,382.5C 120.154,377.681 125.487,371.348 129,363.5C 132.129,355.32 134.795,346.987 137,338.5C 138.848,332.347 136.848,330.347 131,332.5C 127.944,345.68 122.944,358.014 116,369.5C 111.295,376.606 104.795,379.439 96.5,378C 90.5535,374.609 87.8869,369.442 88.5,362.5C 88.7543,358.744 89.421,355.077 90.5,351.5C 99.6726,330.154 113.839,312.82 133,299.5C 136.958,301.895 141.125,303.895 145.5,305.5C 148.427,303.886 149.094,301.553 147.5,298.5C 129.236,290.331 118.403,276.331 115,256.5C 110.632,212.067 127.798,178.9 166.5,157C 191.998,146.732 217.332,147.065 242.5,158C 268.808,172.748 285.308,194.915 292,224.5C 296.255,245.997 292.255,265.664 280,283.5C 273.788,289.355 266.955,294.355 259.5,298.5C 258.359,300.421 258.192,302.421 259,304.5C 259.725,305.059 260.558,305.392 261.5,305.5C 265.725,303.939 269.725,301.939 273.5,299.5C 280.991,303.478 287.491,308.811 293,315.5C 304.395,327.614 312.728,341.614 318,357.5C 320.556,366.318 318.056,373.152 310.5,378C 307.408,378.736 304.408,378.569 301.5,377.5 Z"/></g>
<g><path style="opacity:0.243" fill="#9bbdca" d="M 283.5,183.5 C 285.262,184.262 286.262,185.596 286.5,187.5C 284.738,186.738 283.738,185.404 283.5,183.5 Z"/></g>
<g><path style="opacity:1" fill="#535e67" d="M 196.5,141.5 C 204.51,141.644 212.51,141.977 220.5,142.5C 223.598,142.756 226.598,143.422 229.5,144.5C 231.214,145.738 233.214,146.405 235.5,146.5C 255.545,153.54 271.545,165.873 283.5,183.5C 283.738,185.404 284.738,186.738 286.5,187.5C 287.6,188.605 288.267,189.938 288.5,191.5C 288.427,193.027 289.094,194.027 290.5,194.5C 296.789,206.034 300.455,218.368 301.5,231.5C 301.499,240.515 301.166,249.515 300.5,258.5C 298.38,272.026 292.38,283.526 282.5,293C 284.041,294.371 285.375,295.871 286.5,297.5C 287.262,299.262 288.596,300.262 290.5,300.5C 305.661,314.176 317.161,330.509 325,349.5C 327.903,358.211 327.903,366.878 325,375.5C 321.684,381.334 316.851,385 310.5,386.5C 307.5,386.5 304.5,386.5 301.5,386.5C 301.5,387.5 301.5,388.5 301.5,389.5C 301.34,391.153 300.674,392.486 299.5,393.5C 300.074,387.922 300.74,382.589 301.5,377.5C 304.408,378.569 307.408,378.736 310.5,378C 318.056,373.152 320.556,366.318 318,357.5C 312.728,341.614 304.395,327.614 293,315.5C 287.491,308.811 280.991,303.478 273.5,299.5C 269.725,301.939 265.725,303.939 261.5,305.5C 260.558,305.392 259.725,305.059 259,304.5C 258.192,302.421 258.359,300.421 259.5,298.5C 266.955,294.355 273.788,289.355 280,283.5C 292.255,265.664 296.255,245.997 292,224.5C 285.308,194.915 268.808,172.748 242.5,158C 217.332,147.065 191.998,146.732 166.5,157C 127.798,178.9 110.632,212.067 115,256.5C 118.403,276.331 129.236,290.331 147.5,298.5C 149.094,301.553 148.427,303.886 145.5,305.5C 141.125,303.895 136.958,301.895 133,299.5C 113.839,312.82 99.6726,330.154 90.5,351.5C 89.5,351.5 88.5,351.5 87.5,351.5C 87.5439,359.176 86.8772,359.342 85.5,352C 84.0715,351.421 82.7382,351.588 81.5,352.5C 84.1659,343.502 88.1659,335.169 93.5,327.5C 94.9063,327.027 95.573,326.027 95.5,324.5C 96.604,322.611 97.9373,320.945 99.5,319.5C 100.906,319.027 101.573,318.027 101.5,316.5C 102.504,315.317 103.338,313.984 104,312.5C 110.531,305.635 117.364,299.135 124.5,293C 109.029,276.346 102.529,256.513 105,233.5C 106.294,219.696 110.128,206.696 116.5,194.5C 117.906,194.027 118.573,193.027 118.5,191.5C 128.709,172.955 143.375,159.288 162.5,150.5C 166.841,151.57 170.508,150.236 173.5,146.5C 176.103,147.562 178.77,147.728 181.5,147C 186.204,144.084 191.204,142.251 196.5,141.5 Z"/></g>
<g><path style="opacity:0.027" fill="#bfe8ed" d="M 118.5,191.5 C 118.573,193.027 117.906,194.027 116.5,194.5C 116.427,192.973 117.094,191.973 118.5,191.5 Z"/></g>
<g><path style="opacity:0.039" fill="#aad7e5" d="M 288.5,191.5 C 289.906,191.973 290.573,192.973 290.5,194.5C 289.094,194.027 288.427,193.027 288.5,191.5 Z"/></g>
<g><path style="opacity:1" fill="#525a62" d="M 156.5,220.5 C 167.197,221.176 171.03,226.843 168,237.5C 164.96,243.368 160.46,244.868 154.5,242C 148.639,234.075 149.306,226.908 156.5,220.5 Z"/></g>
<g><path style="opacity:1" fill="#55595f" d="M 234.5,283.5 C 232.704,282.206 230.704,281.206 228.5,280.5C 231.551,280.274 234.551,280.274 237.5,280.5C 236.689,279.784 236.022,278.95 235.5,278C 237.491,276.408 239.491,274.908 241.5,273.5C 244.431,271.752 247.264,269.752 250,267.5C 251.087,264.386 250.254,262.053 247.5,260.5C 242.484,258.319 237.484,255.986 232.5,253.5C 230.12,250.119 227.12,247.453 223.5,245.5C 222.341,243.75 220.674,242.75 218.5,242.5C 216.035,240.163 213.035,238.663 209.5,238C 204.833,237.333 200.167,237.333 195.5,238C 194.263,238.232 193.263,238.732 192.5,239.5C 189.674,239.998 187.34,241.331 185.5,243.5C 180.495,247.507 175.495,251.507 170.5,255.5C 170.167,255.5 169.833,255.5 169.5,255.5C 167.883,256.038 166.216,256.371 164.5,256.5C 161.518,256.104 158.851,256.771 156.5,258.5C 155.574,262.094 155.241,265.76 155.5,269.5C 157.685,269.704 159.685,270.37 161.5,271.5C 166.015,273.561 170.681,275.227 175.5,276.5C 176.209,277.404 177.209,277.737 178.5,277.5C 178.804,278.15 179.137,278.817 179.5,279.5C 191.282,281.643 203.115,281.976 215,280.5C 217.95,280.568 220.617,281.234 223,282.5C 223.414,282.043 223.914,281.709 224.5,281.5C 225.354,282.522 226.354,283.355 227.5,284C 224.621,284.546 221.954,285.379 219.5,286.5C 218.833,286.5 218.167,286.5 217.5,286.5C 202.779,286.784 188.113,286.117 173.5,284.5C 165.217,281.942 157.717,277.942 151,272.5C 146.942,265.35 148.108,259.184 154.5,254C 159.869,251.327 165.202,248.66 170.5,246C 193.072,223.803 215.405,224.137 237.5,247C 244.041,249.853 250.207,253.353 256,257.5C 260.253,266.737 257.753,273.571 248.5,278C 243.928,280.134 239.261,281.967 234.5,283.5 Z"/></g>
<g><path style="opacity:1" fill="#535a63" d="M 244.5,220.5 C 250.345,219.668 254.179,222.001 256,227.5C 256.767,231.594 256.434,235.594 255,239.5C 251.491,243.613 247.324,244.446 242.5,242C 236.639,234.075 237.306,226.908 244.5,220.5 Z"/></g>
<g><path style="opacity:1" fill="#fda455" d="M 218.5,242.5 C 220.674,242.75 222.341,243.75 223.5,245.5C 223.414,246.496 223.748,247.329 224.5,248C 227.065,250.08 229.732,251.913 232.5,253.5C 232.414,254.496 232.748,255.329 233.5,256C 238.091,257.813 242.758,259.313 247.5,260.5C 246.124,264.124 244.457,267.624 242.5,271C 239.032,271.987 235.698,273.321 232.5,275C 221.407,276.953 210.24,278.119 199,278.5C 190.989,278.585 183.156,277.919 175.5,276.5C 170.681,275.227 166.015,273.561 161.5,271.5C 159.213,269.386 157.546,266.886 156.5,264C 156.278,261.725 157.278,260.559 159.5,260.5C 163.431,259.868 166.765,258.201 169.5,255.5C 169.833,255.5 170.167,255.5 170.5,255.5C 173.09,255.082 175.423,254.082 177.5,252.5C 178.086,252.709 178.586,253.043 179,253.5C 179.333,252.167 179.667,250.833 180,249.5C 182.04,247.63 183.873,245.63 185.5,243.5C 187.34,241.331 189.674,239.998 192.5,239.5C 199.324,237.816 205.991,238.316 212.5,241C 208.02,241.293 207.687,242.126 211.5,243.5C 213.747,242.626 216.08,242.292 218.5,242.5 Z"/></g>
<g><path style="opacity:1" fill="#eba566" d="M 218.5,242.5 C 216.08,242.292 213.747,242.626 211.5,243.5C 207.687,242.126 208.02,241.293 212.5,241C 205.991,238.316 199.324,237.816 192.5,239.5C 193.263,238.732 194.263,238.232 195.5,238C 200.167,237.333 204.833,237.333 209.5,238C 213.035,238.663 216.035,240.163 218.5,242.5 Z"/></g>
<g><path style="opacity:0.067" fill="#a1c2c9" d="M 301.5,231.5 C 302.165,234.649 302.498,237.982 302.5,241.5C 302.598,247.401 301.931,253.067 300.5,258.5C 301.166,249.515 301.499,240.515 301.5,231.5 Z"/></g>
<g><path style="opacity:1" fill="#e1a86b" d="M 223.5,245.5 C 227.12,247.453 230.12,250.119 232.5,253.5C 229.732,251.913 227.065,250.08 224.5,248C 223.748,247.329 223.414,246.496 223.5,245.5 Z"/></g>
<g><path style="opacity:1" fill="#eaa568" d="M 185.5,243.5 C 183.873,245.63 182.04,247.63 180,249.5C 179.667,250.833 179.333,252.167 179,253.5C 178.586,253.043 178.086,252.709 177.5,252.5C 175.423,254.082 173.09,255.082 170.5,255.5C 175.495,251.507 180.495,247.507 185.5,243.5 Z"/></g>
<g><path style="opacity:1" fill="#e3a670" d="M 169.5,255.5 C 166.765,258.201 163.431,259.868 159.5,260.5C 160.984,258.926 162.651,257.593 164.5,256.5C 166.216,256.371 167.883,256.038 169.5,255.5 Z"/></g>
<g><path style="opacity:1" fill="#daa571" d="M 232.5,253.5 C 237.484,255.986 242.484,258.319 247.5,260.5C 242.758,259.313 238.091,257.813 233.5,256C 232.748,255.329 232.414,254.496 232.5,253.5 Z"/></g>
<g><path style="opacity:1" fill="#675a4d" d="M 164.5,256.5 C 162.651,257.593 160.984,258.926 159.5,260.5C 157.278,260.559 156.278,261.725 156.5,264C 157.546,266.886 159.213,269.386 161.5,271.5C 159.685,270.37 157.685,269.704 155.5,269.5C 155.241,265.76 155.574,262.094 156.5,258.5C 158.851,256.771 161.518,256.104 164.5,256.5 Z"/></g>
<g><path style="opacity:1" fill="#eba765" d="M 247.5,260.5 C 250.254,262.053 251.087,264.386 250,267.5C 247.264,269.752 244.431,271.752 241.5,273.5C 220.829,279.794 199.829,281.127 178.5,277.5C 177.209,277.737 176.209,277.404 175.5,276.5C 183.156,277.919 190.989,278.585 199,278.5C 210.24,278.119 221.407,276.953 232.5,275C 235.698,273.321 239.032,271.987 242.5,271C 244.457,267.624 246.124,264.124 247.5,260.5 Z"/></g>
<g><path style="opacity:1" fill="#5b5753" d="M 241.5,273.5 C 239.491,274.908 237.491,276.408 235.5,278C 236.022,278.95 236.689,279.784 237.5,280.5C 234.551,280.274 231.551,280.274 228.5,280.5C 230.704,281.206 232.704,282.206 234.5,283.5C 234.5,284.167 234.167,284.5 233.5,284.5C 228.893,285.554 224.227,286.221 219.5,286.5C 221.954,285.379 224.621,284.546 227.5,284C 226.354,283.355 225.354,282.522 224.5,281.5C 223.914,281.709 223.414,282.043 223,282.5C 220.617,281.234 217.95,280.568 215,280.5C 203.115,281.976 191.282,281.643 179.5,279.5C 179.137,278.817 178.804,278.15 178.5,277.5C 199.829,281.127 220.829,279.794 241.5,273.5 Z"/></g>
<g><path style="opacity:1" fill="#6d5b4b" d="M 173.5,284.5 C 188.113,286.117 202.779,286.784 217.5,286.5C 203.589,289.012 189.589,288.678 175.5,285.5C 174.508,285.672 173.842,285.338 173.5,284.5 Z"/></g>
<g><path style="opacity:1" fill="#ecaa6b" d="M 233.5,284.5 C 227.277,288.97 220.277,291.803 212.5,293C 205.321,293.821 198.321,293.655 191.5,292.5C 197.842,292.666 204.175,292.5 210.5,292C 209.328,291.581 208.328,290.915 207.5,290C 199.821,289.374 192.154,289.04 184.5,289C 186.491,289.374 188.158,290.207 189.5,291.5C 184.176,290.843 179.51,288.843 175.5,285.5C 189.589,288.678 203.589,289.012 217.5,286.5C 218.167,286.5 218.833,286.5 219.5,286.5C 224.227,286.221 228.893,285.554 233.5,284.5 Z"/></g>
<g><path style="opacity:1" fill="#faa45c" d="M 191.5,292.5 C 190.508,292.672 189.842,292.338 189.5,291.5C 188.158,290.207 186.491,289.374 184.5,289C 192.154,289.04 199.821,289.374 207.5,290C 208.328,290.915 209.328,291.581 210.5,292C 204.175,292.5 197.842,292.666 191.5,292.5 Z"/></g>
<g><path style="opacity:0.02" fill="#a7c3d6" d="M 286.5,297.5 C 288.404,297.738 289.738,298.738 290.5,300.5C 288.596,300.262 287.262,299.262 286.5,297.5 Z"/></g>
<g><path style="opacity:0.255" fill="#9ac5cd" d="M 101.5,316.5 C 101.573,318.027 100.906,319.027 99.5,319.5C 99.427,317.973 100.094,316.973 101.5,316.5 Z"/></g>
<g><path style="opacity:0.149" fill="#afcbdf" d="M 95.5,324.5 C 95.573,326.027 94.9063,327.027 93.5,327.5C 93.427,325.973 94.0937,324.973 95.5,324.5 Z"/></g>
<g><path style="opacity:0.204" fill="#a1c0c9" d="M 93.5,385.5 C 97.4659,386.162 101.466,386.495 105.5,386.5C 105.5,387.5 105.5,388.5 105.5,389.5C 101.547,388.007 97.5472,386.674 93.5,385.5 Z"/></g>
<g><path style="opacity:0.188" fill="#b0d0d7" d="M 310.5,386.5 C 307.366,387.035 304.366,388.035 301.5,389.5C 301.5,388.5 301.5,387.5 301.5,386.5C 304.5,386.5 307.5,386.5 310.5,386.5 Z"/></g>
<g><path style="opacity:0.012" fill="#b9e8ee" d="M 290.5,408.5 C 290.5,410.5 289.5,411.5 287.5,411.5C 288.167,410.167 289.167,409.167 290.5,408.5 Z"/></g>
<g><path style="opacity:1" fill="#5b747e" d="M 114.5,406.5 C 116.179,406.892 117.846,407.392 119.5,408C 122.509,410.677 125.176,413.677 127.5,417C 131.018,417.85 133.351,420.017 134.5,423.5C 126.548,419.213 119.882,413.546 114.5,406.5 Z"/></g>
<g><path style="opacity:0.004" fill="#c7ebee" d="M 286.5,412.5 C 286.5,414.5 285.5,415.5 283.5,415.5C 284.167,414.167 285.167,413.167 286.5,412.5 Z"/></g>
<g><path style="opacity:1" fill="#637f8a" d="M 282.5,415.5 C 282.489,417.017 281.823,418.184 280.5,419C 277.941,420.777 275.274,422.277 272.5,423.5C 273.188,420.943 274.354,418.609 276,416.5C 276.414,416.957 276.914,417.291 277.5,417.5C 278.833,416.167 280.167,414.833 281.5,413.5C 282.298,413.957 282.631,414.624 282.5,415.5 Z"/></g>
<g><path style="opacity:0.996" fill="#6a8890" d="M 270.5,424.5 C 267.632,426.912 264.299,428.579 260.5,429.5C 260.5,428.5 260.5,427.5 260.5,426.5C 264.473,426.404 267.806,425.737 270.5,424.5 Z"/></g>
<g><path style="opacity:1" fill="#535c64" d="M 301.5,377.5 C 300.74,382.589 300.074,387.922 299.5,393.5C 297.753,399.341 294.753,404.341 290.5,408.5C 289.167,409.167 288.167,410.167 287.5,411.5C 287.5,412.167 287.167,412.5 286.5,412.5C 285.167,413.167 284.167,414.167 283.5,415.5C 283.167,415.5 282.833,415.5 282.5,415.5C 282.631,414.624 282.298,413.957 281.5,413.5C 280.167,414.833 278.833,416.167 277.5,417.5C 276.914,417.291 276.414,416.957 276,416.5C 274.354,418.609 273.188,420.943 272.5,423.5C 271.833,423.833 271.167,424.167 270.5,424.5C 267.806,425.737 264.473,426.404 260.5,426.5C 260.5,427.5 260.5,428.5 260.5,429.5C 260.34,431.199 260.506,432.866 261,434.5C 267.858,438.018 274.358,442.185 280.5,447C 282.016,448.897 282.683,451.064 282.5,453.5C 282.5,454.5 282.5,455.5 282.5,456.5C 281.448,456.351 280.448,456.517 279.5,457C 280.711,458.113 280.711,459.28 279.5,460.5C 278.272,462.321 276.606,463.321 274.5,463.5C 274.5,464.5 274.5,465.5 274.5,466.5C 270.818,466.335 267.152,466.501 263.5,467C 262.193,469.324 260.193,470.657 257.5,471C 253.745,471.755 250.078,471.589 246.5,470.5C 245.486,469.326 244.153,468.66 242.5,468.5C 237.448,467.393 232.448,467.727 227.5,469.5C 218.226,466.9 215.06,460.9 218,451.5C 220.242,447.74 222.742,444.074 225.5,440.5C 210.845,439.334 196.178,439.167 181.5,440C 182.252,440.671 182.586,441.504 182.5,442.5C 182.833,443.5 183.5,444.167 184.5,444.5C 185.5,444.833 186.167,445.5 186.5,446.5C 186.427,448.027 187.094,449.027 188.5,449.5C 192.587,466.003 186.254,472.003 169.5,467.5C 164.852,469.913 159.852,471.246 154.5,471.5C 150.031,471.846 146.364,470.346 143.5,467C 139.514,466.501 135.514,466.334 131.5,466.5C 131.027,465.094 130.027,464.427 128.5,464.5C 127.5,464.167 126.833,463.5 126.5,462.5C 126.34,460.847 125.674,459.514 124.5,458.5C 124.036,449.614 128.036,443.614 136.5,440.5C 138.027,440.573 139.027,439.906 139.5,438.5C 143.191,437.501 145.858,435.334 147.5,432C 143.31,428.89 138.977,426.056 134.5,423.5C 133.351,420.017 131.018,417.85 127.5,417C 125.176,413.677 122.509,410.677 119.5,408C 117.846,407.392 116.179,406.892 114.5,406.5C 110.21,401.591 107.21,395.924 105.5,389.5C 105.5,388.5 105.5,387.5 105.5,386.5C 101.466,386.495 97.4659,386.162 93.5,385.5C 84.2019,381.414 79.8685,374.247 80.5,364C 80.6792,360.142 81.0125,356.309 81.5,352.5C 82.7382,351.588 84.0715,351.421 85.5,352C 86.8772,359.342 87.5439,359.176 87.5,351.5C 88.5,351.5 89.5,351.5 90.5,351.5C 89.421,355.077 88.7543,358.744 88.5,362.5C 87.8869,369.442 90.5535,374.609 96.5,378C 104.795,379.439 111.295,376.606 116,369.5C 122.944,358.014 127.944,345.68 131,332.5C 136.848,330.347 138.848,332.347 137,338.5C 134.795,346.987 132.129,355.32 129,363.5C 125.487,371.348 120.154,377.681 113,382.5C 112.808,385.947 113.475,389.28 115,392.5C 120.833,403.667 129.333,412.167 140.5,418C 164.266,429.128 189.266,433.461 215.5,431C 232.661,430.293 248.995,426.293 264.5,419C 279.173,411.328 289.173,399.661 294.5,384C 290.701,380.53 287.201,376.697 284,372.5C 276.952,361.066 272.119,348.732 269.5,335.5C 271.007,331.165 273.507,330.498 277,333.5C 279.48,344.77 283.48,355.436 289,365.5C 291.717,371.051 295.883,375.051 301.5,377.5 Z"/></g>
<g><path style="opacity:0.392" fill="#99c1d0" d="M 139.5,438.5 C 139.027,439.906 138.027,440.573 136.5,440.5C 136.973,439.094 137.973,438.427 139.5,438.5 Z"/></g>
<g><path style="opacity:1" fill="#e9a76b" d="M 167.5,436.5 C 164.421,436.74 161.421,436.407 158.5,435.5C 156.515,439.989 153.182,442.823 148.5,444C 145.138,447.531 141.138,450.031 136.5,451.5C 136.5,451.167 136.5,450.833 136.5,450.5C 141.187,447.155 146.187,444.322 151.5,442C 153.788,440.041 155.121,437.541 155.5,434.5C 159.712,433.886 163.712,434.553 167.5,436.5 Z"/></g>
<g><path style="opacity:1" fill="#fda455" d="M 167.5,436.5 C 168.531,437.249 169.698,437.915 171,438.5C 171.333,440.833 171.667,443.167 172,445.5C 174.291,447.825 176.624,450.158 179,452.5C 180.202,454.677 180.702,457.011 180.5,459.5C 172.46,458.217 164.46,458.383 156.5,460C 155.357,463.022 154.023,463.188 152.5,460.5C 155.028,459.483 155.028,458.316 152.5,457C 151.542,458.228 149.542,458.728 146.5,458.5C 142.688,457.676 138.688,457.176 134.5,457C 133.066,454.472 133.733,452.638 136.5,451.5C 141.138,450.031 145.138,447.531 148.5,444C 153.182,442.823 156.515,439.989 158.5,435.5C 161.421,436.407 164.421,436.74 167.5,436.5 Z"/></g>
<g><path style="opacity:0.004" fill="#dbecf1" d="M 182.5,442.5 C 183.833,442.5 184.5,443.167 184.5,444.5C 183.5,444.167 182.833,443.5 182.5,442.5 Z"/></g>
<g><path style="opacity:1" fill="#dfa66e" d="M 255.5,441.5 C 257.05,442.441 258.716,443.107 260.5,443.5C 262.5,444.833 264.5,446.167 266.5,447.5C 262.895,447.201 259.561,446.035 256.5,444C 255.748,443.329 255.414,442.496 255.5,441.5 Z"/></g>
<g><path style="opacity:1" fill="#e1a36b" d="M 254.5,441.5 C 250.166,441.203 248.833,439.203 250.5,435.5C 248.876,435.36 247.71,436.027 247,437.5C 243.459,436.128 239.959,436.294 236.5,438C 236.175,444.483 233.175,449.316 227.5,452.5C 228.713,449.775 230.546,447.441 233,445.5C 233.498,442.518 233.665,439.518 233.5,436.5C 239.81,435.284 246.143,434.284 252.5,433.5C 252.287,436.451 252.954,439.118 254.5,441.5 Z"/></g>
<g><path style="opacity:1" fill="#fca455" d="M 254.5,441.5 C 254.833,441.5 255.167,441.5 255.5,441.5C 255.414,442.496 255.748,443.329 256.5,444C 259.561,446.035 262.895,447.201 266.5,447.5C 269.4,448.443 271.733,450.11 273.5,452.5C 273.5,454.167 273.5,455.833 273.5,457.5C 267.374,455.895 261.54,456.561 256,459.5C 255.228,459.355 254.561,459.022 254,458.5C 253.51,459.793 253.343,461.127 253.5,462.5C 251.435,462.483 249.435,462.15 247.5,461.5C 247.586,460.504 247.252,459.671 246.5,459C 240.115,458.465 233.781,458.465 227.5,459C 226.395,456.88 226.395,454.713 227.5,452.5C 233.175,449.316 236.175,444.483 236.5,438C 239.959,436.294 243.459,436.128 247,437.5C 247.71,436.027 248.876,435.36 250.5,435.5C 248.833,439.203 250.166,441.203 254.5,441.5 Z"/></g>
<g><path style="opacity:1" fill="#e5a76e" d="M 167.5,436.5 C 169.5,436.5 171.5,436.5 173.5,436.5C 173.336,439.187 173.503,441.854 174,444.5C 177.053,447.887 179.72,451.553 182,455.5C 182.877,457.674 182.377,459.341 180.5,460.5C 175.799,460.648 171.132,460.315 166.5,459.5C 162.593,460.884 158.76,462.55 155,464.5C 152.374,462.439 149.541,460.772 146.5,459.5C 146.5,459.167 146.5,458.833 146.5,458.5C 149.542,458.728 151.542,458.228 152.5,457C 155.028,458.316 155.028,459.483 152.5,460.5C 154.023,463.188 155.357,463.022 156.5,460C 164.46,458.383 172.46,458.217 180.5,459.5C 180.702,457.011 180.202,454.677 179,452.5C 176.624,450.158 174.291,447.825 172,445.5C 171.667,443.167 171.333,440.833 171,438.5C 169.698,437.915 168.531,437.249 167.5,436.5 Z"/></g>
<g><path style="opacity:0.11" fill="#a6d2d8" d="M 186.5,446.5 C 187.906,446.973 188.573,447.973 188.5,449.5C 187.094,449.027 186.427,448.027 186.5,446.5 Z"/></g>
<g><path style="opacity:1" fill="#c4966b" d="M 136.5,450.5 C 136.5,450.833 136.5,451.167 136.5,451.5C 133.733,452.638 133.066,454.472 134.5,457C 138.688,457.176 142.688,457.676 146.5,458.5C 146.5,458.833 146.5,459.167 146.5,459.5C 142.069,459.769 137.735,459.436 133.5,458.5C 130.483,454.623 131.483,451.956 136.5,450.5 Z"/></g>
<g><path style="opacity:1" fill="#627981" d="M 282.5,453.5 C 284.11,460.263 281.443,464.596 274.5,466.5C 274.5,465.5 274.5,464.5 274.5,463.5C 276.606,463.321 278.272,462.321 279.5,460.5C 280.711,459.28 280.711,458.113 279.5,457C 280.448,456.517 281.448,456.351 282.5,456.5C 282.5,455.5 282.5,454.5 282.5,453.5 Z"/></g>
<g><path style="opacity:1" fill="#e5a76c" d="M 273.5,452.5 C 275.647,453.932 275.98,455.765 274.5,458C 269.833,458.333 265.167,458.667 260.5,459C 259.944,459.383 259.611,459.883 259.5,460.5C 257.15,461.994 254.65,463.327 252,464.5C 250.019,464.101 248.519,463.101 247.5,461.5C 249.435,462.15 251.435,462.483 253.5,462.5C 253.343,461.127 253.51,459.793 254,458.5C 254.561,459.022 255.228,459.355 256,459.5C 261.54,456.561 267.374,455.895 273.5,457.5C 273.5,455.833 273.5,454.167 273.5,452.5 Z"/></g>
<g><path style="opacity:1" fill="#dca46d" d="M 227.5,452.5 C 226.395,454.713 226.395,456.88 227.5,459C 233.781,458.465 240.115,458.465 246.5,459C 247.252,459.671 247.586,460.504 247.5,461.5C 244.858,460.147 242.024,459.481 239,459.5C 234.846,460.449 230.679,460.949 226.5,461C 223.751,457.762 224.085,454.929 227.5,452.5 Z"/></g>
<g><path style="opacity:1" fill="#67594e" d="M 260.5,443.5 C 263.237,444.213 265.904,444.213 268.5,443.5C 281.558,457.391 278.558,463.058 259.5,460.5C 259.611,459.883 259.944,459.383 260.5,459C 265.167,458.667 269.833,458.333 274.5,458C 275.98,455.765 275.647,453.932 273.5,452.5C 271.733,450.11 269.4,448.443 266.5,447.5C 264.5,446.167 262.5,444.833 260.5,443.5 Z"/></g>
<g><path style="opacity:0.082" fill="#a5d0dc" d="M 124.5,458.5 C 125.674,459.514 126.34,460.847 126.5,462.5C 124.896,461.713 124.229,460.38 124.5,458.5 Z"/></g>
<g><path style="opacity:1" fill="#5c5855" d="M 133.5,458.5 C 137.735,459.436 142.069,459.769 146.5,459.5C 149.541,460.772 152.374,462.439 155,464.5C 158.76,462.55 162.593,460.884 166.5,459.5C 171.132,460.315 175.799,460.648 180.5,460.5C 180.585,461.995 179.919,462.995 178.5,463.5C 175.298,462.873 172.131,462.206 169,461.5C 164.007,463.423 159.173,465.423 154.5,467.5C 151.881,467.349 149.547,466.515 147.5,465C 149.815,463.632 149.815,462.799 147.5,462.5C 145.019,464.164 142.353,464.664 139.5,464C 140.973,463.29 141.64,462.124 141.5,460.5C 138.302,461.036 135.635,460.369 133.5,458.5 Z"/></g>
<g><path style="opacity:0.086" fill="#b2dde7" d="M 128.5,464.5 C 130.027,464.427 131.027,465.094 131.5,466.5C 129.973,466.573 128.973,465.906 128.5,464.5 Z"/></g>
<g><path style="opacity:0.106" fill="#a6c6db" d="M 242.5,468.5 C 244.153,468.66 245.486,469.326 246.5,470.5C 244.62,470.771 243.287,470.104 242.5,468.5 Z"/></g>
</svg>
