<?xml version="1.0" encoding="UTF-8" standalone="no"?>
<svg
   id="svg"
   version="1.1"
   width="218.61575"
   height="216.99452"
   viewBox="0 0 218.61575 216.99452"
   sodipodi:docname="image2vector.svg"
   xmlns:inkscape="http://www.inkscape.org/namespaces/inkscape"
   xmlns:sodipodi="http://sodipodi.sourceforge.net/DTD/sodipodi-0.dtd"
   xmlns="http://www.w3.org/2000/svg"
   xmlns:svg="http://www.w3.org/2000/svg">
  <defs
     id="defs1" />
  <sodipodi:namedview
     id="namedview1"
     pagecolor="#ffffff"
     bordercolor="#000000"
     borderopacity="0.25"
     inkscape:showpageshadow="2"
     inkscape:pageopacity="0.0"
     inkscape:pagecheckerboard="0"
     inkscape:deskcolor="#d1d1d1">
    <inkscape:page
       x="0"
       y="0"
       width="218.61575"
       height="216.99452"
       id="page2"
       margin="0"
       bleed="0" />
  </sodipodi:namedview>
  <g
     id="svgg"
     inkscape:export-filename="svgg.svg"
     inkscape:export-xdpi="96"
     inkscape:export-ydpi="96"
     transform="translate(-90.716004,-167.72398)">
    <path
       id="path0"
       d="m 195.868,200.6 c -26.079,5.727 -33.972,34.994 -16.745,62.095 1.79,2.817 4.17,7.658 3.898,7.93 -0.644,0.644 -34.406,0.27 -38.099,-0.422 -5.023,-0.941 -9.778,-2.425 -13.047,-4.071 -6.808,-3.428 -8.254,-1.661 -8.216,10.04 0.067,20.55 5.272,30.212 23.749,44.084 33.227,24.946 82.271,21.252 95.41,-7.186 7.164,-15.505 4.56,-30.862 -8.092,-47.723 -6.161,-8.21 -6.564,-9.138 -4.888,-11.233 l 0.927,-1.159 7.567,-0.054 c 13.848,-0.099 21.232,-2.705 28.68,-10.122 5.941,-5.916 7.82,-10.744 5.281,-13.574 l -1.145,-1.275 -5.984,0.105 c -10.866,0.193 -24.48,-2.04 -25.198,-4.131 -3.994,-11.617 -10.885,-18.351 -22.621,-22.107 -5.751,-1.841 -15.957,-2.409 -21.477,-1.197 m 12.53,6.851 c 23.227,2.755 32.303,24.004 17.165,40.185 -6.543,6.994 -6.447,9.022 0.881,18.608 10.736,14.043 12.743,18.622 12.743,29.069 0,23.91 -21.727,37.819 -52.231,33.437 -6.613,-0.95 -20.686,-4.928 -21.967,-6.209 -0.056,-0.056 2.218,-0.034 5.053,0.047 23.584,0.679 41.575,-14.501 39.295,-33.155 -0.996,-8.145 -7.114,-14.782 -15.978,-17.331 -2.144,-0.616 -2.149,-0.622 -2.815,-2.864 -0.367,-1.235 -2.019,-4.531 -3.67,-7.324 -8.133,-13.756 -10.607,-21.941 -9.523,-31.512 1.597,-14.096 10.616,-21.9 26.946,-23.318 0.322,-0.028 2.168,0.137 4.101,0.367 m 5.381,17.176 c -5.544,1.191 -6.631,8.634 -1.641,11.235 5.093,2.654 10.52,-2.924 7.881,-8.1 -1.198,-2.349 -3.804,-3.658 -6.24,-3.135 m 31.406,8.788 c 4.04,1.037 12.619,2.131 16.714,2.131 l 2.72,0.001 -1.938,1.975 c -5.368,5.469 -12.752,8.181 -22.273,8.181 h -4.444 l 0.741,-1.269 c 1.252,-2.145 2.659,-6.318 3.185,-9.447 0.407,-2.425 0.613,-2.934 1.106,-2.736 0.333,0.134 2.218,0.658 4.189,1.164 m -106.459,42.906 c 8.14,2.177 14.347,2.541 38.227,2.237 18.119,-0.231 24.599,3.053 25.298,12.823 1.079,15.07 -16.481,26.059 -38.169,23.887 -21.492,-2.152 -33.223,-15.667 -33.223,-38.278 v -3.51 l 2.106,0.932 c 1.158,0.512 3.751,1.371 5.761,1.909"
       stroke="none"
       fill="#041a23"
       fill-rule="evenodd" />
    <path
       id="path1"
       d="m 197.768,167.867 c 1.243,0.078 3.177,0.077 4.297,-10e-4 1.12,-0.079 0.103,-0.143 -2.26,-0.142 -2.364,0.001 -3.28,0.065 -2.037,0.143 m -8.032,0.634 c 0.115,0.186 -0.909,0.22 -2.283,0.075 -1.905,-0.2 -2.354,-0.157 -1.906,0.184 0.454,0.345 0.163,0.395 -1.29,0.222 -1.309,-0.155 -1.795,-0.093 -1.611,0.206 0.186,0.3 -0.246,0.35 -1.444,0.168 -1.24,-0.19 -1.549,-0.149 -1.124,0.146 0.855,0.595 -0.952,0.564 -2.076,-0.035 -0.797,-0.424 -0.815,-0.407 -0.268,0.261 0.552,0.674 0.511,0.701 -0.703,0.461 -0.91,-0.18 -1.209,-0.126 -1.016,0.186 0.192,0.31 -0.046,0.362 -0.794,0.174 -0.773,-0.194 -0.989,-0.14 -0.782,0.195 0.203,0.327 -0.013,0.406 -0.736,0.268 -0.627,-0.12 -0.929,-0.044 -0.781,0.195 0.153,0.248 -0.151,0.293 -0.826,0.123 -0.774,-0.194 -0.989,-0.14 -0.781,0.196 0.206,0.333 -0.001,0.391 -0.739,0.206 -0.814,-0.204 -0.977,-0.136 -0.797,0.333 0.25,0.653 -0.45,0.821 -0.834,0.201 -0.132,-0.215 -0.417,-0.391 -0.632,-0.391 -0.215,0 -0.293,0.157 -0.175,0.349 0.343,0.555 -1.786,0.93 -2.277,0.401 -0.328,-0.354 -0.207,-0.411 0.504,-0.239 0.668,0.162 0.815,0.106 0.514,-0.194 -0.611,-0.611 -1.778,-0.056 -1.485,0.706 0.171,0.447 0.071,0.562 -0.351,0.4 -0.324,-0.125 -0.59,-0.044 -0.59,0.178 0,0.235 -0.348,0.294 -0.83,0.141 -0.529,-0.168 -0.74,-0.117 -0.58,0.141 0.398,0.645 -1.288,0.974 -2.027,0.395 -0.61,-0.478 -0.617,-0.459 -0.078,0.231 0.543,0.697 0.523,0.735 -0.264,0.533 -0.668,-0.172 -0.799,-0.083 -0.611,0.42 0.216,0.575 0.166,0.581 -0.495,0.054 -0.427,-0.341 -0.611,-0.382 -0.44,-0.098 0.364,0.606 0.164,0.612 -1.112,0.03 -0.741,-0.337 -1.121,-0.343 -1.442,-0.022 -0.322,0.322 -0.227,0.382 0.357,0.229 0.436,-0.114 0.93,0.014 1.097,0.284 0.214,0.345 0.111,0.417 -0.347,0.241 -0.358,-0.137 -0.65,-0.06 -0.65,0.171 0,0.231 -0.273,0.315 -0.606,0.187 -0.396,-0.152 -0.509,-0.075 -0.327,0.22 0.189,0.305 0.062,0.369 -0.39,0.196 -0.369,-0.142 -0.574,-0.102 -0.457,0.088 0.257,0.416 -0.878,0.91 -1.38,0.6 -0.195,-0.121 -0.355,-0.039 -0.355,0.182 0,0.221 -0.293,0.289 -0.65,0.152 -0.389,-0.149 -0.553,-0.091 -0.407,0.144 0.24,0.388 -4.252,2.76 -4.872,2.571 -0.177,-0.053 -0.321,0.089 -0.321,0.316 0,0.228 -0.176,0.305 -0.391,0.173 -0.215,-0.133 -0.391,-0.045 -0.391,0.195 0,0.24 -0.175,0.328 -0.39,0.195 -0.215,-0.132 -0.391,-0.061 -0.391,0.159 0,0.22 -0.322,0.572 -0.716,0.783 -0.545,0.292 -0.716,0.245 -0.716,-0.198 0,-0.335 0.229,-0.494 0.541,-0.374 0.298,0.114 0.434,0.034 0.302,-0.179 -0.348,-0.564 -1.46,-0.473 -1.254,0.102 0.28,0.78 -0.498,1.94 -1.137,1.695 -0.324,-0.124 -0.472,-0.052 -0.337,0.165 0.212,0.345 -0.293,0.552 -1.063,0.437 -0.154,-0.023 -0.17,0.264 -0.036,0.638 0.134,0.373 0.104,0.552 -0.067,0.397 -0.172,-0.155 -0.771,0.036 -1.332,0.424 -1.665,1.152 -2.146,1.39 -1.856,0.921 0.144,-0.233 0.039,-0.552 -0.233,-0.708 -0.272,-0.157 -0.369,-0.146 -0.215,0.024 0.551,0.611 -0.471,1.868 -1.097,1.348 -0.46,-0.381 -0.524,-0.357 -0.336,0.131 0.264,0.69 -0.425,1.286 -0.795,0.687 -0.135,-0.218 -0.455,-0.394 -0.711,-0.391 -0.283,0.004 -0.236,0.161 0.121,0.402 0.682,0.461 -1.761,2.882 -2.468,2.445 -0.213,-0.132 -0.278,-0.062 -0.144,0.154 0.256,0.415 -3.211,3.121 -3.765,2.939 -0.177,-0.058 -0.228,0.046 -0.113,0.232 0.115,0.187 -0.426,0.938 -1.201,1.67 -0.776,0.733 -1.271,1.068 -1.1,0.746 0.171,-0.323 -0.345,0.162 -1.146,1.077 -0.802,0.914 -1.622,1.56 -1.825,1.436 -0.202,-0.125 -0.319,-0.074 -0.26,0.113 0.059,0.188 -0.84,1.387 -1.998,2.666 -1.158,1.279 -1.965,2.061 -1.793,1.739 0.185,-0.347 0.168,-0.453 -0.043,-0.26 -0.195,0.179 -0.355,0.457 -0.355,0.618 0,0.722 -4.647,5.892 -5.295,5.892 -0.884,0 -1.323,0.629 -0.706,1.01 0.258,0.159 0.353,0.114 0.219,-0.103 -0.131,-0.213 -0.012,-0.386 0.264,-0.386 0.277,0 -0.39,1.265 -1.482,2.811 -1.091,1.546 -2.121,2.734 -2.287,2.64 -0.167,-0.094 -0.278,-0.026 -0.247,0.151 0.145,0.833 -0.078,1.319 -0.488,1.066 -0.278,-0.172 -0.345,-0.107 -0.173,0.171 0.157,0.253 -0.2,0.904 -0.818,1.491 -0.603,0.573 -0.833,0.913 -0.511,0.754 0.323,-0.158 0.245,-0.011 -0.172,0.327 -0.417,0.338 -0.632,0.615 -0.478,0.615 0.154,0 0.007,0.527 -0.326,1.172 -0.334,0.644 -0.788,1.172 -1.01,1.172 -0.222,0 -0.299,0.169 -0.171,0.376 0.128,0.207 -0.125,0.734 -0.563,1.172 -0.437,0.437 -0.795,0.883 -0.795,0.991 0,0.107 0,0.469 0,0.804 0,0.335 -0.181,0.498 -0.401,0.362 -0.22,-0.136 -0.361,-0.103 -0.313,0.074 0.154,0.57 -0.498,2.08 -0.898,2.08 -0.213,0 -0.279,0.176 -0.146,0.391 0.133,0.214 0.045,0.39 -0.195,0.39 -0.241,0 -0.337,0.163 -0.214,0.362 0.303,0.489 -0.598,2.4 -1.011,2.145 -0.181,-0.112 -0.224,0.069 -0.096,0.403 0.128,0.334 0.028,0.606 -0.223,0.606 -0.251,0 -0.357,0.16 -0.236,0.355 0.31,0.502 -0.184,1.638 -0.601,1.38 -0.19,-0.117 -0.24,0.06 -0.112,0.393 0.128,0.333 0.043,0.606 -0.188,0.606 -0.231,0 -0.308,0.292 -0.171,0.65 0.182,0.472 0.108,0.563 -0.267,0.331 -0.322,-0.199 -0.424,-0.168 -0.269,0.082 0.297,0.482 -0.846,4.015 -1.3,4.015 -0.175,0 -0.218,0.379 -0.097,0.843 0.141,0.539 0.071,0.75 -0.196,0.585 -0.261,-0.162 -0.34,0.033 -0.211,0.525 0.112,0.43 0.025,0.782 -0.195,0.782 -0.22,0 -0.301,0.379 -0.179,0.842 0.141,0.54 0.07,0.75 -0.196,0.585 -0.266,-0.164 -0.336,0.046 -0.195,0.586 0.141,0.541 0.071,0.751 -0.196,0.586 -0.266,-0.164 -0.336,0.046 -0.195,0.586 0.155,0.592 0.081,0.757 -0.247,0.554 -0.342,-0.211 -0.396,0 -0.2,0.778 0.194,0.774 0.14,0.989 -0.195,0.782 -0.336,-0.208 -0.39,0.007 -0.196,0.781 0.17,0.676 0.125,0.979 -0.123,0.826 -0.24,-0.148 -0.315,0.154 -0.196,0.781 0.139,0.723 0.06,0.939 -0.267,0.737 -0.332,-0.206 -0.391,-0.002 -0.21,0.723 0.14,0.555 0.089,1.009 -0.112,1.009 -0.201,0 -0.284,0.552 -0.185,1.227 0.124,0.841 0.043,1.143 -0.257,0.958 -0.305,-0.189 -0.362,0.106 -0.187,0.981 0.173,0.862 0.117,1.17 -0.178,0.988 -0.296,-0.183 -0.356,0.179 -0.195,1.171 0.17,1.049 0.109,1.36 -0.228,1.152 -0.341,-0.21 -0.392,0.145 -0.197,1.367 0.177,1.105 0.13,1.568 -0.142,1.399 -0.274,-0.169 -0.362,0.865 -0.27,3.163 0.075,1.878 0.011,2.894 -0.141,2.258 -0.153,-0.636 -0.278,2.352 -0.278,6.64 0,4.289 -0.119,8.457 -0.264,9.262 -0.145,0.806 -0.111,1.465 0.074,1.465 0.186,0 0.416,-0.571 0.511,-1.269 0.095,-0.699 0.128,0.312 0.072,2.246 -0.059,2.091 0.023,3.12 0.203,2.539 0.483,-1.56 0.486,0.991 0.002,2.737 -0.356,1.287 -0.342,1.32 0.242,0.583 0.582,-0.733 0.606,-0.661 0.381,1.172 -0.141,1.152 -0.101,1.737 0.099,1.425 0.24,-0.376 0.41,-0.151 0.589,0.782 0.36,1.87 0.363,2.004 0.054,2.871 -0.233,0.651 -0.202,0.684 0.181,0.196 0.371,-0.472 0.418,-0.339 0.242,0.683 -0.13,0.76 -0.055,1.27 0.189,1.27 0.238,0 0.297,0.346 0.144,0.83 -0.178,0.558 -0.122,0.743 0.169,0.563 0.243,-0.15 0.432,-0.011 0.432,0.318 0,0.323 -0.176,0.695 -0.39,0.828 -0.215,0.132 -0.391,0.428 -0.391,0.657 0,0.245 0.267,0.195 0.651,-0.121 0.587,-0.484 0.624,-0.429 0.375,0.571 -0.182,0.728 -0.137,1.021 0.13,0.855 0.453,-0.28 0.56,0.293 0.134,0.719 -0.15,0.15 -0.496,-0.128 -0.77,-0.618 -0.492,-0.884 -0.496,-0.882 -0.421,0.207 0.097,1.411 0.955,2.204 1.329,1.228 0.2,-0.521 0.392,-0.266 0.781,1.03 0.284,0.947 0.433,1.951 0.33,2.23 -0.108,0.296 -0.007,0.398 0.242,0.244 0.289,-0.178 0.337,0.021 0.149,0.615 -0.203,0.638 -0.15,0.799 0.195,0.586 0.345,-0.213 0.398,-0.053 0.195,0.586 -0.208,0.655 -0.153,0.801 0.215,0.574 0.36,-0.223 0.434,-0.077 0.274,0.537 -0.143,0.546 -0.072,0.751 0.2,0.583 0.266,-0.164 0.329,-0.021 0.171,0.39 -0.137,0.358 -0.06,0.65 0.171,0.65 0.231,0 0.319,0.264 0.195,0.586 -0.123,0.322 -0.06,0.586 0.142,0.586 0.201,0 0.253,0.293 0.116,0.65 -0.156,0.408 -0.094,0.554 0.167,0.393 0.496,-0.307 1.001,0.803 0.635,1.395 -0.162,0.261 -0.451,0.148 -0.783,-0.305 -0.471,-0.644 -0.526,-0.65 -0.526,-0.059 0,0.641 0.417,0.83 1.504,0.681 0.29,-0.04 0.411,0.115 0.27,0.344 -0.142,0.229 -0.053,0.417 0.198,0.417 0.251,0 0.351,0.272 0.223,0.606 -0.128,0.333 -0.078,0.51 0.112,0.393 0.19,-0.118 0.452,0.063 0.582,0.402 0.321,0.837 0.301,0.942 -0.178,0.942 -0.227,0 -0.289,-0.219 -0.138,-0.488 0.21,-0.372 0.16,-0.381 -0.213,-0.038 -0.359,0.332 -0.377,0.641 -0.069,1.172 0.231,0.397 0.425,0.502 0.431,0.233 0.007,-0.268 0.198,-0.488 0.426,-0.488 0.227,0 0.305,0.176 0.172,0.391 -0.133,0.214 -0.06,0.39 0.162,0.39 0.541,0 1.69,2.266 1.394,2.746 -0.129,0.209 -0.072,0.379 0.128,0.379 0.199,0 1.525,1.942 2.945,4.316 1.421,2.373 2.384,4.192 2.14,4.041 -0.282,-0.174 -0.336,-0.099 -0.149,0.203 0.162,0.263 0.575,0.37 0.917,0.239 0.487,-0.187 0.457,-0.045 -0.137,0.65 -0.529,0.62 -0.561,0.736 -0.103,0.383 0.708,-0.547 1.786,0.647 1.186,1.312 -0.154,0.17 -0.103,0.21 0.113,0.088 0.216,-0.122 0.866,0.435 1.444,1.239 0.754,1.05 0.891,1.462 0.486,1.462 -0.311,0 -0.565,-0.147 -0.565,-0.326 0,-0.179 -0.197,-0.325 -0.438,-0.325 -0.308,0 -0.296,0.171 0.037,0.573 0.262,0.315 0.591,0.558 0.732,0.54 0.818,-0.109 1.296,0.226 2.461,1.719 0.712,0.913 0.957,1.396 0.545,1.074 -0.413,-0.323 0.428,0.614 1.867,2.081 1.439,1.467 2.531,2.806 2.427,2.975 -0.105,0.17 0.201,0.639 0.679,1.044 l 0.87,0.736 -0.781,-0.946 c -0.43,-0.521 -0.576,-0.827 -0.325,-0.68 1.171,0.681 6.76,7.68 6.133,7.68 -0.366,0 -0.556,0.11 -0.422,0.244 1.183,1.182 1.415,-0.445 0.244,-1.71 -1.127,-1.219 -1.029,-1.171 0.628,0.305 1.079,0.961 2.386,2.403 2.905,3.204 0.519,0.801 1.027,1.373 1.129,1.272 0.101,-0.102 -0.15,-0.581 -0.559,-1.066 l -0.743,-0.881 1.002,0.882 c 0.552,0.485 1.15,0.749 1.329,0.586 0.18,-0.163 0.221,-0.002 0.092,0.358 -0.134,0.375 0.039,0.877 0.404,1.172 0.542,0.44 0.587,0.43 0.3,-0.069 -0.399,-0.692 1.06,0.433 2.531,1.952 0.537,0.555 0.804,0.738 0.593,0.407 -0.241,-0.376 -0.053,-0.318 0.502,0.156 0.487,0.416 0.808,0.958 0.714,1.204 -0.095,0.246 0.067,0.448 0.359,0.448 0.293,0 0.42,-0.181 0.283,-0.402 -0.136,-0.222 0.311,-0.005 0.994,0.482 0.683,0.486 1.242,1.019 1.243,1.183 0,0.165 0.222,0.299 0.493,0.299 0.92,0 5.014,2.981 4.813,3.505 -0.107,0.279 0.001,0.628 0.24,0.775 0.253,0.156 0.324,0.091 0.172,-0.156 -0.574,-0.927 0.464,-0.741 2.592,0.465 1.231,0.698 2.111,1.396 1.956,1.551 -0.155,0.155 0.007,0.171 0.36,0.036 0.383,-0.147 0.955,0.067 1.42,0.532 0.429,0.429 0.882,0.677 1.007,0.552 0.125,-0.126 0.228,-0.013 0.228,0.25 0,0.264 0.176,0.371 0.39,0.238 0.215,-0.133 0.391,-0.045 0.391,0.195 0,0.24 0.171,0.331 0.379,0.203 0.462,-0.286 2.746,0.843 2.746,1.357 0,0.203 0.264,0.268 0.586,0.144 0.322,-0.124 0.586,-0.03 0.586,0.207 0,0.238 -0.274,0.433 -0.609,0.433 -0.335,0 -0.493,0.187 -0.352,0.416 0.17,0.275 0.489,0.206 0.943,-0.205 0.685,-0.62 2.158,-0.438 1.753,0.216 -0.117,0.19 0.06,0.24 0.393,0.113 0.333,-0.128 0.606,-0.044 0.606,0.187 0,0.231 0.292,0.308 0.65,0.171 0.458,-0.176 0.561,-0.104 0.347,0.241 -0.167,0.27 -0.635,0.405 -1.041,0.299 -0.405,-0.106 -0.737,-0.013 -0.737,0.206 0,0.407 1.151,0.272 2.505,-0.293 0.525,-0.219 0.665,-0.177 0.468,0.141 -0.182,0.295 -0.069,0.371 0.327,0.219 0.333,-0.128 0.606,-0.043 0.606,0.188 0,0.231 0.264,0.319 0.586,0.195 0.322,-0.123 0.586,-0.036 0.586,0.196 0,0.231 0.292,0.308 0.65,0.17 0.462,-0.177 0.561,-0.105 0.342,0.25 -0.233,0.377 -0.083,0.427 0.616,0.205 0.806,-0.256 0.86,-0.215 0.421,0.314 -0.389,0.469 -0.397,0.674 -0.034,0.898 0.281,0.174 0.368,0.126 0.216,-0.12 -0.139,-0.225 0.024,-0.516 0.362,-0.646 0.971,-0.372 1.078,-0.284 0.502,0.414 -0.484,0.587 -0.454,0.606 0.317,0.195 1.018,-0.542 1.819,-0.595 1.513,-0.1 -0.12,0.195 0.161,0.255 0.624,0.133 0.592,-0.154 0.757,-0.081 0.554,0.248 -0.211,0.341 0,0.395 0.779,0.2 0.675,-0.17 0.978,-0.125 0.825,0.123 -0.148,0.24 0.155,0.315 0.781,0.196 0.606,-0.116 0.928,-0.041 0.789,0.183 -0.128,0.208 0.065,0.378 0.431,0.377 1.856,-0.002 2.837,0.172 2.652,0.473 -0.114,0.184 0.253,0.246 0.816,0.138 0.675,-0.129 0.934,-0.051 0.761,0.229 -0.179,0.289 0.207,0.359 1.211,0.22 1.145,-0.159 1.343,-0.107 0.888,0.233 -0.452,0.337 -0.227,0.382 0.976,0.198 1.166,-0.178 1.414,-0.133 0.977,0.178 -0.432,0.308 -0.072,0.354 1.367,0.178 1.873,-0.229 1.921,-0.212 1.172,0.425 l -0.781,0.665 0.781,-0.287 c 1.282,-0.471 3.591,-0.661 2.994,-0.247 -0.336,0.233 0.184,0.294 1.465,0.171 1.092,-0.105 1.986,-0.037 1.986,0.152 0,0.188 4.131,0.342 9.18,0.342 5.049,0 9.18,-0.154 9.18,-0.342 0,-0.189 0.893,-0.257 1.986,-0.152 1.297,0.124 1.805,0.064 1.465,-0.175 -0.342,-0.24 0.136,-0.304 1.386,-0.184 1.3,0.125 1.736,0.062 1.368,-0.196 -0.363,-0.253 0.169,-0.301 1.607,-0.144 1.621,0.177 2.005,0.129 1.563,-0.198 -0.456,-0.336 -0.299,-0.383 0.703,-0.21 0.896,0.155 1.206,0.089 1.018,-0.215 -0.184,-0.299 0.112,-0.381 0.937,-0.26 0.725,0.107 1.113,0.025 0.971,-0.204 -0.145,-0.235 0.237,-0.286 0.997,-0.134 0.753,0.15 1.233,0.088 1.233,-0.161 0,-0.237 0.346,-0.297 0.83,-0.144 0.608,0.193 0.749,0.133 0.528,-0.225 -0.227,-0.368 -0.037,-0.423 0.765,-0.222 0.779,0.195 0.989,0.141 0.778,-0.2 -0.203,-0.328 -0.038,-0.402 0.554,-0.247 0.535,0.14 0.75,0.07 0.589,-0.191 -0.168,-0.272 0.107,-0.321 0.813,-0.143 0.756,0.189 0.987,0.137 0.791,-0.18 -0.191,-0.31 -0.02,-0.367 0.553,-0.185 0.525,0.166 0.83,0.095 0.83,-0.195 0,-0.253 0.264,-0.358 0.586,-0.234 0.322,0.123 0.586,0.042 0.586,-0.18 0,-0.235 0.348,-0.294 0.83,-0.141 0.615,0.195 0.751,0.134 0.522,-0.236 -0.219,-0.354 -0.12,-0.426 0.342,-0.249 0.358,0.137 0.65,0.061 0.65,-0.171 0,-0.231 0.264,-0.319 0.586,-0.195 0.322,0.124 0.586,0.036 0.586,-0.195 0,-0.232 0.263,-0.319 0.586,-0.196 0.322,0.124 0.586,0.036 0.586,-0.195 0,-0.231 0.272,-0.316 0.606,-0.188 0.347,0.134 0.504,0.068 0.367,-0.153 -0.218,-0.353 0.408,-0.538 1.663,-0.491 0.269,0.01 0.489,-0.149 0.489,-0.352 0,-0.204 0.175,-0.262 0.39,-0.129 0.215,0.133 0.391,0.036 0.391,-0.214 0,-0.251 0.272,-0.351 0.606,-0.223 0.396,0.152 0.509,0.076 0.327,-0.22 -0.187,-0.302 -0.064,-0.37 0.37,-0.203 0.357,0.137 0.65,0.069 0.65,-0.152 0,-0.221 0.176,-0.293 0.391,-0.16 0.214,0.133 0.39,0.045 0.39,-0.195 0,-0.241 0.176,-0.328 0.391,-0.196 0.215,0.133 0.391,0.037 0.391,-0.214 0,-0.251 0.271,-0.351 0.606,-0.223 0.333,0.128 0.51,0.078 0.393,-0.112 -0.344,-0.556 1.001,-0.875 1.598,-0.379 0.443,0.368 0.495,0.314 0.279,-0.286 -0.147,-0.406 -0.136,-0.622 0.024,-0.478 0.159,0.143 0.633,-0.083 1.053,-0.503 0.419,-0.42 0.932,-0.658 1.139,-0.53 0.207,0.128 0.376,0.036 0.376,-0.204 0,-0.241 0.176,-0.328 0.391,-0.196 0.215,0.133 0.391,0.045 0.391,-0.195 0,-0.24 0.175,-0.328 0.39,-0.195 0.215,0.132 0.391,0.033 0.391,-0.22 0,-0.341 0.155,-0.333 0.595,0.032 0.493,0.409 0.555,0.391 0.364,-0.108 -0.127,-0.331 -0.016,-0.735 0.246,-0.897 0.332,-0.205 0.38,-0.128 0.158,0.253 -0.175,0.302 0.141,0.066 0.703,-0.525 0.988,-1.039 1.73,-1.454 1.271,-0.711 -0.124,0.2 -0.019,0.491 0.232,0.647 0.281,0.173 0.353,0.113 0.188,-0.155 -0.432,-0.698 1.261,-2.173 1.892,-1.649 0.4,0.332 0.506,0.27 0.462,-0.267 -0.031,-0.383 0.163,-0.653 0.432,-0.6 0.268,0.054 0.488,-0.061 0.488,-0.256 0,-0.426 3.815,-3.217 4.542,-3.324 0.283,-0.041 0.65,-0.226 0.818,-0.41 0.167,-0.184 0.04,-0.203 -0.282,-0.042 -0.648,0.323 0.733,-0.892 2.512,-2.208 0.665,-0.492 1.017,-0.61 0.839,-0.282 -0.168,0.311 0.166,-0.008 0.742,-0.708 0.576,-0.7 1.237,-1.156 1.467,-1.014 0.233,0.144 0.308,0.078 0.168,-0.148 -0.256,-0.415 2.429,-2.719 2.964,-2.544 0.28,0.092 0.448,-0.52 0.329,-1.202 -0.031,-0.177 0.085,-0.235 0.258,-0.128 0.172,0.106 0.748,-0.159 1.279,-0.591 0.531,-0.431 0.702,-0.653 0.38,-0.492 -0.323,0.161 0.249,-0.455 1.271,-1.368 1.021,-0.913 1.758,-1.821 1.637,-2.016 -0.121,-0.196 0.152,-0.356 0.607,-0.356 0.455,0 0.728,-0.161 0.607,-0.358 -0.122,-0.196 0.879,-1.367 2.223,-2.603 1.344,-1.235 2.092,-2.002 1.662,-1.705 -0.61,0.422 -0.569,0.287 0.19,-0.62 1.49,-1.781 1.718,-2.007 1.368,-1.355 -0.187,0.347 -0.171,0.453 0.04,0.26 0.196,-0.179 0.357,-0.442 0.358,-0.586 0.007,-0.599 1.265,-1.989 1.56,-1.722 0.176,0.159 0.219,0.111 0.096,-0.107 -0.296,-0.523 1.844,-3.384 2.253,-3.013 0.173,0.157 0.198,0.08 0.055,-0.17 -0.144,-0.251 0.311,-1.032 1.011,-1.737 0.7,-0.705 1.029,-1.135 0.732,-0.955 -0.297,0.181 0.218,-0.796 1.145,-2.169 0.927,-1.373 1.83,-2.555 2.008,-2.627 0.177,-0.072 0.227,-0.286 0.11,-0.474 -0.116,-0.189 0.146,-0.701 0.584,-1.139 0.437,-0.437 0.795,-0.883 0.795,-0.991 0,-0.107 0,-0.381 0,-0.609 0,-0.227 0.174,-0.306 0.386,-0.175 0.221,0.137 0.287,-0.019 0.155,-0.364 -0.136,-0.355 0.026,-0.702 0.393,-0.842 0.343,-0.132 0.531,-0.391 0.417,-0.575 -0.433,-0.702 1.783,-4.351 2.481,-4.085 0.529,0.201 0.563,0.154 0.172,-0.241 -0.58,-0.583 -0.655,-1.266 -0.102,-0.924 0.221,0.137 0.287,-0.02 0.153,-0.368 -0.128,-0.333 -0.038,-0.606 0.2,-0.606 0.238,0 0.412,-0.132 0.386,-0.293 -0.132,-0.839 0.089,-1.68 0.393,-1.492 0.191,0.118 0.339,-0.003 0.329,-0.27 -0.045,-1.253 0.14,-1.876 0.492,-1.658 0.229,0.141 0.282,-0.034 0.129,-0.432 -0.164,-0.428 -0.105,-0.576 0.163,-0.41 0.272,0.168 0.343,-0.038 0.2,-0.583 -0.141,-0.541 -0.071,-0.751 0.196,-0.586 0.266,0.164 0.336,-0.046 0.195,-0.586 -0.15,-0.574 -0.077,-0.755 0.227,-0.566 0.291,0.179 0.366,0.063 0.215,-0.33 -0.132,-0.345 -0.026,-0.606 0.248,-0.606 0.377,0 0.376,-0.126 -0.006,-0.586 -0.441,-0.532 -0.279,-0.749 0.474,-0.637 0.154,0.023 0.179,-0.22 0.056,-0.54 -0.123,-0.319 -0.018,-0.581 0.233,-0.581 0.25,0 0.351,-0.168 0.225,-0.373 -0.442,-0.714 0.243,-2.422 0.873,-2.18 0.475,0.182 0.501,0.116 0.131,-0.33 -0.72,-0.868 -0.132,-2.758 0.656,-2.108 0.532,0.439 0.55,0.396 0.15,-0.354 -0.542,-1.018 -0.595,-1.819 -0.1,-1.513 0.195,0.12 0.262,-0.133 0.15,-0.563 -0.113,-0.43 -0.013,-0.782 0.222,-0.782 0.27,0 0.336,-0.452 0.18,-1.233 -0.193,-0.964 -0.134,-1.163 0.271,-0.912 0.381,0.235 0.449,0.14 0.257,-0.361 -0.332,-0.865 0.12,-3.796 0.545,-3.533 0.175,0.108 0.228,-0.466 0.119,-1.277 -0.194,-1.426 -0.179,-1.448 0.466,-0.692 l 0.666,0.781 -0.308,-0.781 c -0.532,-1.354 -0.695,-3.608 -0.211,-2.93 0.31,0.433 0.37,-0.026 0.234,-1.757 -0.102,-1.289 -0.091,-2.037 0.026,-1.661 0.116,0.376 0.337,0.684 0.49,0.684 0.422,0 0.448,-1.515 0.03,-1.773 -0.202,-0.125 -0.354,-1.227 -0.339,-2.449 0.017,-1.365 0.138,-1.943 0.313,-1.497 0.157,0.4 0.28,-2.283 0.272,-5.96 -0.007,-3.678 -0.151,-6.378 -0.318,-6 -0.335,0.755 -0.078,-4.972 0.293,-6.54 0.202,-0.85 0.153,-0.825 -0.374,0.196 l -0.606,1.171 0.148,-1.848 c 0.096,-1.205 0.007,-1.762 -0.256,-1.599 -0.269,0.166 -0.319,-0.366 -0.151,-1.59 0.182,-1.333 0.129,-1.763 -0.195,-1.563 -0.318,0.197 -0.375,-0.086 -0.197,-0.975 0.157,-0.783 0.106,-1.163 -0.134,-1.015 -0.496,0.307 -0.492,-0.629 0.008,-2.029 0.378,-1.056 0.368,-1.069 -0.243,-0.318 -0.611,0.751 -0.626,0.731 -0.398,-0.508 0.166,-0.906 0.105,-1.208 -0.205,-1.016 -0.308,0.191 -0.363,-0.04 -0.182,-0.762 0.166,-0.661 0.1,-1.034 -0.181,-1.034 -0.278,0 -0.347,-0.371 -0.187,-1.01 0.164,-0.654 0.11,-0.921 -0.153,-0.758 -0.516,0.319 -0.517,-0.03 -0.002,-0.992 0.244,-0.456 0.257,-0.756 0.033,-0.756 -0.205,0 -0.475,0.22 -0.602,0.488 -0.126,0.269 -0.166,0.01 -0.089,-0.574 0.086,-0.647 -0.014,-0.967 -0.255,-0.818 -0.236,0.146 -0.316,-0.06 -0.198,-0.511 0.109,-0.416 -0.054,-0.992 -0.362,-1.28 -0.308,-0.288 -0.474,-0.854 -0.368,-1.258 0.105,-0.405 0.033,-0.637 -0.162,-0.517 -0.532,0.329 -0.426,-0.762 0.134,-1.39 0.384,-0.431 0.328,-0.426 -0.263,0.019 -0.694,0.524 -0.734,0.501 -0.525,-0.312 0.146,-0.568 0.079,-0.788 -0.189,-0.622 -0.266,0.164 -0.337,-0.046 -0.195,-0.586 0.121,-0.464 0.061,-0.745 -0.134,-0.624 -0.528,0.326 -0.428,-0.378 0.134,-0.944 0.392,-0.395 0.344,-0.437 -0.24,-0.215 -0.619,0.236 -0.687,0.144 -0.447,-0.611 0.178,-0.56 0.137,-0.8 -0.109,-0.648 -0.512,0.317 -0.909,-0.743 -0.59,-1.575 0.168,-0.437 0.1,-0.558 -0.208,-0.368 -0.432,0.268 -0.521,0.119 -0.613,-1.033 -0.021,-0.268 -0.269,-0.731 -0.55,-1.027 -0.281,-0.296 -0.415,-0.789 -0.297,-1.094 0.135,-0.353 0.047,-0.454 -0.239,-0.277 -0.305,0.189 -0.369,0.062 -0.196,-0.39 0.142,-0.369 0.102,-0.574 -0.088,-0.457 -0.712,0.44 -0.858,-1.13 -0.155,-1.668 0.648,-0.495 0.63,-0.516 -0.223,-0.261 -0.635,0.19 -0.844,0.141 -0.661,-0.155 0.147,-0.238 0.093,-0.433 -0.12,-0.433 -0.417,0 -0.88,-1.118 -0.728,-1.757 0.051,-0.215 0.238,-0.343 0.415,-0.284 0.177,0.059 0.215,-0.065 0.085,-0.276 -0.13,-0.21 -0.524,-0.273 -0.874,-0.138 -0.426,0.163 -0.544,0.093 -0.355,-0.213 0.155,-0.251 0.113,-0.457 -0.094,-0.457 -0.367,0 -2.684,-3.801 -2.888,-4.738 -0.056,-0.258 -0.416,-0.799 -0.8,-1.2 -0.384,-0.402 -0.577,-0.927 -0.428,-1.167 0.164,-0.266 0.093,-0.328 -0.181,-0.158 -0.426,0.262 -0.641,-0.263 -0.465,-1.135 0.044,-0.215 -0.048,-0.263 -0.204,-0.108 -0.385,0.385 -3.699,-4.433 -3.406,-4.95 0.129,-0.226 0.089,-0.28 -0.087,-0.12 -0.295,0.267 -1.553,-1.123 -1.56,-1.723 -0.001,-0.143 -0.163,-0.407 -0.358,-0.586 -0.21,-0.192 -0.232,-0.085 -0.055,0.26 0.166,0.323 -0.16,0.059 -0.723,-0.586 -1.615,-1.847 -2.656,-3.32 -2.348,-3.32 0.155,0 -0.009,-0.322 -0.365,-0.715 -0.356,-0.394 -0.515,-0.861 -0.354,-1.039 0.162,-0.179 0.075,-0.198 -0.193,-0.044 -0.503,0.29 -4.833,-3.477 -4.674,-4.065 0.046,-0.17 -0.093,-0.341 -0.308,-0.381 -0.723,-0.134 -1.36,-0.872 -1.107,-1.282 0.138,-0.224 0.084,-0.304 -0.121,-0.177 -0.205,0.127 -1.598,-0.857 -3.096,-2.186 -1.497,-1.328 -3.562,-3.103 -4.588,-3.942 -1.131,-0.925 -1.784,-1.742 -1.657,-2.071 0.122,-0.318 0.037,-0.439 -0.204,-0.29 -0.226,0.14 -0.509,-0.114 -0.627,-0.565 -0.217,-0.831 -1.295,-1.17 -1.295,-0.407 0,0.227 0.141,0.326 0.313,0.22 0.171,-0.106 0.511,0.126 0.755,0.516 0.244,0.391 -1.497,-0.587 -3.869,-2.171 -2.371,-1.584 -5.167,-3.346 -6.213,-3.915 -1.045,-0.569 -1.791,-1.213 -1.656,-1.43 0.135,-0.219 0.051,-0.276 -0.19,-0.127 -0.238,0.147 -2.155,-0.589 -4.259,-1.636 -2.104,-1.046 -4.829,-2.312 -6.055,-2.811 -1.226,-0.5 -2.149,-1.039 -2.051,-1.198 0.099,-0.159 -0.2,-0.19 -0.664,-0.069 -0.531,0.139 -0.749,0.07 -0.59,-0.187 0.138,-0.225 0.034,-0.401 -0.232,-0.391 -1.224,0.044 -1.879,-0.135 -1.679,-0.46 0.121,-0.195 -0.16,-0.255 -0.624,-0.134 -0.54,0.142 -0.75,0.071 -0.585,-0.195 0.164,-0.266 -0.046,-0.336 -0.586,-0.195 -0.541,0.141 -0.751,0.071 -0.586,-0.196 0.164,-0.266 -0.046,-0.336 -0.586,-0.195 -0.628,0.164 -0.762,0.09 -0.526,-0.292 0.212,-0.343 0.164,-0.418 -0.144,-0.228 -0.586,0.362 -2.859,-0.119 -2.593,-0.55 0.11,-0.177 -0.18,-0.223 -0.644,-0.102 -0.54,0.142 -0.75,0.071 -0.585,-0.195 0.161,-0.262 -0.033,-0.34 -0.525,-0.211 -0.43,0.112 -0.782,0.032 -0.782,-0.178 0,-0.21 -0.466,-0.293 -1.035,-0.184 -0.733,0.14 -0.951,0.063 -0.748,-0.265 0.207,-0.336 -0.008,-0.389 -0.782,-0.195 -0.675,0.169 -0.979,0.124 -0.826,-0.123 0.149,-0.24 -0.154,-0.316 -0.781,-0.196 -0.751,0.144 -0.942,0.066 -0.72,-0.294 0.23,-0.372 0,-0.422 -0.967,-0.21 -0.949,0.208 -1.196,0.159 -0.977,-0.195 0.219,-0.354 -0.028,-0.404 -0.977,-0.195 -0.932,0.204 -1.193,0.156 -0.983,-0.184 0.213,-0.345 -0.199,-0.398 -1.612,-0.209 -1.476,0.197 -1.767,0.153 -1.311,-0.198 0.568,-0.438 -0.097,-0.416 -2.368,0.078 -0.309,0.067 -0.521,-0.087 -0.472,-0.343 0.065,-0.337 -0.687,-0.419 -2.734,-0.299 -1.553,0.091 -2.418,0.037 -1.921,-0.121 0.497,-0.158 -3.924,-0.287 -9.825,-0.287 -5.92,0 -10.637,0.151 -10.522,0.337 m 53.091,7.083 c 0.123,0.321 0.381,0.486 0.573,0.367 0.552,-0.341 0.408,-0.951 -0.224,-0.951 -0.348,0 -0.485,0.229 -0.349,0.584 m 6.001,2.955 c 0,0.227 0.161,0.314 0.357,0.193 0.197,-0.122 0.447,0 0.555,0.269 0.12,0.297 0.211,0.22 0.229,-0.192 0.017,-0.376 -0.233,-0.684 -0.555,-0.684 -0.322,0 -0.586,0.186 -0.586,0.414 m 5.977,3.227 c -0.133,0.216 -0.039,0.263 0.213,0.107 0.248,-0.153 0.451,-0.098 0.451,0.123 0,0.221 0.292,0.289 0.65,0.152 0.387,-0.149 0.552,-0.091 0.408,0.142 -0.134,0.216 0.014,0.392 0.328,0.392 0.492,0 0.49,-0.089 -0.019,-0.651 -0.656,-0.724 -1.665,-0.856 -2.031,-0.265 m -128.978,12.84 c -0.063,0.905 0.55,1.206 1.101,0.542 0.346,-0.417 0.342,-0.616 -0.016,-0.838 -0.288,-0.177 -0.368,-0.125 -0.208,0.134 0.144,0.233 0.097,0.526 -0.106,0.651 -0.202,0.125 -0.448,-0.083 -0.547,-0.461 -0.16,-0.616 -0.184,-0.619 -0.224,-0.028 m 86.766,5.236 c 0.601,0.139 0.96,0.425 0.819,0.654 -0.151,0.243 -0.061,0.288 0.225,0.112 0.613,-0.379 3.248,0.106 2.975,0.547 -0.114,0.184 0.172,0.235 0.636,0.114 0.54,-0.141 0.751,-0.071 0.586,0.196 -0.165,0.266 0.046,0.336 0.586,0.195 0.628,-0.164 0.762,-0.09 0.526,0.292 -0.211,0.341 -0.165,0.418 0.138,0.232 0.593,-0.367 2.087,0.11 1.8,0.574 -0.122,0.197 0.079,0.243 0.449,0.101 0.452,-0.174 0.579,-0.11 0.39,0.195 -0.18,0.292 -0.072,0.373 0.307,0.228 0.718,-0.276 3.87,1.535 3.459,1.988 -0.161,0.178 -0.074,0.198 0.194,0.043 0.527,-0.303 2.171,0.645 1.854,1.07 -0.106,0.142 -0.082,0.176 0.053,0.076 0.442,-0.325 1.737,0.599 1.462,1.043 -0.166,0.269 -0.086,0.32 0.212,0.136 0.654,-0.405 6.081,5.022 5.677,5.676 -0.177,0.286 -0.134,0.378 0.107,0.229 0.523,-0.323 2.566,2.753 2.211,3.328 -0.177,0.286 -0.091,0.327 0.247,0.117 0.379,-0.234 0.448,-0.14 0.26,0.351 -0.141,0.369 -0.104,0.576 0.084,0.46 0.473,-0.293 1.355,1.967 0.994,2.55 -0.199,0.323 -0.129,0.374 0.22,0.158 0.381,-0.236 0.456,-0.102 0.292,0.526 -0.141,0.54 -0.071,0.751 0.195,0.586 0.266,-0.164 0.337,0.046 0.195,0.586 -0.131,0.504 -0.065,0.747 0.166,0.604 0.224,-0.138 0.332,0.149 0.257,0.683 -0.109,0.773 0.02,0.901 0.792,0.793 0.534,-0.075 0.821,0.032 0.683,0.256 -0.143,0.231 0.1,0.298 0.604,0.166 0.54,-0.142 0.751,-0.071 0.586,0.195 -0.165,0.266 0.046,0.337 0.586,0.195 0.517,-0.135 0.748,-0.067 0.598,0.176 -0.151,0.245 0.145,0.321 0.778,0.2 0.626,-0.12 0.929,-0.044 0.782,0.195 -0.148,0.239 0.155,0.315 0.781,0.195 0.77,-0.147 0.945,-0.069 0.709,0.313 -0.2,0.324 -0.16,0.412 0.112,0.244 0.234,-0.144 2.59,0.022 5.236,0.369 3.28,0.431 6.697,0.584 10.741,0.479 3.261,-0.084 5.839,-0.007 5.729,0.172 -0.111,0.179 0.255,0.211 0.812,0.071 2.219,-0.557 5.042,3.24 4.319,5.809 -0.562,1.999 -1.087,2.982 -1.466,2.747 -0.233,-0.143 -0.289,-0.061 -0.132,0.193 0.332,0.538 -0.451,2.125 -0.91,1.841 -0.18,-0.111 -0.303,0.104 -0.273,0.477 0.029,0.376 -0.178,0.632 -0.464,0.572 -0.285,-0.059 -0.401,0.081 -0.26,0.311 0.348,0.561 -0.564,1.611 -1.123,1.292 -0.244,-0.139 -0.318,-0.114 -0.164,0.057 0.585,0.647 -4.868,5.903 -5.633,5.43 -0.182,-0.112 -0.282,0.028 -0.223,0.313 0.059,0.285 -0.193,0.494 -0.561,0.466 -0.367,-0.029 -0.631,0.147 -0.586,0.39 0.046,0.244 -0.223,0.418 -0.597,0.389 -0.386,-0.03 -0.569,0.125 -0.424,0.359 0.161,0.26 0.007,0.318 -0.415,0.156 -0.369,-0.141 -0.574,-0.102 -0.457,0.088 0.274,0.444 -0.894,0.901 -1.44,0.563 -0.264,-0.163 -0.299,-0.068 -0.096,0.261 0.234,0.379 0.14,0.448 -0.351,0.26 -0.368,-0.142 -0.575,-0.104 -0.459,0.084 0.292,0.473 -1.968,1.354 -2.551,0.994 -0.298,-0.184 -0.374,-0.13 -0.203,0.146 0.329,0.532 -1.454,1.06 -2.142,0.635 -0.322,-0.199 -0.372,-0.128 -0.157,0.22 0.236,0.381 0.102,0.456 -0.526,0.292 -0.463,-0.121 -0.751,-0.073 -0.639,0.108 0.268,0.434 -3.133,0.937 -3.751,0.555 -0.285,-0.177 -0.378,-0.134 -0.23,0.106 0.393,0.637 -3.057,0.927 -10.399,0.873 -3.696,-0.027 -6.751,0.063 -6.787,0.2 -0.037,0.137 -0.313,0.636 -0.615,1.108 -0.779,1.217 -1.148,2.315 -0.682,2.027 0.358,-0.221 0.583,0.659 0.4,1.565 -0.043,0.215 0.054,0.258 0.217,0.096 0.383,-0.384 2.535,2.859 2.227,3.357 -0.129,0.208 -0.04,0.259 0.197,0.112 0.429,-0.265 1.502,1.221 1.325,1.836 -0.051,0.177 0.068,0.223 0.263,0.102 0.461,-0.285 1.287,0.708 1.142,1.372 -0.061,0.282 0.115,0.52 0.391,0.53 0.635,0.022 1.279,1.031 0.974,1.524 -0.126,0.204 -0.046,0.258 0.179,0.12 0.429,-0.266 1.795,1.521 1.795,2.348 0,0.266 0.128,0.404 0.283,0.308 0.448,-0.277 1.603,1.742 1.299,2.271 -0.151,0.263 -0.13,0.347 0.046,0.187 0.444,-0.402 1.477,1.164 1.134,1.719 -0.185,0.299 -0.105,0.343 0.239,0.13 0.379,-0.234 0.449,-0.14 0.26,0.351 -0.141,0.369 -0.101,0.574 0.088,0.457 0.444,-0.275 0.901,0.894 0.564,1.44 -0.163,0.264 -0.068,0.299 0.26,0.096 0.379,-0.234 0.449,-0.14 0.26,0.351 -0.173,0.451 -0.109,0.579 0.196,0.39 0.305,-0.188 0.368,-0.061 0.195,0.391 -0.142,0.369 -0.097,0.571 0.099,0.45 0.773,-0.478 2.834,6.49 3.563,12.046 0.485,3.694 0.163,12.111 -0.427,11.157 -0.184,-0.297 -0.237,0.226 -0.123,1.216 0.153,1.331 0.098,1.6 -0.234,1.151 -0.343,-0.463 -0.384,-0.369 -0.195,0.447 0.3,1.292 -0.941,5.883 -1.496,5.54 -0.233,-0.143 -0.284,-0.056 -0.121,0.206 0.366,0.594 -0.11,2.087 -0.575,1.8 -0.197,-0.122 -0.242,0.08 -0.1,0.449 0.173,0.452 0.109,0.58 -0.196,0.391 -0.296,-0.183 -0.372,-0.069 -0.219,0.33 0.129,0.335 -0.042,1.03 -0.379,1.545 -0.575,0.878 -0.559,0.976 0.25,1.578 0.475,0.352 0.643,0.535 0.375,0.404 -0.269,-0.13 0.406,0.697 1.5,1.838 1.094,1.141 2.141,2.074 2.327,2.074 0.186,0 0.623,0.351 0.97,0.781 0.348,0.43 0.518,0.518 0.379,0.195 -0.139,-0.322 0.036,-0.234 0.389,0.196 0.353,0.429 0.806,0.737 1.006,0.683 0.199,-0.053 0.363,0.108 0.363,0.358 0,0.251 0.102,0.354 0.227,0.228 0.126,-0.125 0.561,0.105 0.968,0.512 0.448,0.448 1,0.64 1.399,0.487 0.483,-0.185 0.573,-0.113 0.335,0.271 -0.236,0.382 -0.148,0.456 0.327,0.274 0.357,-0.137 0.65,-0.069 0.65,0.152 0,0.22 0.176,0.292 0.391,0.16 0.214,-0.133 0.39,-0.037 0.39,0.214 0,0.25 0.264,0.354 0.586,0.23 0.322,-0.123 0.586,-0.042 0.586,0.18 0,0.235 0.348,0.294 0.83,0.141 0.615,-0.195 0.75,-0.134 0.522,0.236 -0.225,0.364 -0.115,0.424 0.408,0.224 0.408,-0.157 0.836,-0.082 0.994,0.174 0.327,0.529 11.309,0.888 11.309,0.369 0,-0.18 0.351,-0.236 0.781,-0.124 0.456,0.12 0.781,0.012 0.781,-0.258 0,-0.294 0.303,-0.366 0.83,-0.199 0.596,0.189 0.748,0.13 0.537,-0.211 -0.213,-0.344 -0.052,-0.398 0.586,-0.195 0.639,0.203 0.799,0.149 0.586,-0.195 -0.213,-0.345 -0.053,-0.398 0.586,-0.196 0.659,0.209 0.802,0.154 0.571,-0.22 -0.219,-0.354 -0.121,-0.426 0.341,-0.249 0.358,0.137 0.651,0.069 0.651,-0.152 0,-0.221 0.175,-0.293 0.39,-0.16 0.215,0.133 0.391,0.062 0.391,-0.158 0,-0.22 0.373,-0.6 0.828,-0.844 0.668,-0.357 0.775,-0.341 0.552,0.084 -0.152,0.29 0.106,0.088 0.573,-0.449 0.467,-0.537 0.726,-0.713 0.577,-0.391 -0.15,0.323 0.143,0.138 0.65,-0.409 0.507,-0.547 0.833,-0.803 0.726,-0.568 -0.107,0.234 0.305,-0.153 0.917,-0.86 0.611,-0.708 1.297,-1.172 1.525,-1.032 0.232,0.144 0.299,0.071 0.153,-0.166 -0.143,-0.231 0.271,-0.799 0.921,-1.262 0.649,-0.462 1.092,-0.985 0.983,-1.16 -0.109,-0.176 0.09,-0.431 0.442,-0.566 0.352,-0.135 0.541,-0.344 0.421,-0.464 -0.217,-0.217 1.085,-1.716 1.49,-1.716 0.116,0 0.168,1.231 0.117,2.735 -0.052,1.503 -0.245,2.734 -0.43,2.734 -0.184,0 -0.236,0.16 -0.115,0.355 0.294,0.477 -0.175,1.644 -0.565,1.403 -0.169,-0.105 -0.413,0.081 -0.54,0.413 -0.144,0.376 -0.071,0.505 0.193,0.341 0.305,-0.189 0.307,-0.042 0.007,0.52 -0.231,0.43 -0.713,0.895 -1.072,1.033 -0.359,0.137 -0.547,0.356 -0.418,0.485 0.129,0.129 -0.074,0.52 -0.451,0.869 -0.377,0.35 -0.493,0.548 -0.259,0.44 0.235,-0.107 -0.152,0.305 -0.86,0.917 -0.708,0.611 -1.201,1.251 -1.096,1.42 0.105,0.17 -0.115,0.549 -0.488,0.842 -0.624,0.488 -0.635,0.468 -0.142,-0.249 0.296,-0.43 -0.202,0.01 -1.106,0.977 -0.905,0.966 -1.527,1.494 -1.383,1.171 0.144,-0.322 -0.102,-0.146 -0.545,0.391 -0.444,0.537 -0.811,0.811 -0.815,0.609 -0.005,-0.202 -0.286,-0.026 -0.624,0.391 -0.338,0.417 -0.501,0.494 -0.362,0.172 0.169,-0.391 0.069,-0.361 -0.302,0.091 -0.306,0.373 -0.671,0.564 -0.81,0.424 -0.14,-0.14 -0.255,-0.039 -0.255,0.224 0,0.263 -0.176,0.37 -0.39,0.237 -0.215,-0.132 -0.391,-0.044 -0.391,0.196 0,0.24 -0.176,0.328 -0.391,0.195 -0.214,-0.133 -0.39,-0.061 -0.39,0.16 0,0.221 -0.293,0.289 -0.65,0.152 -0.475,-0.182 -0.563,-0.108 -0.327,0.274 0.237,0.382 0.149,0.456 -0.326,0.274 -0.358,-0.137 -0.65,-0.067 -0.65,0.155 0,0.227 -0.344,0.296 -0.782,0.157 -0.429,-0.136 -0.781,-0.085 -0.781,0.115 0,0.199 -0.465,0.274 -1.034,0.165 -0.57,-0.109 -0.938,-0.041 -0.819,0.152 0.122,0.197 -1.555,0.349 -3.848,0.349 -2.235,0 -4.064,-0.146 -4.064,-0.324 0,-0.178 -0.55,-0.203 -1.221,-0.056 -0.908,0.2 -1.146,0.147 -0.928,-0.206 0.211,-0.34 0.059,-0.4 -0.537,-0.211 -0.482,0.153 -0.83,0.094 -0.83,-0.141 0,-0.222 -0.293,-0.292 -0.65,-0.155 -0.462,0.177 -0.561,0.105 -0.342,-0.249 0.231,-0.374 0.088,-0.429 -0.571,-0.22 -0.598,0.19 -0.794,0.141 -0.611,-0.154 0.23,-0.372 -0.237,-0.528 -1.2,-0.399 -0.138,0.018 -0.357,-0.122 -0.489,-0.312 -0.223,-0.323 -3.314,-2.207 -4.12,-2.513 -0.201,-0.076 -1.52,-1.268 -2.93,-2.65 -1.41,-1.381 -2.709,-2.476 -2.886,-2.432 -0.177,0.045 -0.21,-0.1 -0.074,-0.32 0.136,-0.22 0.051,-0.4 -0.19,-0.4 -0.24,0 -0.344,-0.15 -0.23,-0.334 0.113,-0.183 -0.239,-0.536 -0.783,-0.784 -0.58,-0.264 -0.889,-0.287 -0.746,-0.057 0.134,0.217 0.046,0.394 -0.194,0.394 -0.24,0 -0.328,0.176 -0.195,0.39 0.133,0.215 0.055,0.391 -0.172,0.391 -0.228,0 -0.37,0.153 -0.316,0.339 0.053,0.186 -0.263,0.67 -0.702,1.074 -0.44,0.405 -0.53,0.56 -0.199,0.345 0.331,-0.215 -0.276,0.531 -1.349,1.658 -1.985,2.086 -2.411,2.435 -1.91,1.564 0.303,-0.525 -1.42,0.896 -2.867,2.366 -0.488,0.496 -1.062,0.793 -1.276,0.661 -0.214,-0.132 -0.389,-0.044 -0.389,0.196 0,0.24 -0.176,0.328 -0.39,0.195 -0.215,-0.132 -0.391,-0.044 -0.391,0.196 0,0.24 -0.16,0.338 -0.355,0.217 -0.533,-0.329 -1.63,0.196 -1.352,0.647 0.15,0.242 -0.074,0.291 -0.588,0.128 -0.513,-0.163 -0.83,-0.095 -0.83,0.18 0,0.265 -0.313,0.343 -0.781,0.195 -0.468,-0.149 -0.781,-0.07 -0.781,0.195 0,0.266 -0.314,0.344 -0.782,0.196 -0.44,-0.14 -0.781,-0.071 -0.781,0.159 0,0.244 -0.469,0.313 -1.172,0.173 -0.644,-0.129 -1.172,-0.081 -1.172,0.107 0,0.188 -1.845,0.342 -4.101,0.342 -4.393,0 -4.458,-0.017 -3.418,-0.858 0.633,-0.512 0.626,-0.526 -0.098,-0.193 -0.43,0.198 -1.025,0.272 -1.324,0.166 -0.364,-0.129 -0.44,-0.027 -0.232,0.309 0.24,0.389 0.009,0.444 -1.02,0.247 -0.828,-0.159 -1.127,-0.125 -0.792,0.09 0.702,0.452 -3.078,1.001 -4.275,0.621 -0.541,-0.171 -0.763,-0.125 -0.607,0.128 0.407,0.658 -5.237,0.985 -12.442,0.722 -7.592,-0.277 -10.668,-0.607 -9.927,-1.065 0.275,-0.17 -0.282,-0.219 -1.237,-0.109 -1.358,0.156 -1.61,0.102 -1.152,-0.248 0.472,-0.36 0.403,-0.395 -0.357,-0.18 -1.396,0.396 -6.674,0.423 -6.674,0.034 0,-0.184 -0.439,-0.225 -0.977,-0.09 -0.592,0.149 -0.976,0.079 -0.976,-0.179 0,-0.247 -0.327,-0.321 -0.781,-0.176 -0.438,0.139 -0.782,0.07 -0.782,-0.157 0,-0.223 -0.263,-0.304 -0.586,-0.18 -0.322,0.124 -0.585,0.036 -0.585,-0.195 0,-0.232 -0.293,-0.308 -0.651,-0.171 -0.475,0.182 -0.562,0.108 -0.326,-0.274 0.236,-0.382 0.148,-0.456 -0.327,-0.274 -0.357,0.137 -0.65,0.069 -0.65,-0.152 0,-0.221 -0.175,-0.293 -0.39,-0.16 -0.215,0.133 -0.391,0.026 -0.391,-0.237 0,-0.264 -0.106,-0.372 -0.237,-0.242 -0.13,0.13 -0.596,-0.098 -1.035,-0.508 -0.44,-0.409 -0.94,-0.657 -1.111,-0.551 -0.172,0.106 -0.502,-0.162 -0.734,-0.596 -0.232,-0.433 -0.636,-0.746 -0.898,-0.694 -0.282,0.055 -0.439,-0.265 -0.384,-0.785 0.051,-0.484 -0.125,-0.899 -0.391,-0.924 -0.266,-0.025 -0.659,-0.086 -0.874,-0.136 -0.215,-0.05 -0.621,-0.118 -0.902,-0.15 -0.281,-0.033 -0.386,-0.262 -0.233,-0.511 0.166,-0.268 0.108,-0.345 -0.142,-0.19 -0.487,0.3 -2.492,-0.512 -2.246,-0.91 0.09,-0.145 -0.223,-0.251 -0.696,-0.235 -0.476,0.016 -0.818,-0.183 -0.766,-0.446 0.057,-0.292 -0.155,-0.379 -0.552,-0.226 -0.483,0.185 -0.562,0.108 -0.311,-0.307 0.274,-0.456 0.227,-0.468 -0.265,-0.07 -0.33,0.267 -0.743,0.354 -0.919,0.195 -0.176,-0.159 -0.211,-0.099 -0.079,0.134 0.133,0.233 -0.568,1.2 -1.556,2.149 -0.989,0.948 -1.67,1.461 -1.514,1.139 0.156,-0.323 -0.17,-0.093 -0.725,0.51 -0.554,0.602 -1.014,0.954 -1.02,0.781 -0.007,-0.173 -0.271,0.026 -0.586,0.443 -0.316,0.417 -0.579,0.593 -0.586,0.391 -0.007,-0.202 -0.271,-0.026 -0.586,0.391 -0.316,0.417 -0.574,0.636 -0.574,0.488 0,-0.149 -0.365,0.095 -0.811,0.541 -0.447,0.447 -1.062,0.716 -1.367,0.599 -0.306,-0.118 -0.556,-0.049 -0.556,0.152 0,0.202 -0.264,0.265 -0.586,0.142 -0.322,-0.124 -0.586,-0.02 -0.586,0.23 0,0.251 -0.176,0.347 -0.391,0.214 -0.214,-0.132 -0.39,-0.043 -0.39,0.199 0,0.271 -0.319,0.339 -0.83,0.176 -0.596,-0.189 -0.748,-0.129 -0.537,0.211 0.218,0.354 -0.029,0.404 -0.977,0.196 -0.948,-0.209 -1.195,-0.159 -0.977,0.195 0.204,0.33 0.07,0.407 -0.439,0.253 -0.403,-0.121 -2.698,-0.264 -5.1,-0.317 -2.637,-0.059 -4.277,-0.245 -4.138,-0.469 0.132,-0.214 -0.129,-0.278 -0.613,-0.151 -0.463,0.121 -0.842,0.042 -0.842,-0.176 0,-0.217 -0.264,-0.294 -0.586,-0.171 -0.323,0.124 -0.586,0.06 -0.586,-0.141 0,-0.201 -0.293,-0.254 -0.65,-0.117 -0.475,0.183 -0.563,0.109 -0.327,-0.274 0.237,-0.382 0.149,-0.456 -0.326,-0.274 -0.358,0.138 -0.65,0.069 -0.65,-0.152 0,-0.22 -0.176,-0.292 -0.391,-0.16 -0.215,0.133 -0.391,0.045 -0.391,-0.195 0,-0.24 -0.175,-0.328 -0.39,-0.195 -0.215,0.133 -0.391,0.045 -0.391,-0.195 0,-0.241 -0.176,-0.329 -0.39,-0.196 -0.215,0.133 -0.391,0.045 -0.391,-0.195 0,-0.24 -0.181,-0.325 -0.402,-0.189 -0.22,0.137 -0.955,-0.336 -1.632,-1.051 -0.678,-0.715 -1.094,-1.036 -0.926,-0.713 0.167,0.322 -0.159,0.023 -0.725,-0.665 -0.567,-0.688 -1.859,-1.982 -2.872,-2.875 -1.013,-0.894 -1.578,-1.504 -1.256,-1.357 0.323,0.148 0.198,-0.074 -0.276,-0.494 -0.474,-0.419 -0.757,-0.868 -0.628,-0.997 0.129,-0.129 -0.053,-0.345 -0.405,-0.48 -0.351,-0.135 -0.542,-0.403 -0.423,-0.595 0.119,-0.192 0.03,-0.35 -0.198,-0.35 -0.227,0 -0.379,-0.132 -0.336,-0.293 0.138,-0.524 -0.511,-2.05 -0.873,-2.05 -0.193,0 -0.251,-0.264 -0.127,-0.586 0.124,-0.323 0.074,-0.586 -0.11,-0.586 -0.184,10e-4 -0.275,-1.054 -0.202,-2.343 0.073,-1.29 0.228,-2.345 0.346,-2.345 0.326,0 2.062,1.951 1.749,1.966 -0.151,0.007 0.114,0.337 0.588,0.733 0.474,0.396 0.786,0.796 0.692,0.889 -0.093,0.094 0.731,1.038 1.831,2.1 1.099,1.061 1.871,1.666 1.714,1.343 -0.156,-0.322 0.098,-0.146 0.565,0.391 0.467,0.537 0.73,0.713 0.586,0.391 -0.145,-0.323 0.119,-0.147 0.586,0.39 0.466,0.537 0.72,0.713 0.562,0.391 -0.158,-0.322 0.101,-0.187 0.575,0.302 0.474,0.488 1.028,0.785 1.23,0.66 0.202,-0.125 0.367,-0.03 0.367,0.21 0,0.24 0.176,0.328 0.391,0.195 0.214,-0.133 0.39,-0.036 0.39,0.214 0,0.251 0.272,0.351 0.606,0.223 0.396,-0.152 0.51,-0.076 0.327,0.22 -0.187,0.302 -0.064,0.37 0.37,0.203 0.358,-0.137 0.65,-0.067 0.65,0.155 0,0.235 0.349,0.294 0.83,0.141 0.612,-0.194 0.75,-0.133 0.525,0.231 -0.222,0.36 -0.076,0.434 0.537,0.274 0.464,-0.121 0.843,-0.042 0.843,0.176 0,0.228 0.415,0.292 0.976,0.151 0.537,-0.135 0.977,-0.095 0.977,0.089 0,0.184 2.109,0.346 4.687,0.361 2.63,0.015 4.688,-0.131 4.688,-0.334 0,-0.198 0.439,-0.251 0.976,-0.116 0.627,0.157 0.977,0.081 0.977,-0.214 0,-0.291 0.305,-0.363 0.83,-0.196 0.596,0.189 0.748,0.13 0.537,-0.211 -0.213,-0.344 -0.053,-0.398 0.586,-0.195 0.659,0.209 0.802,0.154 0.571,-0.22 -0.219,-0.355 -0.121,-0.427 0.341,-0.249 0.358,0.137 0.651,0.084 0.651,-0.117 0,-0.201 0.292,-0.254 0.65,-0.117 0.394,0.152 0.552,0.092 0.402,-0.15 -0.136,-0.22 0.198,-0.603 0.742,-0.851 0.781,-0.356 0.936,-0.347 0.736,0.041 -0.14,0.27 0.128,0.052 0.595,-0.485 0.466,-0.538 0.735,-0.757 0.596,-0.489 -0.138,0.269 -0.16,0.489 -0.047,0.489 0.112,0 0.39,-0.348 0.618,-0.773 0.347,-0.649 0.308,-0.732 -0.246,-0.52 -0.493,0.19 -0.578,0.114 -0.337,-0.301 0.177,-0.305 0.183,-0.429 0.013,-0.276 -0.4,0.361 -1.856,-0.409 -1.589,-0.84 0.111,-0.18 -0.1,-0.303 -0.468,-0.274 -0.369,0.03 -0.678,-0.21 -0.688,-0.532 -0.01,-0.323 -0.308,-0.538 -0.664,-0.478 -0.639,0.107 -1.273,-0.525 -1.284,-1.28 -0.003,-0.215 -0.27,-0.399 -0.592,-0.408 -0.322,-0.01 -0.527,-0.274 -0.456,-0.586 0.072,-0.313 0.006,-0.444 -0.146,-0.292 -0.401,0.401 -2.953,-1.654 -2.654,-2.138 0.138,-0.224 0.077,-0.3 -0.136,-0.168 -0.213,0.132 -0.987,-0.3 -1.72,-0.96 -0.733,-0.659 -0.982,-0.959 -0.552,-0.667 0.716,0.487 0.737,0.475 0.249,-0.148 -0.293,-0.373 -0.701,-0.575 -0.905,-0.449 -0.434,0.268 -3.887,-3.357 -3.615,-3.796 0.1,-0.162 -0.024,-0.422 -0.275,-0.578 -0.304,-0.187 -0.362,-0.098 -0.172,0.266 0.157,0.302 -0.079,0.135 -0.524,-0.371 -0.445,-0.505 -0.719,-1.064 -0.609,-1.242 0.11,-0.178 -0.006,-0.45 -0.258,-0.606 -0.303,-0.187 -0.361,-0.098 -0.172,0.266 0.156,0.302 0.013,0.215 -0.318,-0.192 -0.332,-0.408 -0.493,-0.918 -0.359,-1.135 0.133,-0.216 0.059,-0.28 -0.166,-0.141 -0.526,0.325 -1.784,-1.576 -1.426,-2.156 0.163,-0.263 0.097,-0.332 -0.162,-0.172 -0.537,0.332 -1.781,-1.946 -1.4,-2.563 0.155,-0.251 0.097,-0.332 -0.134,-0.189 -0.519,0.321 -1.449,-1.881 -1.059,-2.51 0.179,-0.291 0.129,-0.374 -0.13,-0.213 -0.512,0.316 -1.034,-1.122 -0.639,-1.76 0.167,-0.271 0.111,-0.35 -0.139,-0.196 -0.505,0.313 -1.06,-1.863 -0.646,-2.533 0.174,-0.281 0.116,-0.356 -0.147,-0.194 -0.505,0.312 -1.074,-2.154 -0.713,-3.093 0.128,-0.335 0.08,-0.514 -0.108,-0.397 -0.506,0.312 -1.171,-5.197 -1.247,-10.327 -0.105,-7.132 0.009,-10.219 0.369,-9.996 0.184,0.113 0.246,-0.254 0.139,-0.816 -0.134,-0.7 -0.056,-0.937 0.247,-0.75 0.277,0.171 0.362,0.064 0.228,-0.285 -0.264,-0.689 1.714,-2.327 2.464,-2.04 0.294,0.113 0.427,0.032 0.296,-0.18 -0.137,-0.222 0.258,-0.386 0.924,-0.386 1.542,0 2.454,0.376 2.141,0.882 -0.141,0.229 -0.067,0.295 0.168,0.149 0.533,-0.329 2.48,0.531 2.206,0.974 -0.112,0.181 0.098,0.214 0.467,0.072 0.422,-0.162 0.576,-0.104 0.415,0.156 -0.14,0.227 -0.037,0.405 0.229,0.395 1.224,-0.044 1.879,0.136 1.678,0.46 -0.12,0.195 0.161,0.255 0.624,0.134 0.541,-0.141 0.751,-0.071 0.586,0.195 -0.164,0.267 0.046,0.337 0.586,0.195 0.54,-0.141 0.751,-0.071 0.586,0.196 -0.164,0.266 0.046,0.336 0.586,0.195 0.628,-0.164 0.762,-0.09 0.526,0.292 -0.205,0.332 -0.164,0.418 0.115,0.246 0.238,-0.147 2.182,0.089 4.321,0.525 2.139,0.436 4.477,0.805 5.195,0.82 0.862,0.018 1.083,0.118 0.651,0.293 -1.086,0.44 14.877,0.512 24.436,0.111 6.093,-0.256 9.076,-0.527 9.375,-0.851 0.333,-0.362 0.304,-0.4 -0.117,-0.159 -0.415,0.237 -0.49,0.148 -0.297,-0.354 0.141,-0.369 0.102,-0.574 -0.088,-0.457 -0.444,0.275 -0.901,-0.894 -0.564,-1.44 0.142,-0.229 0.087,-0.31 -0.122,-0.181 -0.506,0.312 -1.816,-1.945 -1.461,-2.519 0.185,-0.299 0.104,-0.343 -0.24,-0.13 -0.387,0.239 -0.446,0.135 -0.235,-0.416 0.156,-0.405 0.157,-0.611 0.004,-0.458 -0.383,0.383 -1.43,-1.183 -1.123,-1.68 0.136,-0.219 0.014,-0.351 -0.271,-0.292 -0.286,0.059 -0.493,-0.196 -0.463,-0.572 0.029,-0.374 -0.065,-0.606 -0.21,-0.516 -0.426,0.263 -2.456,-3.645 -2.15,-4.139 0.162,-0.263 0.108,-0.345 -0.132,-0.197 -0.492,0.304 -0.992,-0.811 -0.628,-1.4 0.142,-0.23 0.074,-0.303 -0.152,-0.163 -0.499,0.309 -1.79,-2.739 -1.416,-3.343 0.144,-0.234 0.088,-0.318 -0.125,-0.186 -0.571,0.353 -2.61,-6.062 -2.288,-7.199 0.212,-0.751 0.177,-0.816 -0.186,-0.342 -0.349,0.457 -0.404,0.154 -0.246,-1.367 0.114,-1.097 0.071,-1.618 -0.099,-1.188 -0.198,0.502 -0.39,-0.367 -0.559,-2.539 -0.351,-4.518 -0.326,-7.015 0.072,-7.015 0.183,0 0.258,-0.923 0.167,-2.051 -0.126,-1.559 -0.063,-1.91 0.265,-1.465 0.337,0.459 0.377,0.355 0.182,-0.481 -0.283,-1.219 0.531,-5.086 1.008,-4.791 0.174,0.108 0.216,-0.184 0.095,-0.648 -0.139,-0.531 -0.07,-0.749 0.188,-0.59 0.224,0.138 0.4,0.034 0.39,-0.232 -0.045,-1.254 0.14,-1.877 0.492,-1.659 0.23,0.142 0.282,-0.033 0.129,-0.431 -0.188,-0.491 -0.119,-0.585 0.26,-0.351 0.329,0.203 0.424,0.168 0.261,-0.096 -0.338,-0.546 0.119,-1.715 0.563,-1.44 0.19,0.117 0.229,-0.089 0.088,-0.457 -0.162,-0.422 -0.104,-0.576 0.156,-0.415 0.234,0.145 0.389,-0.038 0.359,-0.425 -0.029,-0.373 0.145,-0.642 0.389,-0.597 0.243,0.046 0.419,-0.218 0.39,-0.586 -0.028,-0.367 0.148,-0.631 0.391,-0.585 0.243,0.045 0.419,-0.219 0.391,-0.586 -0.029,-0.368 0.181,-0.62 0.465,-0.561 0.285,0.059 0.419,-0.052 0.299,-0.247 -0.272,-0.44 1.282,-2.477 1.695,-2.222 0.164,0.102 0.809,-0.38 1.433,-1.071 l 1.134,-1.255 -1.269,1.147 c -0.699,0.631 -1.27,1.026 -1.27,0.878 0,-0.49 3.253,-3.198 3.776,-3.144 0.282,0.03 0.428,-0.082 0.326,-0.248 -0.301,-0.486 0.893,-1.268 1.447,-0.948 0.278,0.16 0.375,0.147 0.215,-0.029 -0.402,-0.444 1.164,-1.477 1.719,-1.134 0.274,0.169 0.344,0.107 0.18,-0.159 -0.338,-0.547 3.512,-2.56 4.311,-2.254 0.312,0.12 0.468,0.058 0.347,-0.137 -0.283,-0.459 2.372,-1.34 3.145,-1.044 0.325,0.125 0.488,0.062 0.364,-0.139 -0.276,-0.446 2.281,-0.976 3.133,-0.649 0.395,0.152 0.512,0.077 0.332,-0.214 -0.201,-0.325 0.247,-0.378 1.64,-0.193 1.409,0.186 1.761,0.143 1.331,-0.163 -0.629,-0.447 10.129,-0.214 12.202,0.264 m 71.804,7.021 c 0.252,0.303 0.625,0.447 0.829,0.32 0.455,-0.281 0.118,-0.664 -0.689,-0.783 -0.47,-0.069 -0.5,0.029 -0.14,0.463 m -53.538,2.244 c 0,0.067 0.572,0.638 1.27,1.269 l 1.269,1.147 -1.147,-1.269 c -1.069,-1.183 -1.392,-1.449 -1.392,-1.147 m 58.957,3.732 c 0.215,0.402 0.265,0.869 0.112,1.039 -0.154,0.171 -0.076,0.194 0.172,0.051 0.507,-0.29 0.242,-1.82 -0.316,-1.82 -0.206,0 -0.193,0.31 0.032,0.73 m -120.16,21.145 c 0,1.397 0.071,1.968 0.158,1.27 0.086,-0.698 0.086,-1.841 0,-2.539 -0.087,-0.698 -0.158,-0.127 -0.158,1.269 m -0.218,36.995 c 0.486,0.094 1.189,0.09 1.563,-0.007 0.373,-0.098 -0.024,-0.175 -0.884,-0.17 -0.859,0.004 -1.165,0.084 -0.679,0.177 m 33.687,6.487 c 0,0.067 0.571,0.638 1.27,1.27 l 1.269,1.147 -1.147,-1.27 c -1.07,-1.183 -1.392,-1.449 -1.392,-1.147 m -32.906,1.326 c 0.486,0.093 1.189,0.09 1.563,-0.008 0.373,-0.098 -0.024,-0.174 -0.884,-0.17 -0.859,0.004 -1.165,0.084 -0.679,0.178 m -79.503,8.317 c 0,0.752 0.08,1.06 0.178,0.684 0.099,-0.376 0.099,-0.991 0,-1.367 -0.098,-0.376 -0.178,-0.069 -0.178,0.683 m 218.359,1.954 c 0,0.751 0.08,1.059 0.179,0.683 0.098,-0.376 0.098,-0.991 0,-1.367 -0.099,-0.376 -0.179,-0.068 -0.179,0.684 m -62.484,5.859 c 0,0.967 0.076,1.362 0.169,0.879 0.093,-0.484 0.093,-1.275 0,-1.758 -0.093,-0.483 -0.169,-0.088 -0.169,0.879 m -151.409,12.76 c -0.394,0.394 -0.311,1.693 0.107,1.693 0.203,0 0.493,-0.203 0.647,-0.451 0.184,-0.299 0.105,-0.344 -0.234,-0.134 -0.382,0.236 -0.456,0.102 -0.292,-0.526 0.233,-0.893 0.191,-1.001 -0.228,-0.582 m 71.522,7.829 c 0.486,0.093 1.189,0.09 1.562,-0.008 0.374,-0.098 -0.024,-0.174 -0.883,-0.17 -0.86,0.004 -1.165,0.084 -0.679,0.178 m 74.048,1.59 c -4.227,7.237 -12.941,13.535 -24.109,17.425 -0.406,0.142 -0.659,0.338 -0.561,0.436 0.598,0.598 9.71,-3.518 13.772,-6.221 4.504,-2.997 12.333,-11.389 11.873,-12.728 -0.069,-0.202 -0.508,0.288 -0.975,1.088 m -88.472,7.157 c 1.362,0.872 2.551,1.51 2.643,1.418 0.196,-0.196 -4.298,-3.024 -4.787,-3.012 -0.182,0.005 0.783,0.722 2.144,1.594 m 44.693,5.308 c 0.376,0.098 0.991,0.098 1.367,0 0.376,-0.098 0.068,-0.178 -0.684,-0.178 -0.752,0 -1.059,0.08 -0.683,0.178 m -33.467,0.77 c -0.118,0.31 -0.053,0.463 0.146,0.34 0.199,-0.122 2.174,0.46 4.39,1.295 3.557,1.341 6.99,2.492 10.083,3.383 0.657,0.189 0.849,0.151 0.586,-0.114 -0.215,-0.217 -1.755,-0.764 -3.423,-1.216 -1.667,-0.452 -4.952,-1.593 -7.298,-2.536 -3.434,-1.38 -4.31,-1.605 -4.484,-1.152 m -26.88,5.87 c -0.374,0.098 -1.077,0.101 -1.563,0.008 -0.486,-0.094 -0.18,-0.174 0.679,-0.178 0.86,-0.004 1.257,0.072 0.884,0.17 m 8.892,34.089 c -0.264,0.429 1.649,1.808 2.009,1.449 0.131,-0.131 -0.237,-0.418 -0.817,-0.639 -0.579,-0.22 -0.945,-0.577 -0.812,-0.792 0.133,-0.215 0.154,-0.391 0.047,-0.391 -0.108,0 -0.3,0.168 -0.427,0.373"
       stroke="none"
       fill="#a3ecfb"
       fill-rule="evenodd" />
    <path
       id="path2"
       d="m 205.469,199.607 c 16.158,0.931 28.41,8.479 33.205,20.453 0.643,1.607 1.17,3.091 1.17,3.297 0,1.139 5.865,2.966 12.304,3.831 4.184,0.563 16.455,0.71 16.769,0.202 0.082,-0.133 -3.394,-0.248 -7.724,-0.255 -8.394,-0.015 -12.34,-0.507 -17.818,-2.223 l -2.844,-0.89 -1.055,-2.99 c -4.518,-12.8 -17.669,-21.204 -33.812,-21.606 l -5.859,-0.146 5.664,0.327 m -8.789,0.255 c -14.933,3.104 -27.474,16.729 -27.094,29.435 0.03,1.012 0.125,0.791 0.366,-0.854 2.166,-14.76 12.592,-25.554 27.314,-28.276 1.396,-0.259 2.011,-0.469 1.367,-0.469 -0.645,0.001 -1.524,0.075 -1.953,0.164 m 0.586,8.166 c -20.722,4.437 -26.051,26.859 -12.075,50.795 3.551,6.081 5.825,10.639 5.825,11.675 0,0.737 0.317,0.973 1.806,1.349 20.743,5.223 22.799,30.774 3.53,43.867 -6.697,4.551 -14.421,6.701 -24.162,6.728 -3.801,0.01 -6.79,0.132 -6.641,0.271 1.417,1.317 15.36,5.145 21.929,6.02 30.461,4.055 51.943,-9.988 51.722,-33.811 -0.09,-9.744 -2.685,-15.535 -12.866,-28.711 -7.078,-9.16 -7.299,-11.63 -1.587,-17.737 7.015,-7.501 9.568,-15.59 7.467,-23.656 -3.162,-12.138 -19.659,-20.065 -34.948,-16.79 m 20.694,17.291 c 4.764,3.527 3.039,10.798 -2.678,11.288 -3.877,0.333 -6.467,-2.347 -6.216,-6.428 0.294,-4.765 5.315,-7.509 8.894,-4.86 m 53.005,2.781 c 6.542,2.971 -0.552,15.214 -12.176,21.012 -5.842,2.915 -11.621,4.013 -21.11,4.013 h -6.75 l -1.038,1.234 c -1.572,1.867 -0.964,3.307 4.098,9.704 13.247,16.742 16.286,33.039 9.105,48.828 -0.733,1.611 -1.071,2.666 -0.751,2.343 0.951,-0.959 3.016,-6.571 3.768,-10.239 2.801,-13.672 0.105,-25.085 -8.751,-37.05 -1.749,-2.363 -4.183,-5.654 -5.408,-7.312 -2.704,-3.66 -2.947,-4.439 -1.86,-5.965 l 0.821,-1.152 6.907,-0.001 c 16.599,-10e-4 27.849,-5.217 34.278,-15.893 3.007,-4.994 1.962,-10.316 -2.018,-10.27 -0.432,0.005 -0.06,0.319 0.885,0.748 m -101.671,7.933 c 0.468,8.294 2.356,14.616 6.619,22.17 1.152,2.041 3.084,5.469 4.294,7.617 l 2.2,3.907 -2.044,0.298 c -4.568,0.667 -29.517,0.494 -34,-0.236 -5.593,-0.911 -10.29,-2.285 -14.272,-4.177 -7.353,-3.494 -9.118,-1.443 -9.087,10.56 0.048,18.386 4.29,27.881 17.542,39.263 4.232,3.634 8.975,7.221 9.55,7.221 0.22,0 -0.622,-0.693 -1.871,-1.541 -18.202,-12.354 -25.059,-25.164 -24.719,-46.179 l 0.127,-7.81 1.459,-1.336 c 1.828,-1.675 2.869,-1.695 6.158,-0.12 10.309,4.937 27.347,6.596 49.063,4.778 l 2.774,-0.233 -1.846,-3.397 c -1.015,-1.868 -2.323,-4.152 -2.905,-5.075 -5.738,-9.09 -9.719,-22.521 -8.711,-29.389 0.089,-0.607 -0.01,-1.104 -0.22,-1.104 -0.242,0 -0.283,1.746 -0.111,4.783 m -38.434,40.229 c 0.003,27.883 18.496,42.972 47.07,38.407 20.201,-3.228 31.513,-21.048 20.081,-31.632 -4.606,-4.264 -7.131,-4.673 -26.722,-4.323 -21.763,0.389 -31.343,-0.732 -38.965,-4.557 l -1.465,-0.735 0.001,2.84 m 152.322,43.562 -1.346,1.465 1.465,-1.346 c 1.363,-1.253 1.644,-1.584 1.346,-1.584 -0.065,0 -0.725,0.66 -1.465,1.465 m -129.849,8.245 -1.94,2.204 2.136,-2.029 c 1.866,-1.773 2.234,-1.973 2.916,-1.579 1.947,1.123 6.07,2.972 5.856,2.626 -0.202,-0.327 -6.74,-3.588 -6.953,-3.468 -0.041,0.024 -0.948,1.034 -2.015,2.246 m 26.763,7.603 c 1.013,1.125 20.259,2.311 24.982,1.539 1.51,-0.246 0.001,-0.3 -5.078,-0.181 -6.667,0.156 -13.494,-0.335 -18.851,-1.354 -0.696,-0.133 -1.17,-0.135 -1.053,-0.004 m 29.67,0.461 c -1.798,0.347 -2.14,0.493 -1.172,0.501 0.752,0.005 2.246,-0.216 3.32,-0.492 2.499,-0.643 1.159,-0.648 -2.148,-0.009 m -74.703,0.081 c 0.486,0.093 1.189,0.09 1.563,-0.008 0.373,-0.098 -0.024,-0.174 -0.884,-0.17 -0.859,0.004 -1.165,0.084 -0.679,0.178"
       stroke="none"
       fill="#fbfbfb"
       fill-rule="evenodd" />
    <path
       id="path3"
       d="m 191.016,168.187 c 0.322,0.071 5.507,0.185 11.523,0.254 6.016,0.068 9.883,0.01 8.594,-0.131 -2.321,-0.254 -21.245,-0.369 -20.117,-0.123 m -3.028,0.442 c 0.376,0.098 0.991,0.098 1.367,0 0.376,-0.099 0.069,-0.179 -0.683,-0.179 -0.752,0 -1.06,0.08 -0.684,0.179 m -3.906,0.39 c 0.376,0.099 0.991,0.099 1.367,0 0.376,-0.098 0.069,-0.178 -0.683,-0.178 -0.752,0 -1.06,0.08 -0.684,0.178 M 225,170.703 c 1.336,0.428 2.363,0.428 1.367,0 -0.429,-0.185 -1.133,-0.33 -1.562,-0.324 -0.628,0.009 -0.59,0.073 0.195,0.324 m -52.539,0.391 c -0.995,0.427 0.032,0.427 1.367,0 0.785,-0.252 0.823,-0.315 0.195,-0.324 -0.429,-0.007 -1.132,0.139 -1.562,0.324 m 61.719,2.119 c 9.789,3.197 18.829,7.536 27.01,12.965 2.655,1.762 4.729,3.044 4.607,2.847 -2.202,-3.564 -32.006,-17.924 -36.333,-17.506 -0.199,0.02 1.923,0.782 4.716,1.694 m -67.578,-0.557 c -0.493,0.212 -0.565,0.336 -0.196,0.336 0.323,0 0.938,-0.151 1.367,-0.336 0.493,-0.211 0.565,-0.335 0.196,-0.335 -0.323,0 -0.938,0.151 -1.367,0.335 m -5.985,2.011 c -1.143,0.439 -2.012,0.866 -1.93,0.947 0.147,0.147 4.247,-1.314 4.562,-1.625 0.345,-0.341 -0.637,-0.088 -2.632,0.678 m -5.539,2.286 c -0.752,0.412 -1.191,0.749 -0.976,0.749 0.214,0 1.005,-0.337 1.757,-0.749 0.752,-0.412 1.192,-0.748 0.977,-0.748 -0.215,0 -1.006,0.336 -1.758,0.748 m -5.176,2.369 c -1.235,0.638 -2.246,1.247 -2.246,1.354 0,0.174 4.649,-2.038 5.046,-2.402 0.511,-0.468 -0.849,0.041 -2.8,1.048 m -9.082,5.109 c -2.262,1.524 -3.817,2.793 -2.539,2.072 0.893,-0.503 5.2,-3.291 5.412,-3.503 0.686,-0.687 -0.905,0.107 -2.873,1.431 m -9.179,6.544 c -1.827,1.47 -3.934,3.355 -4.684,4.189 -1.006,1.117 -0.801,0.995 0.781,-0.469 1.18,-1.091 3.331,-2.908 4.782,-4.037 2.268,-1.766 2.963,-2.414 2.539,-2.366 -0.054,0.006 -1.592,1.214 -3.418,2.683 m 134.765,-1.422 c 0,0.092 1.45,1.38 3.223,2.863 1.772,1.484 5.156,4.537 7.519,6.785 2.364,2.248 3.418,3.152 2.344,2.009 -3.262,-3.472 -13.086,-12.222 -13.086,-11.657 m -144.18,9.959 c -2.48,2.543 -4.721,5.08 -8.11,9.179 -0.311,0.376 -0.478,0.684 -0.372,0.684 0.107,0 1.405,-1.45 2.886,-3.223 1.481,-1.772 4.082,-4.673 5.78,-6.445 1.699,-1.772 3.016,-3.223 2.928,-3.223 -0.089,0 -1.489,1.363 -3.112,3.028 m 80.227,0.385 c 1.027,0.081 2.609,0.08 3.516,-0.002 0.906,-0.082 0.066,-0.148 -1.867,-0.147 -1.934,0.001 -2.676,0.068 -1.649,0.149 m 81.79,7.164 c 1.727,2.025 4.337,5.439 5.802,7.587 2.548,3.739 3.812,5.403 3.115,4.102 -1.667,-3.113 -10.222,-14.237 -11.607,-15.093 -0.246,-0.152 0.964,1.379 2.69,3.404 m -80.039,0.247 c 0.486,0.093 1.189,0.089 1.562,-0.008 0.374,-0.098 -0.024,-0.175 -0.883,-0.17 -0.86,0.004 -1.165,0.084 -0.679,0.178 m -91.582,3.337 c -1.178,1.301 -5.405,7.714 -5.085,7.714 0.088,0 1.003,-1.274 2.033,-2.832 1.03,-1.557 2.389,-3.491 3.02,-4.297 1.264,-1.613 1.283,-1.968 0.032,-0.585 m 181.909,11.035 c 0.709,1.289 1.467,2.519 1.685,2.734 0.217,0.215 -0.18,-0.664 -0.883,-1.953 -0.703,-1.289 -1.461,-2.52 -1.685,-2.734 -0.223,-0.215 0.174,0.664 0.883,1.953 m -188.867,-0.586 c -0.333,0.644 -0.518,1.172 -0.411,1.172 0.108,0 0.468,-0.528 0.802,-1.172 0.333,-0.645 0.518,-1.172 0.41,-1.172 -0.107,0 -0.468,0.527 -0.801,1.172 m -2.89,5.09 c -0.452,0.866 -0.82,1.701 -0.819,1.855 0.001,0.352 1.326,-1.824 1.671,-2.746 0.453,-1.211 -0.008,-0.729 -0.852,0.891 m 155.917,1.837 c 1.021,0.081 2.691,0.081 3.711,0 1.021,-0.08 0.186,-0.146 -1.855,-0.146 -2.041,0 -2.876,0.066 -1.856,0.146 m 39.782,1.081 c 0,0.214 0.423,1.181 0.941,2.148 0.518,0.967 0.941,1.582 0.941,1.367 0,-0.215 -0.423,-1.181 -0.941,-2.148 -0.518,-0.967 -0.941,-1.582 -0.941,-1.367 m -197.817,1.58 c -0.918,1.925 -0.789,2.252 0.171,0.433 0.435,-0.825 0.723,-1.57 0.638,-1.655 -0.084,-0.084 -0.448,0.466 -0.809,1.222 m -1.374,3.124 c -0.654,1.436 -0.529,1.743 0.178,0.437 0.331,-0.61 0.528,-1.182 0.439,-1.271 -0.09,-0.09 -0.367,0.286 -0.617,0.834 m -1.601,3.914 c -0.459,1.224 -0.765,2.295 -0.682,2.378 0.083,0.083 0.522,-0.855 0.975,-2.085 0.453,-1.23 0.76,-2.3 0.682,-2.378 -0.078,-0.078 -0.517,0.86 -0.975,2.085 m 204.739,0.952 c 0.11,0.322 0.595,1.784 1.079,3.247 0.483,1.464 0.948,2.593 1.032,2.508 0.19,-0.19 -1.692,-5.792 -2.052,-6.111 -0.143,-0.127 -0.17,0.034 -0.059,0.356 m -206.103,2.957 c -0.144,0.573 -0.186,1.117 -0.094,1.209 0.092,0.092 0.285,-0.301 0.429,-0.874 0.143,-0.572 0.186,-1.116 0.094,-1.208 -0.092,-0.092 -0.285,0.301 -0.429,0.873 m 170.871,1.144 c -0.949,0.967 -1.638,1.758 -1.53,1.758 0.107,0 0.971,-0.791 1.92,-1.758 0.949,-0.966 1.637,-1.757 1.53,-1.757 -0.107,0 -0.972,0.791 -1.92,1.757 m -171.84,2.184 c -0.264,0.882 -0.408,1.675 -0.32,1.763 0.087,0.088 0.375,-0.561 0.64,-1.443 0.264,-0.882 0.408,-1.675 0.32,-1.763 -0.088,-0.088 -0.376,0.562 -0.64,1.443 m 209.406,0.356 c 0.02,1.014 0.635,2.682 0.648,1.757 0.007,-0.429 -0.139,-1.132 -0.324,-1.562 -0.206,-0.479 -0.331,-0.554 -0.324,-0.195 M 93.945,250 c -0.148,0.675 -0.188,1.309 -0.088,1.409 0.099,0.099 0.293,-0.381 0.43,-1.067 0.326,-1.628 0.01,-1.944 -0.342,-0.342 m 213.958,10.156 c 0,0.752 0.081,1.06 0.179,0.684 0.098,-0.376 0.098,-0.991 0,-1.367 -0.098,-0.376 -0.179,-0.069 -0.179,0.683 m 0.399,2.93 c 0.004,0.859 0.084,1.165 0.177,0.679 0.094,-0.486 0.09,-1.189 -0.007,-1.563 -0.098,-0.373 -0.175,0.025 -0.17,0.884 m -217.03,4.389 c -0.139,2.098 -0.226,6.275 -0.193,9.283 0.05,4.671 0.103,4.132 0.364,-3.703 0.322,-9.669 0.252,-11.958 -0.171,-5.58 m 217.447,0.494 c 0,1.396 0.071,1.968 0.157,1.269 0.087,-0.698 0.087,-1.841 0,-2.539 -0.086,-0.698 -0.157,-0.127 -0.157,1.27 m -136.551,3.01 c 0.483,0.093 1.274,0.093 1.758,0 0.483,-0.093 0.088,-0.169 -0.879,-0.169 -0.967,0 -1.362,0.076 -0.879,0.169 m 136.95,4.607 c 0.002,1.719 0.07,2.373 0.153,1.454 0.082,-0.918 0.081,-2.325 -0.003,-3.125 -0.084,-0.8 -0.151,-0.048 -0.15,1.671 m -153.156,3.21 c 0.594,0.09 1.473,0.087 1.954,-0.005 0.48,-0.093 -0.006,-0.167 -1.08,-0.164 -1.074,0.003 -1.467,0.079 -0.874,0.169 m 10.938,0 c 0.594,0.09 1.473,0.087 1.953,-0.005 0.48,-0.093 -0.005,-0.167 -1.08,-0.164 -1.074,0.003 -1.467,0.079 -0.873,0.169 m 141.815,4.602 c 0.002,1.29 0.075,1.77 0.162,1.068 0.087,-0.702 0.085,-1.757 -0.004,-2.344 -0.089,-0.587 -0.16,-0.013 -0.158,1.276 m -217.181,1.563 c 0.002,1.504 0.073,2.071 0.157,1.261 0.085,-0.811 0.083,-2.041 -0.003,-2.735 -0.086,-0.693 -0.155,-0.03 -0.154,1.474 m 216.768,2.734 c 0.004,0.86 0.084,1.165 0.177,0.679 0.094,-0.486 0.09,-1.189 -0.007,-1.562 -0.098,-0.374 -0.175,0.024 -0.17,0.883 m -216.407,1.563 c 0.005,0.859 0.085,1.165 0.178,0.679 0.094,-0.486 0.09,-1.189 -0.008,-1.563 -0.098,-0.373 -0.174,0.024 -0.17,0.884 m 216.008,1.758 c 0,0.752 0.081,1.059 0.179,0.683 0.098,-0.376 0.098,-0.991 0,-1.367 -0.098,-0.376 -0.179,-0.068 -0.179,0.684 m -215.625,1.562 c 0,0.752 0.081,1.06 0.179,0.684 0.098,-0.376 0.098,-0.991 0,-1.367 -0.098,-0.376 -0.179,-0.069 -0.179,0.683 m 0.378,2.344 c -0.003,1.096 0.985,5.213 1.031,4.297 0.016,-0.323 -0.209,-1.641 -0.5,-2.93 -0.291,-1.289 -0.53,-1.904 -0.531,-1.367 m 214.219,1.601 c -0.143,0.896 -0.184,1.704 -0.091,1.798 0.093,0.093 0.292,-0.558 0.443,-1.446 0.15,-0.888 0.191,-1.697 0.09,-1.797 -0.1,-0.1 -0.299,0.55 -0.442,1.445 m -1.183,5.653 c -0.144,0.573 -0.186,1.117 -0.094,1.209 0.092,0.092 0.285,-0.301 0.429,-0.874 0.143,-0.572 0.186,-1.116 0.094,-1.208 -0.092,-0.092 -0.285,0.301 -0.429,0.873 m -0.781,2.735 c -0.144,0.572 -0.186,1.116 -0.094,1.208 0.092,0.092 0.285,-0.301 0.429,-0.873 0.143,-0.573 0.185,-1.117 0.093,-1.209 -0.092,-0.092 -0.285,0.301 -0.428,0.874 m -209.577,1.367 c -0.025,0.721 1.176,4.374 1.373,4.177 0.074,-0.074 -0.2,-1.182 -0.609,-2.463 -0.409,-1.28 -0.753,-2.052 -0.764,-1.714 m 208.795,1.367 c -0.143,0.573 -0.185,1.116 -0.093,1.208 0.092,0.092 0.285,-0.301 0.428,-0.873 0.144,-0.573 0.186,-1.116 0.094,-1.208 -0.092,-0.092 -0.285,0.301 -0.429,0.873 m -1.892,5.713 c -0.321,0.924 -0.969,2.648 -1.439,3.83 -0.469,1.181 -0.688,1.972 -0.484,1.757 0.499,-0.528 2.899,-6.878 2.681,-7.096 -0.095,-0.095 -0.436,0.584 -0.758,1.509 m -190.518,3.386 c 0,10.799 16.186,21.056 28.984,18.368 5.43,-1.14 16.906,-8.967 14.501,-9.889 -0.344,-0.132 -0.454,-0.047 -0.287,0.223 0.164,0.265 0.057,0.359 -0.273,0.239 -0.298,-0.108 -0.494,-0.408 -0.435,-0.665 0.059,-0.258 -0.069,-0.36 -0.285,-0.226 -0.502,0.31 -2.059,-0.508 -1.791,-0.941 0.111,-0.18 -0.103,-0.303 -0.477,-0.274 -0.374,0.03 -0.646,-0.136 -0.604,-0.368 0.122,-0.683 -1.123,-0.391 -3.005,0.706 -10.85,6.322 -27.212,2.827 -34.189,-7.304 -1.874,-2.72 -2.139,-2.704 -2.139,0.131 m 174.837,-0.486 c -8.385,13.272 -29.358,14.397 -41.581,2.23 -3.289,-3.274 -3.023,-3.11 -3.302,-2.042 -0.118,0.451 -0.382,0.716 -0.587,0.59 -0.205,-0.127 -0.349,0.075 -0.319,0.449 0.029,0.375 -0.178,0.631 -0.464,0.572 -0.285,-0.059 -0.401,0.08 -0.259,0.31 0.338,0.547 -0.561,1.619 -1.086,1.295 -0.224,-0.138 -0.294,-0.069 -0.156,0.154 0.291,0.472 -1.222,2.545 -1.66,2.274 -0.163,-0.1 -0.976,0.513 -1.806,1.364 -0.831,0.85 -1.356,1.546 -1.167,1.546 0.188,0 -0.071,0.439 -0.575,0.977 -0.957,1.018 -1.814,1.333 -1.328,0.488 0.163,-0.284 0.132,-0.352 -0.074,-0.163 -0.196,0.179 -0.359,0.443 -0.362,0.586 -0.011,0.49 -0.626,1.237 -1.017,1.237 -0.215,0 -0.264,-0.22 -0.109,-0.488 0.163,-0.284 0.132,-0.352 -0.075,-0.163 -0.196,0.179 -0.356,0.516 -0.356,0.749 0,0.232 -0.244,0.504 -0.542,0.604 -0.362,0.12 -0.44,0.013 -0.233,-0.321 0.205,-0.331 0.155,-0.406 -0.147,-0.219 -0.252,0.155 -0.362,0.437 -0.245,0.627 0.291,0.471 -1.281,1.266 -1.831,0.927 -0.266,-0.165 -0.335,-0.1 -0.172,0.163 0.338,0.547 -3.512,2.56 -4.311,2.254 -0.312,-0.12 -0.472,-0.064 -0.356,0.123 0.292,0.473 -1.968,1.355 -2.551,0.995 -0.298,-0.184 -0.373,-0.13 -0.203,0.146 0.329,0.532 -1.453,1.06 -2.142,0.634 -0.294,-0.182 -0.372,-0.128 -0.206,0.14 0.167,0.27 -0.363,0.624 -1.404,0.94 -1.67,0.506 -1.668,0.506 2.037,0.62 10.148,0.311 19.561,-4.438 23.303,-11.755 l 0.76,-1.485 1.542,2.239 c 5.24,7.608 16.636,12.126 26.051,10.329 8.772,-1.674 17.96,-10.704 18.566,-18.245 0.237,-2.956 -0.106,-3.099 -1.633,-0.681 m -186.528,3.078 c 0,0.215 0.251,0.83 0.558,1.367 0.307,0.537 0.558,0.801 0.558,0.586 0,-0.215 -0.251,-0.83 -0.558,-1.367 -0.307,-0.537 -0.558,-0.801 -0.558,-0.586 m 197.804,4.14 c -0.555,1.096 -0.944,2.058 -0.864,2.138 0.08,0.08 0.617,-0.816 1.194,-1.992 0.577,-1.176 0.965,-2.138 0.864,-2.138 -0.102,0 -0.639,0.897 -1.194,1.992 m -60.723,-1.092 c 0,0.066 -0.659,0.725 -1.464,1.465 l -1.465,1.346 1.346,-1.465 c 1.253,-1.363 1.583,-1.644 1.583,-1.346 m -134.884,1.635 c 0.357,0.749 0.719,1.292 0.804,1.208 0.178,-0.179 -1.008,-2.571 -1.275,-2.571 -0.098,0 0.113,0.613 0.471,1.363 m 0.981,1.958 c 0.758,1.513 4.782,8.069 5.056,8.239 0.386,0.239 -4.261,-7.635 -4.863,-8.239 -0.259,-0.261 -0.323,-0.261 -0.193,0 m 192.692,1.367 c -0.333,0.644 -0.518,1.172 -0.41,1.172 0.107,0 0.468,-0.528 0.801,-1.172 0.333,-0.645 0.518,-1.172 0.411,-1.172 -0.108,0 -0.468,0.527 -0.802,1.172 m -131.596,3.96 c 3.157,2.55 8.517,4.386 13.803,4.727 2.595,0.168 2.37,-0.107 -0.731,-0.894 -1.312,-0.332 -1.594,-0.53 -1.172,-0.821 0.41,-0.282 0.33,-0.319 -0.306,-0.141 -1.15,0.323 -4.233,-0.59 -3.547,-1.05 0.3,-0.201 0.046,-0.23 -0.63,-0.072 -0.874,0.204 -1.061,0.148 -0.818,-0.244 0.207,-0.336 0.16,-0.413 -0.141,-0.227 -0.639,0.395 -2.076,-0.127 -1.76,-0.639 0.156,-0.253 0.079,-0.31 -0.193,-0.142 -0.593,0.366 -2.087,-0.11 -1.8,-0.575 0.122,-0.197 -0.031,-0.261 -0.34,-0.143 -0.308,0.119 -1.217,-0.059 -2.021,-0.395 -2.035,-0.85 -2.074,-0.78 -0.344,0.616 m 127.726,2.583 c -0.793,1.235 -1.033,1.765 -0.533,1.178 0.985,-1.16 2.399,-3.424 2.137,-3.424 -0.089,0 -0.811,1.01 -1.604,2.246 m -183.221,1.269 c 0.519,0.941 3.379,4.688 3.578,4.688 0.222,0 -2.526,-3.873 -3.326,-4.688 -0.511,-0.521 -0.539,-0.521 -0.252,0 m 180.23,3.028 c -0.732,1.02 -2.443,3.261 -3.803,4.98 -1.361,1.719 -1.827,2.422 -1.037,1.563 1.352,-1.471 5.552,-6.843 6.185,-7.911 0.689,-1.162 -0.124,-0.336 -1.345,1.368 m -175.365,3.613 c 0.681,0.859 1.325,1.562 1.433,1.562 0.107,0 -0.362,-0.703 -1.042,-1.562 -0.681,-0.859 -1.326,-1.563 -1.433,-1.563 -0.108,0 0.361,0.704 1.042,1.563 m 3.449,4.101 c 1.087,1.29 3.062,3.487 4.388,4.883 l 2.412,2.539 -1.994,-2.343 c -1.097,-1.289 -3.072,-3.487 -4.388,-4.883 l -2.394,-2.539 1.976,2.343 m 163.543,2.54 c -0.839,0.859 -1.358,1.547 -1.153,1.529 0.358,-0.032 3.169,-3.092 2.84,-3.092 -0.089,0 -0.848,0.703 -1.687,1.563 m -3.856,4.007 c -1.047,1.061 -1.574,1.751 -1.172,1.531 0.912,-0.497 3.955,-3.608 3.447,-3.523 -0.205,0.034 -1.228,0.93 -2.275,1.992 m -150.649,2.746 c 1.174,1.227 2.179,2.231 2.233,2.231 0.41,0 -0.687,-1.261 -2.364,-2.719 l -2.005,-1.743 2.136,2.231 m 144.349,3.244 c -2.212,2.062 -2.232,2.095 -0.351,0.598 1.842,-1.467 3.187,-2.784 2.84,-2.782 -0.08,0 -1.2,0.983 -2.489,2.184 m -140.735,-0.024 c 0.585,0.615 1.133,1.039 1.218,0.943 0.086,-0.096 -0.392,-0.599 -1.062,-1.117 l -1.218,-0.943 1.062,1.117 m 2.008,1.656 c 0.309,0.5 2.594,2.191 2.594,1.92 0,-0.097 -0.645,-0.668 -1.434,-1.269 -0.789,-0.602 -1.311,-0.895 -1.16,-0.651 m 131.994,3.553 c -4.162,3.16 -5.578,4.376 -3.228,2.772 4.235,-2.89 8.083,-5.942 7.347,-5.826 -0.066,0.01 -1.92,1.385 -4.119,3.054 m -127.056,0.194 c 0,0.107 0.527,0.571 1.172,1.03 0.644,0.459 1.172,0.746 1.172,0.639 0,-0.108 -0.528,-0.571 -1.172,-1.03 -0.645,-0.459 -1.172,-0.746 -1.172,-0.639 m 2.734,1.909 c 0,0.171 0.786,0.723 4.004,2.811 0.591,0.383 1.074,0.612 1.074,0.508 0,-0.171 -0.786,-0.722 -4.004,-2.81 -0.59,-0.383 -1.074,-0.612 -1.074,-0.509 m 5.664,3.732 c 0.215,0.224 1.797,1.151 3.516,2.06 1.719,0.909 2.949,1.477 2.734,1.263 -0.535,-0.534 -6.738,-3.831 -6.25,-3.323 m 8.431,4.519 c 0.402,0.359 2.702,1.416 2.702,1.241 0,-0.225 -2.166,-1.387 -2.585,-1.387 -0.154,0 -0.206,0.066 -0.117,0.146 m 92.546,0.44 c -0.537,0.307 -0.801,0.558 -0.586,0.558 0.215,0 0.83,-0.251 1.367,-0.558 0.537,-0.307 0.801,-0.558 0.586,-0.558 -0.215,0 -0.83,0.251 -1.367,0.558 m -87.5,1.953 c 0.537,0.307 1.152,0.558 1.367,0.558 0.215,0 -0.049,-0.251 -0.586,-0.558 -0.537,-0.307 -1.152,-0.558 -1.367,-0.558 -0.215,0 0.049,0.251 0.586,0.558 m 80.273,1.186 c -0.977,0.47 -1.009,0.525 -0.195,0.326 1.107,-0.271 2.351,-0.905 1.758,-0.896 -0.215,0.003 -0.918,0.259 -1.563,0.57 m -69.922,2.525 c 0.43,0.185 1.045,0.336 1.368,0.336 0.369,0 0.297,-0.124 -0.196,-0.336 -0.429,-0.185 -1.045,-0.336 -1.367,-0.336 -0.369,0 -0.297,0.125 0.195,0.336 m 4.244,1.181 c 1.26,0.395 3.018,0.816 3.907,0.936 0.888,0.119 0.033,-0.214 -1.901,-0.74 -4.105,-1.117 -5.318,-1.235 -2.006,-0.196 m 55.131,-0.4 c -0.492,0.212 -0.564,0.336 -0.195,0.336 0.322,0 0.938,-0.151 1.367,-0.336 0.493,-0.211 0.565,-0.335 0.196,-0.335 -0.323,0 -0.938,0.151 -1.368,0.335 m -6.64,1.563 c -1.053,0.268 -1.073,0.299 -0.196,0.305 0.537,0.004 1.416,-0.133 1.954,-0.305 1.312,-0.421 -0.106,-0.421 -1.758,0 m -37.989,1.05 c 0.376,0.099 0.992,0.099 1.368,0 0.376,-0.098 0.068,-0.178 -0.684,-0.178 -0.752,0 -1.06,0.08 -0.684,0.178 m 29.004,0.323 c -1.718,0.265 -2.509,0.493 -1.757,0.506 0.751,0.014 2.685,-0.206 4.296,-0.487 3.707,-0.648 1.641,-0.664 -2.539,-0.019 m -25.39,0.191 c 1.579,0.348 4.369,0.513 4.069,0.242 -0.09,-0.081 -1.394,-0.246 -2.897,-0.367 -2.102,-0.168 -2.373,-0.139 -1.172,0.125 m 9.082,0.68 c 2.202,0.07 5.805,0.07 8.008,0 2.202,-0.069 0.4,-0.126 -4.004,-0.126 -4.405,0 -6.206,0.057 -4.004,0.126"
       stroke="none"
       fill="#43d2f7"
       fill-rule="evenodd" />
    <path
       id="path4"
       d="m 239.89,234.987 c -0.526,3.129 -1.933,7.302 -3.185,9.447 l -0.741,1.269 h 4.444 c 9.521,0 16.905,-2.712 22.273,-8.181 l 1.938,-1.975 -2.72,-0.001 c -5.665,-0.001 -17.262,-1.829 -20.903,-3.295 -0.493,-0.198 -0.699,0.311 -1.106,2.736"
       stroke="none"
       fill="#fab91d"
       fill-rule="evenodd" />
  </g>
</svg>
