<?xml version="1.0" encoding="UTF-8"?>
<svg version="1.1" xmlns="http://www.w3.org/2000/svg" width="1024" height="1536">
<path d="M0 0 C337.92 0 675.84 0 1024 0 C1024 506.88 1024 1013.76 1024 1536 C686.08 1536 348.16 1536 0 1536 C0 1029.12 0 522.24 0 0 Z " fill="#B0EAF7" transform="translate(0,0)"/>
<path d="M0 0 C0.6595166 0.44069824 1.3190332 0.88139648 1.99853516 1.33544922 C11.75819174 7.89296137 20.50476549 14.8797454 29 23 C30.36713212 24.19654963 31.74131571 25.38513046 33.125 26.5625 C51.0331601 42.17189007 64.26800489 61.17286888 75.75097656 81.7734375 C76.84118119 83.7168828 77.95690623 85.6414946 79.0859375 87.5625 C93.59864198 113.15224832 101.82390251 142.03893367 106 171 C106.10602539 171.69834961 106.21205078 172.39669922 106.32128906 173.11621094 C107.23031507 179.92908787 107.15105462 186.77615325 107.13037109 193.63671875 C107.12504614 195.73184567 107.13032519 197.82675488 107.13671875 199.921875 C107.16027401 237.50443123 96.6115234 277.85367078 70.16015625 305.84765625 C66.90633022 309.08971437 63.54907712 312.08510223 60 315 C58.95572073 315.89191721 57.91145069 316.78384522 56.8671875 317.67578125 C45.87105974 326.91033422 33.49590695 335.85293012 20 341 C18.5881362 347.85575964 18.5881362 347.85575964 20.9375 354.1875 C24.89339237 356.52874242 27.70728602 356.06879043 32 355 C34.98597986 353.80403306 37.75755082 352.31874081 40.5625 350.75 C41.27857422 350.36714844 41.99464844 349.98429687 42.73242188 349.58984375 C46.30904939 347.64368974 49.52978061 345.61790486 52.71484375 343.078125 C56 341 56 341 58.5390625 341.421875 C59.35117187 341.94265625 60.16328125 342.4634375 61 343 C62.49660156 343.93585938 62.49660156 343.93585938 64.0234375 344.890625 C65.14694675 345.66802553 66.26381705 346.45508046 67.375 347.25 C67.97642822 347.67966064 68.57785645 348.10932129 69.19750977 348.55200195 C81.24360092 357.39657746 92.25403753 368.40070951 101.9921875 379.7109375 C103.94321272 381.93525808 105.9408095 384.1108969 107.95361328 386.27929688 C131.64408161 411.83342623 154.06944778 441.55189957 165 475 C165.33451172 476.00498535 165.33451172 476.00498535 165.67578125 477.03027344 C168.62393712 486.25908652 169.38724224 495.26940842 169.5 504.9375 C169.52791626 506.5009314 169.52791626 506.5009314 169.55639648 508.09594727 C169.46380317 519.35008018 165.97323393 526.78087025 158.24609375 534.86328125 C151.41040675 541.36610002 145.68739149 542.38385748 136.375 542.26953125 C123.54965597 541.24528503 112.80441124 531.83297055 104.671875 522.49609375 C86.74670937 499.858432 77.58921925 473.21270679 69.72851562 445.84155273 C66.90842641 434.0237733 66.90842641 434.0237733 61 424 C56.79101001 423.30121016 53.14588244 423.32923955 49.4375 425.5 C46.2202872 431.0951527 48.15693377 437.1378657 49.6875 443.04296875 C50.43491881 445.76477701 51.21344528 448.4767738 52 451.1875 C52.20318848 451.89797485 52.40637695 452.60844971 52.61572266 453.3404541 C56.09961288 465.49649851 60.07445057 477.34404754 65 489 C65.34498535 489.82854492 65.6899707 490.65708984 66.04541016 491.51074219 C76.06645801 515.38347164 88.05976825 537.21419165 110 552 C103.98565277 573.09178915 94.97361252 591.73980651 80 608 C79.1642041 608.91168945 79.1642041 608.91168945 78.31152344 609.84179688 C59.47851849 630.12993672 34.1795864 645.8735053 8 655 C7.10861328 655.31203369 7.10861328 655.31203369 6.19921875 655.63037109 C-49.15385992 674.72180915 -111.92645124 678.79633199 -170 672 C-171.11262207 671.87109375 -172.22524414 671.7421875 -173.37158203 671.609375 C-221.37035206 665.83589076 -272.83196078 652.04412038 -308.8828125 617.99609375 C-310.83918016 616.15162166 -312.86073386 614.45561717 -314.9375 612.75 C-330.28703407 599.29202468 -342.22047236 579.87458254 -347 560 C-347.16894775 559.39043457 -347.33789551 558.78086914 -347.51196289 558.15283203 C-347.98389923 555.97201909 -348.22892432 554.22328664 -348 552 C-345.88697172 549.64937483 -344.37456796 548.30779437 -341.8125 546.625 C-341.22146484 546.20089844 -340.63042969 545.77679687 -340.02148438 545.33984375 C-337.1341603 543.2990818 -334.22449721 541.45622455 -331 540 C-331 539.34 -331 538.68 -331 538 C-329.85984026 536.82528996 -328.71357427 535.65609221 -327.54296875 534.51171875 C-319.82892488 526.95390868 -314.95669707 518.50294046 -310 509 C-309.62053223 508.28440918 -309.24106445 507.56881836 -308.85009766 506.83154297 C-298.76362801 487.60219055 -293.50335541 466.65762271 -288.2265625 445.703125 C-287.52695163 442.94104608 -286.76383852 440.29313311 -285.859375 437.5859375 C-284.7324408 434.19489005 -284.60578436 431.54794077 -285 428 C-286.28892287 425.37716666 -286.28892287 425.37716666 -289 424 C-292.1486298 423.33561023 -294.92206472 422.99208457 -298 424 C-300.98883266 427.69303604 -302.57947153 431.11885571 -303.75 435.6875 C-304.08257812 436.91082031 -304.41515625 438.13414062 -304.7578125 439.39453125 C-304.94891602 440.10561035 -305.14001953 440.81668945 -305.33691406 441.54931641 C-314.49865087 475.40996225 -326.83846041 518.18290195 -358.875 537.81640625 C-359.57625 538.20699219 -360.2775 538.59757813 -361 539 C-361.598125 539.33902344 -362.19625 539.67804687 -362.8125 540.02734375 C-369.82433148 543.3065839 -379.09020244 543.30720442 -386.46484375 541.34375 C-388.51252781 540.40303178 -390.19202317 539.34295397 -392 538 C-393.01126953 537.30583984 -393.01126953 537.30583984 -394.04296875 536.59765625 C-401.62319714 530.78093315 -406.33347677 521.33253006 -408 512 C-411.57252157 471.72793871 -384.66145185 431.95762106 -360.078125 402.4609375 C-358.25032187 400.29313611 -356.40372348 398.14241001 -354.55078125 395.99609375 C-351.4315081 392.33226142 -348.4811184 388.55223175 -345.55859375 384.73046875 C-345.04425781 384.15941406 -344.52992188 383.58835937 -344 383 C-343.34 383 -342.68 383 -342 383 C-341.76925781 382.44183594 -341.53851563 381.88367188 -341.30078125 381.30859375 C-339.65466491 378.38710799 -337.58926868 376.39945334 -335.1875 374.0625 C-334.33542969 373.22847656 -333.48335938 372.39445312 -332.60546875 371.53515625 C-331.31576172 370.28025391 -331.31576172 370.28025391 -330 369 C-329.16984375 368.16726563 -328.3396875 367.33453125 -327.484375 366.4765625 C-320.93763776 359.95041248 -314.19814528 353.94351425 -306.6875 348.5625 C-306.11330322 348.1497583 -305.53910645 347.7370166 -304.94750977 347.31176758 C-301.44002107 344.85068391 -297.87499449 342.82318197 -294 341 C-293.46375 341.4125 -292.9275 341.825 -292.375 342.25 C-287.11012449 346.12938196 -281.65649296 349.46336538 -275.875 352.5 C-275.21886719 352.86222656 -274.56273437 353.22445313 -273.88671875 353.59765625 C-268.8192777 356.17689271 -265.55396036 356.26009208 -260 355 C-257.32043145 352.73911403 -257.05001516 351.48014558 -256.6875 348 C-257.00059425 344.99429523 -257.4118852 343.52206039 -259 341 C-260.86380496 339.6230729 -260.86380496 339.6230729 -263.11328125 338.5546875 C-264.35779053 337.90669189 -264.35779053 337.90669189 -265.62744141 337.24560547 C-266.51351074 336.79330566 -267.39958008 336.34100586 -268.3125 335.875 C-280.12890831 329.60983965 -289.8810943 322.16670914 -299.7265625 313.0859375 C-301.8389424 311.1477745 -303.99998072 309.28976729 -306.1875 307.4375 C-325.50246115 290.44497907 -335.00031754 264.42241633 -340.6875 240 C-340.89012451 239.13479736 -341.09274902 238.26959473 -341.30151367 237.37817383 C-344.1478653 224.59512199 -345.3478544 211.96012394 -345.25 198.875 C-345.24623352 198.20369049 -345.24246704 197.53238098 -345.23858643 196.84072876 C-344.99699841 159.83676886 -336.4688722 123.82710945 -319 91 C-318.56461914 90.17983398 -318.12923828 89.35966797 -317.68066406 88.51464844 C-311.41725388 76.86049263 -304.55442158 66.00659391 -296.31494141 55.65283203 C-295.14718173 54.18500192 -293.99979805 52.70101277 -292.85546875 51.21484375 C-268.20145724 19.53117519 -232.94719189 -9.3818244 -194 -21 C-193.0821875 -21.27827637 -192.164375 -21.55655273 -191.21875 -21.84326172 C-128.03463719 -40.92015689 -56.09796355 -37.82721547 0 0 Z " fill="#FEFAF2" transform="translate(631,410)"/>
<path d="M0 0 C1.22460938 0.33515625 2.44921875 0.6703125 3.7109375 1.015625 C44.42649789 12.93646949 79.68502019 34.58085878 110 64 C110.55856689 64.51498047 111.11713379 65.02996094 111.69262695 65.56054688 C113 67 113 67 113 69 C113.54269531 69.19722656 114.08539062 69.39445312 114.64453125 69.59765625 C118.00525606 71.59848578 120.22338567 74.4611777 122.6875 77.4375 C123.21714355 78.06930176 123.74678711 78.70110352 124.29248047 79.35205078 C125.36595361 80.63483984 126.43662332 81.9199804 127.50439453 83.20751953 C128.7964928 84.75609698 130.11287051 86.28435618 131.43359375 87.80859375 C137.8591192 95.33367435 142.97729365 103.50495331 148 112 C148.39219727 112.66193359 148.78439453 113.32386719 149.18847656 114.00585938 C181.96017898 169.75352444 195.27198816 238.04620388 179.25 301.25 C172.87554776 324.73621572 160.7501833 344.66802391 145 363 C144.4642334 363.63655518 143.9284668 364.27311035 143.37646484 364.92895508 C142.85262207 365.54923584 142.3287793 366.1695166 141.7890625 366.80859375 C141.32193848 367.36345459 140.85481445 367.91831543 140.37353516 368.48999023 C138.45301069 370.60133823 136.29440209 372.31293964 134 374 C134.49886719 374.36609375 134.99773437 374.7321875 135.51171875 375.109375 C142.14054704 380.10777335 148.17922737 385.66143089 154.22021484 391.33789062 C156.02687427 393.0250974 157.84907036 394.69391527 159.67578125 396.359375 C168.57579496 404.50544515 176.94916396 413.01407426 185 422 C185.52190918 422.58249512 186.04381836 423.16499023 186.58154297 423.76513672 C219.8019743 461.11573268 250.33430502 508.91340564 248.17919922 560.74316406 C247.04181955 575.06732979 239.42394737 587.46419164 229 597 C216.92659253 605.87525518 206.02135632 610.13123794 191 609 C189.32671175 608.70167917 187.65630326 608.38150805 186 608 C185.63455078 609.66289063 185.63455078 609.66289063 185.26171875 611.359375 C183.960283 616.54686822 181.93918906 621.35336957 179.8125 626.25 C179.4103125 627.17804443 179.008125 628.10608887 178.59375 629.06225586 C171.17482996 645.90349874 160.62534082 659.73466495 148 673 C147.41863281 673.63421875 146.83726562 674.2684375 146.23828125 674.921875 C128.61499173 693.56616114 103.63388731 707.65283557 80 717 C80.28232721 719.10544013 80.5761898 721.20933589 80.875 723.3125 C81.03742188 724.48425781 81.19984375 725.65601563 81.3671875 726.86328125 C81.82300621 730.14530895 81.82300621 730.14530895 84 733 C86.55818 734.14702429 86.55818 734.14702429 89.625 735.125 C101.97973493 739.68106504 113.10397641 746.30754685 123 755 C123.886875 755.7321875 124.77375 756.464375 125.6875 757.21875 C132.2698289 762.80607569 137.40186033 768.55774161 138.23828125 777.56640625 C138.45990822 786.51313689 136.6946199 792.79956309 131.875 800.3125 C124.51241293 807.19491834 116.47816148 809.04793873 106.6015625 809.03515625 C94.1579613 808.44047782 94.1579613 808.44047782 83.625 813.875 C82.99722656 814.59429688 82.36945313 815.31359375 81.72265625 816.0546875 C77.756316 820.53368397 72.58160462 820.93358491 66.88671875 821.34375 C55.21588962 821.87861614 46.18320761 819.5819293 36 813.6875 C27.74645234 809.42259148 17.01231438 812.20534398 8.28515625 813.5390625 C-0.41536573 814.75982539 -7.16232446 814.268734 -15 810 C-20.07669258 805.93864594 -23.94223194 800.17330417 -26 794 C-26.9497971 782.49284284 -25.53069504 770.15077365 -18 761 C-16.33969623 759.24396208 -14.67242844 757.49449445 -13 755.75 C-7.94780135 750.37355577 -5.30647176 744.95583325 -3 738 C-3.66 738.33 -4.32 738.66 -5 739 C-7.81649135 739.30005154 -10.61769787 739.54697498 -13.44140625 739.75390625 C-14.30304886 739.81935135 -15.16469147 739.88479645 -16.05244446 739.95222473 C-50.40222817 742.50928392 -83.71145333 742.2869449 -118 739 C-117.41143286 740.59891555 -116.80993226 742.19307359 -116.203125 743.78515625 C-115.86958008 744.67340088 -115.53603516 745.56164551 -115.19238281 746.47680664 C-113.64350745 749.75437151 -111.57481839 751.68200902 -108.9375 754.09765625 C-102.65165078 760.26944772 -97.9724389 767.39608549 -96 776 C-95.773125 776.969375 -95.54625 777.93875 -95.3125 778.9375 C-94.26503146 789.2026917 -95.18259083 797.53873351 -101.8125 805.875 C-106.37616951 810.77372373 -111.83248428 813.72640736 -118.55859375 814.16796875 C-123.95590052 814.20458549 -129.05113793 813.91880606 -134.375 813 C-147.54726561 810.90120857 -155.96882138 811.62747688 -167.50390625 818.15234375 C-175.55073156 822.40502349 -186.7338624 822.1834032 -195.5625 820.25 C-200.35451949 818.50744746 -203.85999765 816.52000314 -206.9453125 812.40625 C-211.56421762 808.76782858 -215.96636996 809.29506816 -221.6875 809.3125 C-243.64126019 809.13534365 -243.64126019 809.13534365 -252 801 C-258.00784818 794.19722026 -259.5200484 787.3124924 -259.38671875 778.328125 C-258.12212782 767.44497883 -250.41059234 759.98540999 -242.25390625 753.46875 C-231.88405727 745.49734776 -221.09749746 738.59519075 -208.70703125 734.18359375 C-205.53867447 733.04037223 -204.21957371 732.41918617 -202.625 729.375 C-201.86336499 725.26217097 -201.3518589 721.16675012 -201 717 C-202.18529297 716.64035156 -202.18529297 716.64035156 -203.39453125 716.2734375 C-229.3729173 707.09797287 -252.18178309 690.81996598 -272 672 C-272.94939453 671.14728516 -272.94939453 671.14728516 -273.91796875 670.27734375 C-289.9852527 655.3549969 -305.18118293 629.84583232 -308 608 C-308.78697266 608.23783203 -308.78697266 608.23783203 -309.58984375 608.48046875 C-319.18612377 610.54903478 -328.24673089 609.14424688 -337 605 C-337.91523438 604.57589844 -338.83046875 604.15179687 -339.7734375 603.71484375 C-352.71381328 597.20840831 -362.14622212 587.33020027 -367.1875 573.71875 C-376.70403069 541.87497424 -363.37097521 508.01212318 -348.375 480.125 C-336.33267807 458.23565138 -321.56623403 438.61587635 -305 420 C-304.5241748 419.46487793 -304.04834961 418.92975586 -303.55810547 418.37841797 C-293.98775674 407.66574697 -283.99834576 397.257738 -273 388 C-271.18354054 386.44958494 -269.36970475 384.89614023 -267.55639648 383.34204102 C-266.28762106 382.25513783 -265.01763725 381.16964334 -263.74633789 380.08569336 C-261.43395955 378.11080933 -259.1512203 376.1512203 -257 374 C-257.60585938 373.42894531 -258.21171875 372.85789062 -258.8359375 372.26953125 C-278.47337788 353.26653126 -292.34428854 329.16160391 -300 303 C-300.35835938 301.79601562 -300.71671875 300.59203125 -301.0859375 299.3515625 C-308.82043414 271.14681912 -309.30414528 239.85020623 -305 211 C-304.87641113 210.15421387 -304.75282227 209.30842773 -304.62548828 208.43701172 C-297.30438733 160.09999729 -276.23752057 108.84846277 -241 74 C-239.71457467 72.55451213 -238.44180909 71.09756992 -237.1875 69.625 C-231.60715993 63.19547775 -225.46126744 57.52749624 -219 52 C-218.01773438 51.14019531 -217.03546875 50.28039062 -216.0234375 49.39453125 C-209.02525182 43.31104398 -201.84908944 37.96594725 -194 33 C-192.85561464 32.23740929 -191.71243293 31.47300995 -190.5703125 30.70703125 C-172.81847559 18.98567753 -153.27556604 10.30498429 -133 4 C-132.1764502 3.73493652 -131.35290039 3.46987305 -130.50439453 3.19677734 C-89.35835005 -9.96836977 -41.72867288 -11.72822171 0 0 Z M-130 24 C-130.76908691 24.21914063 -131.53817383 24.43828125 -132.33056641 24.6640625 C-160.59241183 32.81064297 -186.8839524 49.81601538 -208 70 C-209.36713212 71.19654963 -210.74131571 72.38513046 -212.125 73.5625 C-233.79633676 92.45200885 -250.79512719 117.22040757 -263.08398438 143.09570312 C-263.9395644 144.87436097 -264.83553444 146.6334322 -265.734375 148.390625 C-280.90532607 178.87171019 -287.12640892 212.10143848 -287.25 245.875 C-287.25918457 247.14496826 -287.26836914 248.41493652 -287.27783203 249.72338867 C-287.16860886 283.44495053 -277.14694099 325.10431665 -253 350 C-252.39671875 350.64453125 -251.7934375 351.2890625 -251.171875 351.953125 C-249.49316653 353.69232747 -247.77213665 355.35645376 -246 357 C-245.42121094 357.53753906 -244.84242188 358.07507813 -244.24609375 358.62890625 C-231.90366781 369.73451289 -218.50843193 378.92267184 -203.65234375 386.32421875 C-200.88811928 388.07068752 -200.00076365 388.94345079 -199 392 C-198.66377709 395.22773994 -198.70853663 397.32599095 -200 400.3125 C-202.98854508 402.83408491 -206.20682141 403.08890921 -210 403 C-212.82049109 402.19847849 -215.25592611 400.91975743 -217.8125 399.5 C-218.49957031 399.13777344 -219.18664062 398.77554687 -219.89453125 398.40234375 C-225.79211086 395.24449795 -231.46261686 391.75415806 -237 388 C-249.83815451 396.06709567 -261.34563209 405.19366804 -272 416 C-273.03618939 417.01592776 -274.07403771 418.03016544 -275.11328125 419.04296875 C-276.17973223 420.09110033 -277.24613804 421.13927786 -278.3125 422.1875 C-278.86228516 422.72052734 -279.41207031 423.25355469 -279.97851562 423.80273438 C-281.35715678 425.16424956 -282.68339727 426.57840502 -284 428 C-284 428.66 -284 429.32 -284 430 C-284.99 430.33 -285.98 430.66 -287 431 C-288.97616533 433.10573566 -288.97616533 433.10573566 -291 435.75 C-293.90447471 439.39933193 -296.83383786 442.98749077 -299.8996582 446.50415039 C-323.9480089 474.25692973 -346.6859508 509.60498534 -350 547 C-350.09539062 548.00417969 -350.19078125 549.00835938 -350.2890625 550.04296875 C-350.81571459 560.53443282 -347.43393348 571.19887113 -340.671875 579.3203125 C-334.13686579 585.88585914 -328.13883297 589.27840707 -318.75 589.375 C-312.31325968 589.34538071 -307.4988976 588.37336218 -302 585 C-301.2884375 584.59910156 -300.576875 584.19820312 -299.84375 583.78515625 C-287.51487082 576.2966645 -279.29014032 565.13985793 -272 553 C-271.4726123 552.12698242 -271.4726123 552.12698242 -270.93457031 551.23632812 C-259.12700103 531.32729744 -252.74551293 508.79641952 -246.8203125 486.58984375 C-246.48773438 485.36394531 -246.15515625 484.13804687 -245.8125 482.875 C-245.41998047 481.35519531 -245.41998047 481.35519531 -245.01953125 479.8046875 C-243.77871713 476.39126016 -242.28952899 473.82168978 -240 471 C-236.92206472 469.99208457 -234.1486298 470.33561023 -231 471 C-228.4375 472.5625 -228.4375 472.5625 -227 475 C-226.22680962 482.06637282 -228.56787397 488.57578508 -230.5 495.3125 C-230.8676792 496.60704917 -231.23518953 497.90164631 -231.60253906 499.19628906 C-232.35774924 501.8478804 -233.12072566 504.49709051 -233.88867188 507.14501953 C-234.91597828 510.69227805 -235.90364055 514.24989664 -236.890625 517.80859375 C-243.42980589 540.8037625 -253.33808222 567.02303194 -271 584 C-271.66 584.33 -272.32 584.66 -273 585 C-273 585.66 -273 586.32 -273 587 C-273.5671875 587.25910156 -274.134375 587.51820313 -274.71875 587.78515625 C-277.21881232 589.11652505 -279.28512532 590.67394396 -281.5 592.4375 C-284.30728292 594.66313697 -287.12447963 596.86296554 -290 599 C-285.27821413 628.74725101 -267.47943875 652.91888096 -244 671 C-242.54207031 672.19882813 -242.54207031 672.19882813 -241.0546875 673.421875 C-232.35987276 680.50653887 -222.95633565 685.88100851 -213 691 C-212.23381348 691.39606445 -211.46762695 691.79212891 -210.67822266 692.20019531 C-177.33886052 709.23203144 -139.13764889 717.11308372 -102 720 C-100.31571899 720.13136353 -100.31571899 720.13136353 -98.59741211 720.26538086 C-87.58299385 721.04178549 -76.60184339 721.20077893 -65.5625 721.1875 C-64.62824188 721.18689575 -63.69398376 721.1862915 -62.73141479 721.18566895 C-11.79950328 721.09698167 42.51974673 716.46606054 88.20654297 691.95556641 C89.89737752 691.05467797 91.60644921 690.18826065 93.31640625 689.32421875 C107.39563382 682.08594102 119.70988716 673.03781982 131 662 C131.92296875 661.13890625 132.8459375 660.2778125 133.796875 659.390625 C150.88006444 643.07955712 162.61439578 622.00891945 168 599 C167.09378906 598.32195313 166.18757812 597.64390625 165.25390625 596.9453125 C153.16126477 587.76894568 144.48837683 578.14825817 137.07324219 564.91162109 C136.06993954 563.12457383 135.03983061 561.35265056 134.0078125 559.58203125 C124.95341761 543.49138973 118.26719942 525.67273778 113 508 C112.70963867 507.03465332 112.41927734 506.06930664 112.12011719 505.07470703 C111.12621012 501.74187191 110.15353308 498.40351495 109.1875 495.0625 C108.71534058 493.46148438 108.71534058 493.46148438 108.23364258 491.828125 C106.59571886 486.03596775 105.48823666 481.02359288 106 475 C107.4375 472.5 107.4375 472.5 110 471 C113.08785958 470.46491964 115.94715592 470.23538343 119 471 C121.46371853 473.79583842 122.70455857 476.49126706 123.8671875 480.0078125 C124.35541992 481.47395996 124.35541992 481.47395996 124.85351562 482.96972656 C125.35915039 484.53158691 125.35915039 484.53158691 125.875 486.125 C126.23013672 487.20233398 126.58527344 488.27966797 126.95117188 489.38964844 C128.98659599 495.63495248 130.83578894 501.89711796 132.5 508.25 C139.53654041 534.72479575 154.00308484 567.39283859 177.6875 583.0625 C179.4392114 584.07547839 181.20863783 585.05891572 183 586 C183.66386719 586.35835937 184.32773437 586.71671875 185.01171875 587.0859375 C192.06110092 590.30766772 200.48575366 589.97938013 207.8125 587.9375 C216.9276934 582.39689225 224.37524082 574.57062107 227 564 C230.88880914 518.81099841 205.94719504 480.75655564 178.03515625 447.44921875 C171.98917798 440.29838671 165.7404153 433.34957345 159.37207031 426.48535156 C157.95645762 424.95286266 156.55118683 423.41145483 155.1484375 421.8671875 C152.44892456 418.89577784 149.72962301 415.94379344 147 413 C146.34773438 412.29230469 145.69546875 411.58460938 145.0234375 410.85546875 C138.95137686 404.51210327 131.99373808 399.27325367 125 394 C124.10023438 393.30519531 123.20046875 392.61039063 122.2734375 391.89453125 C121.50257813 391.33121094 120.73171875 390.76789063 119.9375 390.1875 C119.28652344 389.70667969 118.63554688 389.22585938 117.96484375 388.73046875 C115.94522247 387.76289679 115.94522247 387.76289679 113.578125 388.65625 C110.8687914 390.06838751 108.35524722 391.61858715 105.8125 393.3125 C90.32708873 403.28227419 90.32708873 403.28227419 82 403 C79 400.9375 79 400.9375 77 398 C76.625 394.9375 76.625 394.9375 77 392 C77.061875 391.2575 77.12375 390.515 77.1875 389.75 C78.4043946 387.12899624 80.32044283 387.0647247 83 386 C97.29153651 378.55369515 109.75300123 369.28286951 121.515625 358.28515625 C123.63749112 356.33343977 125.8114086 354.54637093 128.0625 352.75 C147.15849402 336.03612384 157.57706177 306.2003043 162 282 C162.18949219 281.16339844 162.37898437 280.32679688 162.57421875 279.46484375 C165.20677631 267.68368192 165.23941406 255.52114453 165.25 243.5 C165.25067474 242.80101593 165.25134949 242.10203186 165.25204468 241.38186646 C165.2337479 229.36122657 164.31969664 217.80442701 162 206 C161.82839355 205.07960938 161.65678711 204.15921875 161.47998047 203.2109375 C158.86105821 189.31824532 155.0923491 176.18003408 150 163 C149.72430176 162.27119629 149.44860352 161.54239258 149.16455078 160.79150391 C135.10861978 123.84952626 111.67837511 89.15412225 81 64 C80.27006836 63.39937744 80.27006836 63.39937744 79.52539062 62.78662109 C71.07042304 55.86960908 62.36530011 49.62368502 53 44 C52.37899414 43.62633301 51.75798828 43.25266602 51.11816406 42.86767578 C27.81184162 28.98922831 2.84624752 20.00760449 -24 16 C-25.15290527 15.82428467 -25.15290527 15.82428467 -26.32910156 15.64501953 C-61.14419716 10.61052032 -96.41524412 14.17647325 -130 24 Z " fill="#4E5760" transform="translate(573,363)"/>
<path d="M0 0 C1.05960938 0.00563965 2.11921875 0.0112793 3.2109375 0.01708984 C23.05969119 0.32268803 40.76393838 6.66971066 57.375 17.3125 C57.94959961 17.67827148 58.52419922 18.04404297 59.11621094 18.42089844 C66.33117169 23.0927163 72.48649572 28.23592711 78.4375 34.4375 C87.5463796 43.86863958 97.84898802 49.23119571 109.76782227 54.38208008 C123.4141593 60.30709905 134.16973537 66.75153181 140.453125 80.70703125 C143.279744 88.69582309 141.18597247 95.97458628 137.95703125 103.48828125 C134.54225519 109.58428888 130.39128695 113.43654754 124.625 117.1875 C123.97523193 117.61385742 123.32546387 118.04021484 122.65600586 118.47949219 C111.98356503 125.29541939 100.36629643 130.18232169 88.46313477 134.41113281 C85.45596333 135.48321095 83.05208882 136.52777412 80.375 138.3125 C40.25857648 150.1387289 -5.56371197 150.24016343 -46.625 144.3125 C-47.67961426 144.16264648 -48.73422852 144.01279297 -49.82080078 143.85839844 C-52.82402963 143.4157382 -55.81843059 142.93813257 -58.8125 142.4375 C-60.09471436 142.23205566 -60.09471436 142.23205566 -61.40283203 142.02246094 C-66.88879074 141.01111358 -71.3196503 139.13397931 -76.23852539 136.52539062 C-79.63282206 134.80028926 -83.1336485 133.66177264 -86.75 132.5 C-102.53370743 127.13713469 -123.97386488 118.50986275 -131.86328125 102.85546875 C-135.0025969 95.31463838 -136.2967722 87.56664119 -133.77734375 79.6484375 C-132.58030832 77.0271328 -131.2220766 74.71009638 -129.625 72.3125 C-128.89216797 71.18908203 -128.89216797 71.18908203 -128.14453125 70.04296875 C-119.96268764 59.35227606 -105.76061066 53.88211888 -93.4453125 49.4375 C-83.77307859 45.57932359 -76.43837024 37.87480026 -69.00390625 30.828125 C-55.27054121 17.99171414 -38.96264903 7.17366155 -20.625 2.3125 C-19.98353027 2.13662354 -19.34206055 1.96074707 -18.68115234 1.77954102 C-12.43624768 0.20748028 -6.42122609 -0.03583273 0 0 Z " fill="#FDA455" transform="translate(508.625,576.6875)"/>
<path d="M0 0 C1.05960938 0.00563965 2.11921875 0.0112793 3.2109375 0.01708984 C23.05969119 0.32268803 40.76393838 6.66971066 57.375 17.3125 C57.94959961 17.67827148 58.52419922 18.04404297 59.11621094 18.42089844 C66.33117169 23.0927163 72.48649572 28.23592711 78.4375 34.4375 C87.5463796 43.86863958 97.84898802 49.23119571 109.76782227 54.38208008 C123.4141593 60.30709905 134.16973537 66.75153181 140.453125 80.70703125 C143.279744 88.69582309 141.18597247 95.97458628 137.95703125 103.48828125 C134.54225519 109.58428888 130.39128695 113.43654754 124.625 117.1875 C123.97523193 117.61385742 123.32546387 118.04021484 122.65600586 118.47949219 C111.98356503 125.29541939 100.36629643 130.18232169 88.46313477 134.41113281 C85.45596333 135.48321095 83.05208882 136.52777412 80.375 138.3125 C40.25857648 150.1387289 -5.56371197 150.24016343 -46.625 144.3125 C-47.67961426 144.16264648 -48.73422852 144.01279297 -49.82080078 143.85839844 C-52.82402963 143.4157382 -55.81843059 142.93813257 -58.8125 142.4375 C-60.09471436 142.23205566 -60.09471436 142.23205566 -61.40283203 142.02246094 C-66.88879074 141.01111358 -71.3196503 139.13397931 -76.23852539 136.52539062 C-79.63282206 134.80028926 -83.1336485 133.66177264 -86.75 132.5 C-102.53370743 127.13713469 -123.97386488 118.50986275 -131.86328125 102.85546875 C-135.0025969 95.31463838 -136.2967722 87.56664119 -133.77734375 79.6484375 C-132.58030832 77.0271328 -131.2220766 74.71009638 -129.625 72.3125 C-128.89216797 71.18908203 -128.89216797 71.18908203 -128.14453125 70.04296875 C-119.96268764 59.35227606 -105.76061066 53.88211888 -93.4453125 49.4375 C-83.77307859 45.57932359 -76.43837024 37.87480026 -69.00390625 30.828125 C-55.27054121 17.99171414 -38.96264903 7.17366155 -20.625 2.3125 C-19.98353027 2.13662354 -19.34206055 1.96074707 -18.68115234 1.77954102 C-12.43624768 0.20748028 -6.42122609 -0.03583273 0 0 Z M-64.65625 53.05859375 C-73.03425459 60.45691232 -81.59891645 64.53396517 -91.89453125 68.60546875 C-100.98718244 72.21218148 -110.28411692 76.76708708 -115.625 85.3125 C-116.27268167 89.41448389 -116.29007838 91.36495013 -113.88671875 94.7890625 C-92.91749267 118.18477933 -51.04606493 125.30842725 -21.609375 127.06640625 C8.65607303 128.44808975 40.91728616 128.17215033 70.375 120.3125 C71.37789062 120.07789063 72.38078125 119.84328125 73.4140625 119.6015625 C89.20608873 115.73319873 113.03803429 107.31794856 122.375 93.3125 C123.00221687 89.75827106 123.03067609 87.39231656 121.125 84.25390625 C114.64084368 76.31381669 105.82330021 72.93701502 96.4375 69.4375 C85.18419918 65.0524833 77.36394581 59.32351752 68.6027832 51.07397461 C48.44678428 32.28754624 24.42523038 18.51488121 -3.765625 19.00390625 C-28.49288722 20.98108612 -47.10233854 37.11996636 -64.65625 53.05859375 Z " fill="#4F565E" transform="translate(508.625,576.6875)"/>
<path d="M0 0 C0.15855469 1.02480469 0.31710937 2.04960938 0.48046875 3.10546875 C0.71509942 4.46632666 0.9508353 5.82699435 1.1875 7.1875 C1.28869141 7.86103516 1.38988281 8.53457031 1.49414062 9.22851562 C2.41828862 14.34879505 3.94037108 16.80216146 8 20 C10.79872539 21.7239974 13.6877517 23.21468235 16.625 24.6875 C17.45241699 25.11393799 18.27983398 25.54037598 19.13232422 25.97973633 C21.75039293 27.32880534 24.37431336 28.6658254 27 30 C53.13597396 43.28414917 53.13597396 43.28414917 58 51 C58.46875 53.18359375 58.46875 53.18359375 58.5 55.4375 C58.5309375 56.17871094 58.561875 56.91992188 58.59375 57.68359375 C57.61564721 61.49948159 56.24168838 62.73708226 53 65 C48.92001723 65.71346256 44.88398393 65.69950344 40.75 65.6875 C28.83310854 65.77873651 18.28479682 65.86136125 9.3125 74.625 C8.1678125 75.800625 8.1678125 75.800625 7 77 C3.30365485 79.24229633 0.7088207 79.30721083 -3.49609375 78.74609375 C-8.31187897 77.31112499 -12.04924548 74.00749479 -16 71 C-23.15835196 66.22776536 -31.7607689 66.28320662 -39.9765625 67.87109375 C-42.58267069 68.40914922 -45.17156695 68.98080048 -47.75634766 69.61352539 C-53.2595226 70.90448172 -58.47046155 71.58417595 -64 70 C-67.19090222 67.72693243 -68.75076634 65.09662809 -69.625 61.25 C-68.10406002 53.34111212 -64.02018375 47.71228846 -58.5625 41.9375 C-50.19903865 33.04528996 -46.36868419 27.6665405 -46.10546875 15.2578125 C-46 12 -46 12 -45 9 C-42.53510474 8.249203 -40.23324808 7.70846123 -37.7109375 7.24609375 C-36.97428864 7.09970963 -36.23763977 6.9533255 -35.47866821 6.80250549 C-33.11305315 6.33484686 -30.74439501 5.88557561 -28.375 5.4375 C-26.02785735 4.98230389 -23.68150634 4.52331557 -21.33560181 4.06178284 C-19.8750275 3.77566941 -18.41361451 3.49379269 -16.95126343 3.21690369 C-13.65528904 2.58243634 -10.46748832 1.84383304 -7.24462891 0.89868164 C-4 0 -4 0 0 0 Z " fill="#FCA457" transform="translate(634,1088)"/>
<path d="M0 0 C6.09706756 0.57201196 11.83107691 1.53413139 17.75390625 3.06640625 C18.54022934 3.26475571 19.32655243 3.46310516 20.13670349 3.66746521 C22.61342415 4.29356408 25.08795303 4.9278708 27.5625 5.5625 C29.25572045 5.9920844 30.94907878 6.42112576 32.64257812 6.84960938 C36.76333704 7.89347729 40.88215348 8.94470446 45 10 C45.05913574 11.03640625 45.11827148 12.0728125 45.17919922 13.140625 C45.26246651 14.51043059 45.3459753 15.88022152 45.4296875 17.25 C45.46795654 17.93191406 45.50622559 18.61382813 45.5456543 19.31640625 C46.05271006 27.42929845 48.15432578 31.51003702 54.03125 37.05078125 C60.41775065 43.37392376 66.54492413 50.81629221 69 59.5625 C69 63.92731304 67.76896164 65.69262916 65 69 C58.50974911 73.32683392 49.41703071 70.37405176 42.15429688 69.06640625 C30.22390275 67.02785233 21.63486016 67.77518704 11.4375 74.625 C6.69900198 77.74870261 3.69940884 79.1932003 -2 79 C-5.84435727 77.6662434 -8.44665816 75.6651724 -11.4375 73 C-17.7198138 67.41109832 -24.72899283 65.91403672 -33 65.82421875 C-34.134375 65.80037109 -35.26875 65.77652344 -36.4375 65.75195312 C-38.81231695 65.70898769 -41.18737473 65.67773541 -43.5625 65.65820312 C-44.696875 65.63048828 -45.83125 65.60277344 -47 65.57421875 C-48.03125 65.55963623 -49.0625 65.54505371 -50.125 65.5300293 C-53.73315994 64.86483609 -55.4149984 63.56570625 -58 61 C-59.28513077 56.9178199 -59.41603116 54.90770435 -57.625 51 C-50.77264897 43.16874168 -41.79532028 38.401654 -32.75 33.5 C-31.61175781 32.87480469 -30.47351563 32.24960938 -29.30078125 31.60546875 C-19.60835926 26.29168916 -19.60835926 26.29168916 -15.38476562 24.18359375 C-13.65516602 23.30380859 -13.65516602 23.30380859 -11.890625 22.40625 C-10.85454102 21.89384766 -9.81845703 21.38144531 -8.75097656 20.85351562 C-4.43250516 17.94387461 -2.38387178 14.58980859 -1.171875 9.5703125 C-1.03265625 8.43335938 -0.8934375 7.29640625 -0.75 6.125 C-0.60046875 4.97257812 -0.4509375 3.82015625 -0.296875 2.6328125 C-0.19890625 1.76398438 -0.1009375 0.89515625 0 0 Z " fill="#FCA556" transform="translate(391,1088)"/>
<path d="M0 0 C5.01593881 4.10394993 8.4190223 9.17670079 9.40185547 15.64453125 C9.57248039 18.56490082 9.59504198 21.45005062 9.5625 24.375 C9.59827148 25.84066406 9.59827148 25.84066406 9.63476562 27.3359375 C9.62038595 34.54494968 8.05921688 40.00035282 4 46 C1.6484375 48.25390625 1.6484375 48.25390625 -0.625 49.5625 C-1.38039063 50.01753906 -2.13578125 50.47257813 -2.9140625 50.94140625 C-8.64368201 53.8491345 -14.9437001 53.864281 -21.0625 52.0625 C-26.81887003 49.65151536 -31.4739963 44.26838619 -34.08300781 38.68041992 C-35.65140701 34.09590054 -35.36892332 29.49111226 -35.375 24.6875 C-35.39949219 23.68009766 -35.42398437 22.67269531 -35.44921875 21.63476562 C-35.47928902 13.94178698 -34.12327648 8.62907025 -29.0703125 2.7578125 C-19.9725096 -4.87849596 -10.2281274 -6.8411817 0 0 Z " fill="#4E5760" transform="translate(415,559)"/>
<path d="M0 0 C6.38951034 5.55887399 9.68365297 11.51321886 10.27734375 19.93359375 C10.611856 30.05258933 10.33432769 39.24038193 3.75 47.4375 C-0.69853282 52.04424424 -5.08487004 54.10591107 -11.5 54.3125 C-18.79325149 54.01532167 -23.768161 52.231839 -29 47 C-34.87256192 38.51741056 -35.87267255 29.15473514 -35 19 C-33.41299488 11.17367339 -31.24582078 5.38785272 -24.5625 0.75 C-17.02066951 -4.20132018 -7.85458988 -4.69704475 0 0 Z " fill="#4F5760" transform="translate(635,558)"/>
<path d="M0 0 C-27.38003501 20.25677387 -63.89500344 25.35625134 -96.9375 20.75 C-115.93038643 17.81537169 -134.21574365 12.21602665 -150 1 C-147.14433759 -0.4278312 -145.35697082 0.33326326 -142.234375 0.92578125 C-141.04674561 1.14468018 -139.85911621 1.3635791 -138.63549805 1.58911133 C-137.35328369 1.82782959 -136.07106934 2.06654785 -134.75 2.3125 C-101.98091992 8.15892064 -68.90454076 9.06713635 -35.875 4.6875 C-35.07087677 4.58090057 -34.26675354 4.47430115 -33.43826294 4.36447144 C-24.45050288 3.14513935 -15.64235059 1.61093097 -6.82470703 -0.53588867 C-4.09834756 -0.98384108 -2.56849991 -0.92042439 0 0 Z " fill="#F8A357" transform="translate(588,716)"/>
<path d="M0 0 C3.29263854 2.87307795 4.07917258 5.50911448 4.9140625 9.7109375 C5.05351041 13.42532262 3.41290323 15.32624236 1 18 C-4.93131177 21.95420785 -12.68594991 19.72601834 -19.375 18.5625 C-25.91061614 17.47397028 -32.39192095 16.54164582 -39 16 C-38.67 15.34 -38.34 14.68 -38 14 C-32.29145623 13.65207521 -27.29533671 14.05072795 -21.75 15.5 C-15.03215361 17.1595155 -7.85766875 18.40480546 -1 17 C1.52486863 13.97329413 2.38628141 11.59686768 2.1875 7.6875 C2.125625 6.470625 2.06375 5.25375 2 4 C1.34 4 0.68 4 0 4 C0 2.68 0 1.36 0 0 Z " fill="#D9A772" transform="translate(455,1139)"/>
<path d="M0 0 C2.9859226 0.67231008 5.69819006 1.6306385 8.51953125 2.8125 C9.37740234 3.16570313 10.23527344 3.51890625 11.11914062 3.8828125 C12.90471988 4.62345886 14.68860324 5.36820798 16.47070312 6.1171875 C21.37353279 8.12672427 25.70186378 9.38646432 31 10 C33.00449633 10.65302289 35.00388125 11.32180062 37 12 C40.61124429 12.93356816 44.24251345 13.77840422 47.875 14.625 C48.84953125 14.85445312 49.8240625 15.08390625 50.828125 15.3203125 C53.21818172 15.88267879 55.60880429 16.44250033 58 17 C58 17.33 58 17.66 58 18 C50.2523919 17.51004017 42.9548127 16.29428762 35.4375 14.375 C34.40262451 14.11283691 33.36774902 13.85067383 32.30151367 13.58056641 C25.67137087 11.84270172 19.2094932 9.83728947 12.8125 7.375 C12.08925537 7.09833496 11.36601074 6.82166992 10.62084961 6.53662109 C6.52950333 4.87970179 3.2970532 2.93213664 0 0 Z " fill="#E0AB70" transform="translate(412,683)"/>
<path d="M0 0 C-6.625 3 -6.625 3 -10 3 C-10 3.66 -10 4.32 -10 5 C-12.31 5 -14.62 5 -17 5 C-17 5.66 -17 6.32 -17 7 C-20.96 7 -24.92 7 -29 7 C-29 7.66 -29 8.32 -29 9 C-37.91 9 -46.82 9 -56 9 C-56 8.67 -56 8.34 -56 8 C-55.33170166 7.95512451 -54.66340332 7.91024902 -53.97485352 7.86401367 C-28.63468967 6.22707178 -28.63468967 6.22707178 -4.22265625 -0.328125 C-2 -1 -2 -1 0 0 Z " fill="#FEF0D2" transform="translate(563,730)"/>
<path d="M0 0 C12.87 1.98 25.74 3.96 39 6 C39 6.33 39 6.66 39 7 C34.53955433 7.08109901 30.13715423 7.02858829 25.6875 6.70703125 C24.54752563 6.62666626 24.54752563 6.62666626 23.38452148 6.54467773 C21.84428408 6.43212753 20.30467259 6.3106326 18.76586914 6.17993164 C16.84796628 6.04150402 14.92285118 6.01252672 13 6 C12.34 6.66 11.68 7.32 11 8 C9.16399255 6.85845641 7.33125195 5.71165684 5.5 4.5625 C4.4790625 3.92441406 3.458125 3.28632812 2.40625 2.62890625 C1.6121875 2.09136719 0.818125 1.55382812 0 1 C0 0.67 0 0.34 0 0 Z " fill="#E3A86B" transform="translate(438,716)"/>
<path d="M0 0 C8.76603986 0.62261613 17.08561872 2.88128681 25.5625 5.0625 C27.06301143 5.44390903 28.56366153 5.82477299 30.06445312 6.20507812 C33.71126501 7.13044002 37.35611918 8.06316578 41 9 C41 9.33 41 9.66 41 10 C34.59859183 9.59730838 28.7821441 8.49354842 22.62890625 6.69921875 C19.08949262 5.75782939 15.6421145 5.34359571 12 5 C12 4.34 12 3.68 12 3 C11.37351562 2.93941406 10.74703125 2.87882812 10.1015625 2.81640625 C9.28429687 2.73261719 8.46703125 2.64882812 7.625 2.5625 C6.40683594 2.44068359 6.40683594 2.44068359 5.1640625 2.31640625 C3 2 3 2 1 1 C0.67 1.99 0.34 2.98 0 4 C0 2.68 0 1.36 0 0 Z " fill="#DEAB71" transform="translate(391,1088)"/>
<path d="M0 0 C0 0.99 0 1.98 0 3 C-9.4857934 7.9402129 -19.02102923 12.15827466 -29 16 C-30.66773657 16.66398566 -32.33485725 17.3295361 -34 18 C-34 18.66 -34 19.32 -34 20 C-35.98 20.66 -37.96 21.32 -40 22 C-36.51524096 18.21137514 -33.31685512 15.85535911 -28.6875 13.625 C-28.0901001 13.33463867 -27.4927002 13.04427734 -26.87719727 12.74511719 C-21.46039444 10.14326323 -15.95363451 7.7357146 -10.41870117 5.39697266 C-6.7612619 3.83925186 -3.35348054 2.13695881 0 0 Z " fill="#E5AE71" transform="translate(438,635)"/>
<path d="M0 0 C0.33 0.66 0.66 1.32 1 2 C-0.32 2.33 -1.64 2.66 -3 3 C-2.01 2.01 -1.02 1.02 0 0 Z M-5 3 C-4.34 3.33 -3.68 3.66 -3 4 C-7.39453125 8.00390625 -7.39453125 8.00390625 -9 9 C-9.99 8.67 -10.98 8.34 -12 8 C-9.69 6.35 -7.38 4.7 -5 3 Z M-14 9 C-13.34 9.33 -12.68 9.66 -12 10 C-12.99 10.99 -13.98 11.98 -15 13 C-15.66 12.67 -16.32 12.34 -17 12 C-16.01 11.01 -15.02 10.02 -14 9 Z M-19 13 C-18.34 13.33 -17.68 13.66 -17 14 C-25.261959 22.44646925 -25.261959 22.44646925 -30 26 C-30.66 25.67 -31.32 25.34 -32 25 C-27.71 21.04 -23.42 17.08 -19 13 Z M-34 26 C-32 27 -32 27 -32 27 Z " fill="#F4F5F5" transform="translate(336,751)"/>
<path d="M0 0 C4.12219641 1.57389403 8.06720289 3.44541462 12.015625 5.40625 C12.67205994 5.73161743 13.32849487 6.05698486 14.00482178 6.39221191 C15.38365262 7.07692654 16.76191928 7.76277837 18.13964844 8.44970703 C20.25436308 9.50217145 22.37319033 10.54603418 24.4921875 11.58984375 C25.83359538 12.25728611 27.17475036 12.92523702 28.515625 13.59375 C29.15099182 13.90526001 29.78635864 14.21677002 30.440979 14.53771973 C34.88576188 16.77152375 34.88576188 16.77152375 36 19 C31.84006635 18.07221633 28.27200236 16.2443817 24.5 14.3125 C23.79456055 13.95599365 23.08912109 13.5994873 22.36230469 13.23217773 C19.62016881 11.84591705 16.88250654 10.45101757 14.14648438 9.05273438 C12.51576364 8.21982945 10.88294382 7.391038 9.25 6.5625 C8.32703125 6.08941406 7.4040625 5.61632813 6.453125 5.12890625 C4.28535575 4.13131817 2.33017172 3.4736564 0 3 C0 2.01 0 1.02 0 0 Z " fill="#E1AC72" transform="translate(640,1108)"/>
<path d="M0 0 C-0.33 1.98 -0.66 3.96 -1 6 C-1.99 5.67 -2.98 5.34 -4 5 C-4 4.34 -4 3.68 -4 3 C-4.99 3.08378906 -5.98 3.16757813 -7 3.25390625 C-13.78797045 3.79072537 -20.25663655 4.23857696 -27 3 C-27 2.67 -27 2.34 -27 2 C-22.87510326 1.66538055 -18.75006633 1.33252169 -14.625 1 C-12.8615625 0.85691406 -12.8615625 0.85691406 -11.0625 0.7109375 C-9.94101562 0.62070313 -8.81953125 0.53046875 -7.6640625 0.4375 C-6.62717285 0.35371094 -5.5902832 0.26992187 -4.52197266 0.18359375 C-3.01738813 0.07406349 -1.50856604 0 0 0 Z " fill="#B8E1EA" transform="translate(570,1101)"/>
<path d="M0 0 C0.66 0.33 1.32 0.66 2 1 C-0.12232979 2.17176518 -2.24757791 3.33754785 -4.375 4.5 C-4.97828125 4.83386719 -5.5815625 5.16773438 -6.203125 5.51171875 C-10.7734375 8 -10.7734375 8 -13 8 C-13 8.66 -13 9.32 -13 10 C-19.478125 14.11111779 -19.478125 14.11111779 -22.12011719 13.54858398 C-22.74047852 13.36755127 -23.36083984 13.18651855 -24 13 C-21.50136876 11.58087449 -19.00115719 10.1646616 -16.5 8.75 C-15.80390625 8.35425781 -15.1078125 7.95851563 -14.390625 7.55078125 C-9.66226157 4.88013153 -4.94191616 2.25609216 0 0 Z " fill="#DDAB75" transform="translate(382,1109)"/>
<path d="M0 0 C8.09106278 -0.49313475 15.18637106 1.02355126 23 3 C24.66437642 3.34458673 26.33031849 3.68211239 28 4 C28 4.33 28 4.66 28 5 C18.27604657 4.367277 8.65544349 3.27665042 -1 2 C-0.67 1.34 -0.34 0.68 0 0 Z " fill="#EDB171" transform="translate(417,1153)"/>
<path d="M0 0 C0 3.46551464 -0.39192151 3.79933951 -2.625 6.25 C-3.16898438 6.85972656 -3.71296875 7.46945312 -4.2734375 8.09765625 C-5.12808594 9.03931641 -5.12808594 9.03931641 -6 10 C-7.08883271 11.22429781 -8.17240046 12.45330348 -9.25 13.6875 C-9.72953125 14.22761719 -10.2090625 14.76773437 -10.703125 15.32421875 C-12.09495367 17.12269616 -13.0483727 18.93963711 -14 21 C-14.33 20.34 -14.66 19.68 -15 19 C-11.57735584 11.53241274 -5.75580582 5.75580582 0 0 Z " fill="#E7B073" transform="translate(582,1123)"/>
<path d="M0 0 C-3.32609792 2.21739862 -5.3930273 2.55538805 -9.3125 3.125 C-10.42238281 3.29257813 -11.53226563 3.46015625 -12.67578125 3.6328125 C-15.81772994 3.97986676 -18.84238352 4.06687841 -22 4 C-18.5989125 1.73260834 -15.49364674 1.07762252 -11.5625 0.3125 C-10.89412109 0.17005859 -10.22574219 0.02761719 -9.53710938 -0.11914062 C-6.08640357 -0.80654585 -3.34010306 -1.272827 0 0 Z " fill="#DFAB72" transform="translate(617,1093)"/>
<path d="M0 0 C0 4.17582489 -2.26206035 6.12084856 -5 9 C-7.0625 10.9375 -7.0625 10.9375 -9 12 C-11.12109375 11.56640625 -11.12109375 11.56640625 -13 11 C-12.31292969 10.45730469 -11.62585938 9.91460938 -10.91796875 9.35546875 C-10.01691406 8.64003906 -9.11585938 7.92460938 -8.1875 7.1875 C-7.29417969 6.47980469 -6.40085937 5.77210938 -5.48046875 5.04296875 C-3.52923089 3.43588623 -1.73725024 1.82959577 0 0 Z " fill="#C3F0F8" transform="translate(808,953)"/>
<path d="M0 0 C-5.42791666 3.61861111 -11.68295272 3.11082539 -18 3 C-14.93344745 0.95563163 -13.12890332 0.45609789 -9.5625 -0.1875 C-8.61503906 -0.36667969 -7.66757812 -0.54585937 -6.69140625 -0.73046875 C-4.10788261 -0.98919608 -2.43945237 -0.81315079 0 0 Z " fill="#D2A370" transform="translate(588,716)"/>
<path d="M0 0 C3.41997495 1.4991671 5.87065088 3.49437137 8.625 6 C9.40101563 6.70125 10.17703125 7.4025 10.9765625 8.125 C12.34234404 9.39058907 13.6833613 10.6833613 15 12 C8.99851649 10.88861416 5.00727368 7.45252631 1 3 C0.67 2.01 0.34 1.02 0 0 Z " fill="#DAA76D" transform="translate(577,629)"/>
<path d="M0 0 C-1.90881434 1.03544174 -3.82739204 2.05290085 -5.75 3.0625 C-6.81734375 3.63097656 -7.8846875 4.19945312 -8.984375 4.78515625 C-12.02593537 6.01044806 -13.04893565 6.25348607 -16 5 C-14.09118566 3.96455826 -12.17260796 2.94709915 -10.25 1.9375 C-8.64898437 1.08478516 -8.64898437 1.08478516 -7.015625 0.21484375 C-3.97406463 -1.01044806 -2.95106435 -1.25348607 0 0 Z " fill="#E1AB70" transform="translate(490,601)"/>
<path d="M0 0 C2 1.5625 2 1.5625 4 4 C4.4375 7.5625 4.4375 7.5625 4 11 C2.47265625 12.71484375 2.47265625 12.71484375 1 14 C1.01160156 13.24074219 1.02320313 12.48148438 1.03515625 11.69921875 C1.04417969 10.70535156 1.05320312 9.71148438 1.0625 8.6875 C1.07990234 7.20830078 1.07990234 7.20830078 1.09765625 5.69921875 C1.12329862 2.90036151 1.12329862 2.90036151 0 0 Z " fill="#E2AC72" transform="translate(627,659)"/>
<path d="M0 0 C1.05742268 3.17226804 1.17274314 3.98937583 0 7 C-1.62890625 8.703125 -1.62890625 8.703125 -3.5625 10.25 C-4.20316406 10.77078125 -4.84382812 11.2915625 -5.50390625 11.828125 C-5.99761719 12.21484375 -6.49132812 12.6015625 -7 13 C-5.54331217 10.03216871 -3.98767914 7.13584687 -2.375 4.25 C-1.92898438 3.45078125 -1.48296875 2.6515625 -1.0234375 1.828125 C-0.68570313 1.22484375 -0.34796875 0.6215625 0 0 Z " fill="#3E454D" transform="translate(798,931)"/>
<path d="M0 0 C1.98 0.495 1.98 0.495 4 1 C4 1.66 4 2.32 4 3 C5.98 3.99 7.96 4.98 10 6 C7 7 7 7 4.95703125 6.22265625 C4.24933594 5.83980469 3.54164063 5.45695313 2.8125 5.0625 C2.09707031 4.68222656 1.38164062 4.30195312 0.64453125 3.91015625 C0.10183594 3.60980469 -0.44085938 3.30945313 -1 3 C-0.67 2.01 -0.34 1.02 0 0 Z " fill="#EE9D56" transform="translate(451,721)"/>
<path d="M0 0 C-1.28524261 0.86380259 -2.57842419 1.71580369 -3.875 2.5625 C-4.59429688 3.03816406 -5.31359375 3.51382813 -6.0546875 4.00390625 C-6.69664062 4.33261719 -7.33859375 4.66132812 -8 5 C-8.66 4.67 -9.32 4.34 -10 4 C-10 3.01 -10 2.02 -10 1 C-8.71073008 0.63720544 -7.41846728 0.28503302 -6.125 -0.0625 C-5.40570312 -0.25972656 -4.68640625 -0.45695313 -3.9453125 -0.66015625 C-2 -1 -2 -1 0 0 Z " fill="#EC9D52" transform="translate(585,718)"/>
<path d="M0 0 C0.66 0.33 1.32 0.66 2 1 C-0.33333333 3.33333333 -2.66666667 5.66666667 -5 8 C-5.99 7.67 -6.98 7.34 -8 7 C-5.36 4.69 -2.72 2.38 0 0 Z " fill="#3C434C" transform="translate(452,597)"/>
<path d="M0 0 C0.515625 0.2475 1.03125 0.495 1.5625 0.75 C-4.8375 4.81153846 -4.8375 4.81153846 -7.875 4.5 C-8.390625 4.2525 -8.90625 4.005 -9.4375 3.75 C-3.0375 -0.31153846 -3.0375 -0.31153846 0 0 Z " fill="#E7AC6B" transform="translate(367.4375,1118.25)"/>
<path d="M0 0 C0.33 0.99 0.66 1.98 1 3 C-0.32 4.32 -1.64 5.64 -3 7 C-3.66 6.67 -4.32 6.34 -5 6 C-3.35 4.02 -1.7 2.04 0 0 Z " fill="#F4F5F4" transform="translate(284,797)"/>
<path d="M0 0 C1.98 0 3.96 0 6 0 C6 0.66 6 1.32 6 2 C7.98 2 9.96 2 12 2 C12 2.33 12 2.66 12 3 C9.03 3 6.06 3 3 3 C3 2.34 3 1.68 3 1 C2.01 0.67 1.02 0.34 0 0 Z " fill="#4E4E51" transform="translate(453,717)"/>
</svg>
